<svg xmlns="http://www.w3.org/2000/svg" viewBox="0 0 4680 3120"><defs><style>.cls-1{isolation:isolate;}.cls-11,.cls-2{fill:#fff;}.cls-2{opacity:0;}.cls-3{fill:#c4e6e9;}.cls-4{fill:#267280;}.cls-5{fill:#14555f;}.cls-6{fill:#2d8f94;}.cls-7{fill:#bce2df;}.cls-8{fill:#95cacb;}.cls-9{fill:#21657e;}.cls-10{fill:#2b307d;}.cls-12{fill:#252158;}.cls-13{fill:#f36f63;}.cls-14,.cls-30{opacity:0.3;}.cls-15{fill:#da4043;}.cls-16{fill:#1bb9ec;}.cls-17{fill:#fdbe10;}.cls-18{fill:#fdbf23;}.cls-19{fill:#f6dd65;}.cls-20{fill:#ffcd1e;}.cls-21{fill:#faa922;}.cls-22{mix-blend-mode:multiply;}.cls-23{fill:#e5d3d1;}.cls-24{fill:#f5d163;}.cls-25{fill:#f3921f;}.cls-26{fill:#f3981f;}.cls-27{fill:#fac954;}.cls-28{fill:#f18921;}.cls-29{fill:#f5ab1b;}.cls-30{mix-blend-mode:screen;}.cls-31{fill:#f9b383;}.cls-32{fill:#e2896c;}.cls-33{fill:#f5927e;}.cls-34{fill:#310000;}.cls-35{fill:#faba97;}.cls-36{opacity:0.32;}.cls-37{fill:#f08372;}.cls-38{fill:#de7360;}.cls-39{fill:#281c1c;}.cls-40{fill:#0e0d0b;}.cls-41{fill:#490302;}.cls-42{fill:#731f21;}.cls-43{fill:#77c1b8;}.cls-44{opacity:0.75;}.cls-45{fill:#0e4873;}.cls-46{fill:#f59271;}.cls-47{fill:#cd3831;}.cls-48{fill:#ad3133;}</style></defs><title>01</title><g class="cls-1"><g id="_01" data-name="01"><rect id="_01-2" data-name="01" class="cls-2" x="-19.95" y="6.6" width="4680" height="3120"/><path class="cls-3" d="M3016.76,876.93a786.27,786.27,0,0,0-416.87,84.23c-108.34-272-364.53-472.72-676.31-495.49-381.11-27.83-718.75,219.52-817.78,573.58-218.91,126.28-373.42,355.16-393.23,626.05-31.78,434.48,295,812.45,729.81,844.2a789,789,0,0,0,246.15-20.58,787.5,787.5,0,0,0,299.61,83c229.61,16.76,443.43-66.38,598.81-212.54a787.16,787.16,0,0,0,314.72,90.94c434.85,31.75,813.12-294.73,844.9-729.22S3451.61,908.69,3016.76,876.93Z"/><path class="cls-4" d="M3638.68,1652.4c-63.9-7-206.64,189.47-234.71,353.68s-20.39,291.14,22.77,333.4c0,0,225.88-11.42,323.37-238.61S3702.58,1659.44,3638.68,1652.4Z"/><polygon class="cls-5" points="3594.88 1817.06 3595.31 1820.26 3712.99 1732.59 3711.4 1730.49 3594.88 1817.06"/><path class="cls-5" d="M3593.31,1847.19l-1.21,2.34a11.91,11.91,0,0,0,1.69.69c27.76,9.15,152-44.11,157.42-46.43l-1.05-2.41C3748.82,1802,3616.07,1858.88,3593.31,1847.19Z"/><path class="cls-5" d="M3498.79,1782.89l-2.28,1.35c8.53,14.25,83.55,139.36,90.6,144.27l1.52-2.15C3583.65,1922.89,3532.17,1838.66,3498.79,1782.89Z"/><polygon class="cls-5" points="3582.64 1973.06 3584.38 1975.05 3759.1 1824.95 3757.37 1822.96 3582.64 1973.06"/><path class="cls-5" d="M3566.31,2072.91l.84,3.89c20.76-10.33,193-213.36,200.18-221.89l-2-1.67C3763.55,1855.32,3586.57,2062.82,3566.31,2072.91Z"/><path class="cls-5" d="M3619.53,2018.87l-.83,2.49c39.74,13.1,154.58-35,159.44-37l-1-2.42C3775.93,1982.39,3658.32,2031.65,3619.53,2018.87Z"/><path class="cls-5" d="M3558.28,2103.39l-.61,2.56c54.41,12.79,205.46-76.19,211.86-80l-1.36-2.25C3766.62,2024.63,3611.65,2115.94,3558.28,2103.39Z"/><path class="cls-5" d="M3541.56,2161.4l-.69-.25-.94,2.46.75.27c36.86,12.14,194.56-58.05,201.3-61.06l-1.09-2.4C3739.25,2101.16,3577.41,2173.21,3541.56,2161.4Z"/><path class="cls-5" d="M3571.57,2162.72l-3.32.93c3.58,3.3,14,9.94,20.19,12,34.16,11.25,99.61,5.43,102.87,5.13l-.24-2.62C3690.14,2178.24,3603.67,2186.39,3571.57,2162.72Z"/><polygon class="cls-5" points="3495.27 2258.95 3494.2 2262.57 3636.17 2242.39 3635.81 2239.78 3495.27 2258.95"/><path class="cls-5" d="M3459.76,1851.31c14.81,12.61,105,47.46,108.7,48.89l0-2.73c-.9-.35-92.53-35.84-107-48.15Z"/><polygon class="cls-5" points="3449.14 1876.76 3554.56 2049.01 3556.94 2046.39 3451.4 1875.4 3449.14 1876.76"/><path class="cls-5" d="M3421,1956.92l-1.45,2.2c2.7,1.74,49.75,32,82.9,42.88,12.25,4,22.6,5.44,28.12,1.8l-1.46-2.19C3510.07,2014.15,3421.88,1957.49,3421,1956.92Z"/><path class="cls-5" d="M3412.55,1997.79l-2.63.33c5.24,41.24,115.46,133.46,119.88,137.09l1.47-3.77C3530.2,2130.56,3417.66,2038,3412.55,1997.79Z"/><path class="cls-5" d="M3395.49,2095.41c1.33,22,75,148.51,78,153.68l2.11-2c-.74-1.26-76.21-130.5-77.5-151.83Z"/><path class="cls-5" d="M3401.12,2062.85c21.43,17.82,56.29,31.15,77.53,38.14,10.79,3.56,18,5.48,18.27,5.54l.67-2.55c-.62-.16-62.91-16.64-94.77-43.15Z"/><path class="cls-5" d="M3512.13,2174.52c-85.39,203.57-218.19,324.05-218.19,324.05l31.6,29s121.34-129.54,206.84-341.27c85.64-212.08,60.18-453.89,60.18-453.89S3597.52,1971,3512.13,2174.52Z"/><path class="cls-6" d="M3569,2101c-162.48,136.92-114.47,323.24-114.47,323.24,45.81,24.31,152.39-1.73,280.61-66.27s253.92-230.41,231.86-280.51S3731.52,1964.05,3569,2101Z"/><polygon class="cls-4" points="3839.7 2155.32 3842.44 2154.86 3884.18 2038.23 3882.04 2037.48 3839.7 2155.32"/><path class="cls-4" d="M3815.89,2024.79l-2.25-.25c-.55,5-12.85,119.42,1.75,139.63a9.35,9.35,0,0,0,1,1.2l1.62-1.58C3802.59,2148.28,3815.76,2026,3815.89,2024.79Z"/><path class="cls-4" d="M3752.55,2189.51c5.84,4.47,128,33.58,142,36.88l.53-2.19c-54.46-12.93-137-33.32-141.1-36.48Z"/><polygon class="cls-4" points="3714.88 2203.55 3716.96 2204.45 3796.27 2024.42 3794.19 2023.51 3714.88 2203.55"/><path class="cls-4" d="M3635.39,2243.41l3.43-.3c3.16-19,129.2-215.49,130.48-217.43l-1.9-1.23C3762.18,2032.4,3638.63,2223.93,3635.39,2243.41Z"/><path class="cls-4" d="M3660.25,2048.79l-2.26-.22c-.46,4.47-10.9,109.95,10,138.89l1.85-1.31C3649.43,2157.9,3660.14,2049.88,3660.25,2048.79Z"/><path class="cls-4" d="M3625.84,2066.15c-1.5,6.17-36.44,151.44-12.06,192.37l1.95-1.15c-23.91-40.14,11.95-189.19,12.32-190.69Z"/><path class="cls-4" d="M3571.75,2108.34l-2.25-.28c-.77,6.24-18.54,152.14.85,179l.41.54,1.78-1.39c-.13-.16-.25-.33-.37-.5C3553.31,2259.59,3571.56,2109.85,3571.75,2108.34Z"/><path class="cls-4" d="M3520.34,2168.56l-2.22.47c.59,2.72,12.43,57.35,30.39,82.22,3.26,4.51,11.38,11.28,15,13.35l-.08-2.93C3535.77,2241.62,3520.51,2169.34,3520.34,2168.56Z"/><polygon class="cls-4" points="3481.36 2229.47 3500.81 2349.88 3503.52 2348.09 3483.59 2229.1 3481.36 2229.47"/><path class="cls-4" d="M3782.88,2196.74l-2.25.71c2.12,2.63,53.78,67,67.93,75.84l1.21-1.91C3835.94,2262.76,3783.39,2197.38,3782.88,2196.74Z"/><polygon class="cls-4" points="3661.5 2246.57 3830.29 2288.38 3830.83 2286.2 3663.06 2243.97 3661.5 2246.57"/><path class="cls-4" d="M3707,2255.2l-2.17-.64c-1.6,5.41,2.19,13.46,8.63,22.38,17.44,24.14,54.3,54.67,56.42,56.41l1.45-1.73C3770.67,2331,3701.55,2273.83,3707,2255.2Z"/><path class="cls-4" d="M3599.48,2286.43l-2.74,2.16c4.12,2.67,108.15,68.72,143.48,62.49l-.39-2.22C3705.38,2354.94,3600.48,2287.08,3599.48,2286.43Z"/><path class="cls-4" d="M3518.3,2361l-1.12,2.21c5,1.13,128.09,28.8,146.52,24.3l-.54-2.19C3645.24,2389.72,3519.52,2361.29,3518.3,2361Z"/><path class="cls-4" d="M3630.67,2306.81l-1.92,1.19c.1.16,3.53,5.57,9.2,13.43,11.17,15.46,31,40.38,51.16,53.26l1.23-1.9C3660.39,2353.66,3631,2307.27,3630.67,2306.81Z"/><path class="cls-4" d="M3379.36,2592l33.2,12.44s10.18-170.36,156.27-291.46,343.94-177.7,343.94-177.7S3707,2176,3553.94,2299.49C3401.14,2422.76,3379.36,2592,3379.36,2592Z"/><path class="cls-7" d="M3648.08,2297.94c-159.46,47.16-184.14,195.27-184.14,195.27,25,31.66,109.44,46.29,221.5,40.17s254.38-85.45,254.49-128.13S3807.54,2250.77,3648.08,2297.94Z"/><polygon class="cls-8" points="3824.28 2421.19 3826.38 2421.72 3893.13 2351.4 3891.84 2350.2 3824.28 2421.19"/><path class="cls-8" d="M3847.06,2319.62c-2,3.38-47,81.32-43,100.32a8,8,0,0,0,.34,1.17l1.66-.63c-6.11-15.89,42-99.15,42.5-100Z"/><path class="cls-8" d="M3752.74,2417.6l-1.56.84c2.76,5,80.87,63.93,89.76,70.63l1.07-1.4C3807.19,2461.45,3754.68,2421.14,3752.74,2417.6Z"/><polygon class="cls-8" points="3719.82 2416.73 3721.02 2418.02 3834.69 2314.11 3833.49 2312.82 3719.82 2416.73"/><path class="cls-8" d="M3650.39,2420.42l2.55.85c8.28-12.61,160.55-113.68,162.08-114.67l-1-1.47C3807.8,2309.18,3658.88,2407.51,3650.39,2420.42Z"/><path class="cls-8" d="M3728.23,2288.24c-1.74,3.05-42.6,75.17-36.83,102.36l1.73-.36c-5.63-26.55,36.22-100.4,36.64-101.14Z"/><path class="cls-8" d="M3699.7,2290.78c-3,3.93-74,96.84-69.53,133.69l1.76-.21c-4.38-36.14,68.44-131.46,69.17-132.42Z"/><path class="cls-8" d="M3646.16,2303.15c-2.52,4.22-61.41,102.93-56.06,128.16l.12.51,1.72-.43c0-.16-.08-.31-.11-.48-5.21-24.53,55.24-125.84,55.85-126.86Z"/><path class="cls-8" d="M3591.89,2331.05l-1.74-.36c-.44,2.12-9.28,44.86-4.32,68.23.9,4.24,4.56,11.61,6.51,14.22l.87-2.11C3579.78,2388.07,3591.76,2331.65,3591.89,2331.05Z"/><polygon class="cls-8" points="3520.52 2454.52 3523.03 2454.09 3546.46 2362.84 3544.74 2362.41 3520.52 2454.52"/><path class="cls-8" d="M3768.73,2432.87c.68,2.55,17.21,64.67,24.53,75.38l1.47-1c-7.16-10.47-24-73.58-24.17-74.2Z"/><polygon class="cls-8" points="3668.05 2430.82 3775.42 2513.34 3776.5 2511.95 3669.99 2429.45 3668.05 2430.82"/><path class="cls-8" d="M3697.86,2451.19l-1.35-1.13c-2.85,3.36-2.69,10.29-.91,18.68,4.81,22.69,21.49,56,22.45,57.9l1.58-.78C3719.32,2525.23,3688,2462.79,3697.86,2451.19Z"/><path class="cls-8" d="M3611.11,2440l-2.64.69c2.1,3.19,55.53,82.83,82.75,89.4l.41-1.71C3665.09,2521.94,3611.62,2440.73,3611.11,2440Z"/><path class="cls-8" d="M3528,2469.17c3.23,2.37,82.41,60.53,97,63.06l.31-1.73c-14.19-2.46-95-62-95.81-62.57Z"/><path class="cls-8" d="M3625.2,2464.5c0,.14.76,5.08,2.32,12.46,3.09,14.53,9.38,38.53,19.7,54l1.47-1c-15.34-23-21.68-65.34-21.74-65.77Z"/><path class="cls-8" d="M3574.43,2435.09c-148.2,40.42-217.34,154.52-217.34,154.52l19.79,19.25s61.21-118.56,203.94-159.52,302-19.71,302-19.71S3722.88,2394.6,3574.43,2435.09Z"/><path class="cls-6" d="M3196.88,1987.78c-36.38,19.22-40.29,174.43,4.7,271.4s95.31,161.36,133.55,168.22c0,0,115.35-87.13,84.14-242.33S3233.26,1968.57,3196.88,1987.78Z"/><polygon class="cls-4" points="3233.71 2090.63 3235.1 2092.16 3265.42 2003.54 3263.81 2002.99 3233.71 2090.63"/><path class="cls-4" d="M3243.86,2107.13l.21,1.67a7.31,7.31,0,0,0,1.15-.23c18-5.13,64.36-77.92,66.37-81.09l-1.44-.89C3309.65,2027.37,3260.16,2105.15,3243.86,2107.13Z"/><path class="cls-4" d="M3169.7,2108.57c9.71,4.48,95,43.75,100.51,43.82l0-1.69c-3.89,0-61.83-26.13-99.82-43.65Z"/><polygon class="cls-4" points="3284.09 2177.56 3285.73 2177.99 3323.47 2035.85 3321.83 2035.42 3284.09 2177.56"/><path class="cls-4" d="M3311.83,2236.25l1.86,1.77c7.22-12.92,24.4-182.2,25.06-189.27l-1.69-.16C3336.9,2050.32,3318.87,2223.64,3311.83,2236.25Z"/><path class="cls-4" d="M3320.3,2188.56l.47,1.62c25.79-7.34,69-74,70.85-76.85l-1.42-.91C3389.75,2113.11,3345.48,2181.39,3320.3,2188.56Z"/><path class="cls-4" d="M3318.69,2255.27l.61,1.57c33.45-12.77,80.94-114.07,82.95-118.38l-1.54-.71C3400.22,2138.8,3351.5,2242.75,3318.69,2255.27Z"/><path class="cls-4" d="M3331,2292l-.45.12.39,1.64.5-.13c23.93-6.81,81.79-100.56,84.26-104.57l-1.45-.88C3413.63,2189.12,3354.26,2285.34,3331,2292Z"/><path class="cls-4" d="M3347.34,2281.89l-1.42,1.68c3.1.46,11,.24,15.06-.91,22.17-6.3,54.68-32.88,56.3-34.21l-1.09-1.3C3415.73,2247.53,3373,2282.89,3347.34,2281.89Z"/><polygon class="cls-4" points="3342.04 2360.19 3342.8 2362.49 3410.55 2300.85 3409.41 2299.6 3342.04 2360.19"/><path class="cls-4" d="M3174.88,2155.58l-.18,1.68c12.43,1.35,72.85-12.59,75.33-13.16l-1-1.45C3248.44,2142.79,3187,2156.91,3174.88,2155.58Z"/><polygon class="cls-4" points="3178.35 2174.54 3296.9 2227.83 3297.2 2225.59 3179.06 2173.01 3178.35 2174.54"/><path class="cls-4" d="M3192.67,2227.05l0,1.69c2.06,0,38-.95,59.48-7.07,8-2.27,13.95-5.24,15.54-9.15l-1.57-.63C3260.66,2225.35,3193.35,2227,3192.67,2227.05Z"/><path class="cls-4" d="M3203.1,2251.71l-1.27,1.12c17.8,19.94,109.72,29.16,113.39,29.5l-.6-2.53C3313.73,2279.72,3220.46,2271.15,3203.1,2251.71Z"/><path class="cls-4" d="M3231,2308.45l-1.34,1c8.7,11.14,93.82,51.64,97.29,53.3l.39-1.82C3326.48,2360.56,3239.45,2319.27,3231,2308.45Z"/><path class="cls-4" d="M3220.92,2288.56l-.16,1.67c17.84,1.74,41.14-3.73,54.92-7.65,7-2,11.55-3.58,11.68-3.63l-.57-1.58C3286.4,2277.51,3247.44,2291.14,3220.92,2288.56Z"/><path class="cls-4" d="M3201.65,2046.69s89.54,124.41,118.54,262.78-44.75,243-44.75,243l25.29,8s66.41-109.27,34.49-252C3303.25,2165.5,3201.65,2046.69,3201.65,2046.69Z"/><path class="cls-9" d="M2329.43,2458.47c-765,0-1385.16,67.5-1385.16,150.76S1564.43,2760,2329.43,2760s1385.17-67.5,1385.17-150.77S3094.43,2458.47,2329.43,2458.47Z"/><rect class="cls-10" x="1079.83" y="360" width="1689.84" height="1286.06" rx="84.19"/><path class="cls-11" d="M2619.65,419.56H1229.84a83.66,83.66,0,0,0-83.66,83.65V1508.57a77.93,77.93,0,0,0,77.93,77.93H2625.38a77.92,77.92,0,0,0,77.92-77.93V503.21A83.65,83.65,0,0,0,2619.65,419.56Z"/><path class="cls-12" d="M1848.07,1649.34a28.58,28.58,0,0,0-36.77,16.13l-343.55,880.66a28.24,28.24,0,0,0,16.25,36.5,28.58,28.58,0,0,0,36.77-16.13l343.55-880.66A28.24,28.24,0,0,0,1848.07,1649.34Z"/><path class="cls-12" d="M2038.19,1665.47a28.58,28.58,0,0,0-36.77-16.13,28.24,28.24,0,0,0-16.25,36.5l343.55,880.66a28.58,28.58,0,0,0,36.77,16.13,28.24,28.24,0,0,0,16.25-36.5Z"/><rect class="cls-12" x="1146.18" y="1612.04" width="1557.12" height="112.43" rx="2.63"/><path class="cls-10" d="M2782.85,1555.6H1066.64c-25.45,0-46.27,20.67-46.27,45.92s20.82,45.93,46.27,45.93H2782.85c25.45,0,46.27-20.67,46.27-45.93S2808.3,1555.6,2782.85,1555.6Z"/><path class="cls-12" d="M1924.74,1677a28.41,28.41,0,0,0-28.42,28.22v873.53a28.43,28.43,0,0,0,56.85,0V1705.21A28.41,28.41,0,0,0,1924.74,1677Z"/><ellipse class="cls-13" cx="2145.65" cy="1060.81" rx="410.44" ry="407.37"/><g class="cls-14"><ellipse cx="2145.65" cy="1060.81" rx="410.44" ry="407.37"/></g><ellipse class="cls-15" cx="2134.6" cy="1034.76" rx="410.44" ry="407.37"/><ellipse class="cls-11" cx="2134.6" cy="1034.76" rx="319.29" ry="316.9"/><ellipse class="cls-15" cx="2134.6" cy="1034.76" rx="224.65" ry="222.97"/><ellipse class="cls-11" cx="2134.6" cy="1034.76" rx="118.53" ry="117.64"/><polygon class="cls-16" points="2440.98 617.91 2452.13 704.82 2536.53 617.02 2530.11 523.23 2440.98 617.91"/><polygon class="cls-16" points="2462.38 714.89 2553.04 724.51 2643.44 635.66 2553.01 628.36 2462.38 714.89"/><g class="cls-14"><path d="M2140.12,1026.61l-5.52,15,337-239.49c-10.66-15.81-27.72-36.6-42.79-52.5Z"/></g><path class="cls-12" d="M2549.9,598.9q-21.15,21.27-42.29,42.53L2406.06,743.55l-122.31,123L2177.49,973.43c-17.2,17.3-35.19,34.11-51.74,52-.23.26-.49.5-.74.75-10,10,5.61,25.55,15.61,15.49q21.15-21.27,42.29-42.53l101.54-102.12q61.17-61.5,122.32-123L2513,667.17c17.2-17.3,35.19-34.11,51.74-52,.23-.26.49-.5.74-.74C2575.5,604.35,2559.9,588.84,2549.9,598.9Z"/><polygon class="cls-17" points="1873.11 855.66 1868.69 851.17 1864.39 855.33 1873.11 855.66"/><polygon class="cls-17" points="1829.06 823.73 1831.91 827.01 1835.39 824.03 1829.06 823.73"/><polygon class="cls-17" points="2171.12 719.03 2160.76 705.58 2149.29 717.32 2171.12 719.03"/><path class="cls-17" d="M2325.69,536.74,2160.76,705.58,2171.12,719l-21.83-1.71,11.47-11.74-51.46-66.8-.34-.44a12.52,12.52,0,0,0-.9-1,12.27,12.27,0,0,0-17.26-.25L1868.69,851.17l4.42,4.49-8.72-.33,4.3-4.16-33-33.49-.16-.17a4.45,4.45,0,0,0-6.17-.13L1666.05,969.21,1831.91,827l-2.85-3.28,6.33.3-3.48,3,32.14,36.91.08.08a6,6,0,0,0,8.42.46l.23-.21,224.38-199.72-7.9-11.15,18.5,1.72-10.6,9.43L2147.81,736a16.7,16.7,0,0,0,1.33,1.61,14.28,14.28,0,0,0,20.08.48l.42-.39,183.5-173.47.55-.54a19.25,19.25,0,0,0-.42-27.37A19.62,19.62,0,0,0,2325.69,536.74Z"/><polygon class="cls-17" points="2089.26 653.38 2097.16 664.53 2107.76 655.1 2089.26 653.38"/><polygon class="cls-17" points="2371.07 608.49 2404.62 486.35 2281.26 518.56 2371.07 608.49"/><path class="cls-18" d="M2088.36,2558.36c0,5.91,2.36,11.69,6.81,17.24a54.68,54.68,0,0,0,7.37,7.41,96.34,96.34,0,0,0,15.7,10.47c2.34,1.29,4.78,2.57,7.39,3.78a194.14,194.14,0,0,0,20.43,8.41c2.39.85,4.82,1.71,7.34,2.49,7.09,2.35,14.6,4.49,22.57,6.49,2.39.63,4.82,1.2,7.29,1.77,6.43,1.57,13.06,3,20,4.27,2.39.51,4.82.94,7.3,1.36,7.93,1.42,16.19,2.71,24.67,3.84,2.43.36,4.87.65,7.35,1,6.67.78,13.46,1.56,20.43,2.2l7.38.64c10.07.85,20.39,1.57,30.92,2.07,2.44.07,4.87.21,7.34.28q15.49.55,31.47.58h5.25c2.47,0,4.91-.07,7.34-.07,11.42-.22,22.61-.58,33.57-1.15,2.47-.14,4.9-.28,7.34-.5,8.76-.56,17.33-1.21,25.72-2.06,2.43-.21,4.86-.5,7.3-.71,12.59-1.35,24.67-3.07,36.2-4.92,2.48-.42,4.95-.85,7.35-1.28,14.09-2.49,27.23-5.42,39.35-8.62,2.48-.71,4.91-1.43,7.3-2.14a252.9,252.9,0,0,0,29.91-10.4c2.57-1.07,5-2.21,7.35-3.28a127.51,127.51,0,0,0,18.88-10.9,80.14,80.14,0,0,0,7.34-6c7.51-7,11.54-14.53,11.54-22.3v-81.57H2088.36Z"/><path class="cls-19" d="M2340.1,2411c-139,0-251.74,29.47-251.74,65.83s112.71,65.83,251.74,65.83,251.74-29.47,251.74-65.83S2479.13,2411,2340.1,2411Z"/><path class="cls-20" d="M2340.1,2422.78c-114.12,0-206.63,20.27-206.63,45.28s92.51,45.28,206.63,45.28,206.63-20.28,206.63-45.28S2454.23,2422.78,2340.1,2422.78Z"/><path class="cls-21" d="M2340.1,2422.78c-114.12,0-206.63,20.27-206.63,45.28,0,3.84,2.2,7.57,6.3,11.13,22.65-19.62,103.74-34.15,200.33-34.15s177.69,14.53,200.33,34.15c4.1-3.56,6.3-7.29,6.3-11.13C2546.73,2443.05,2454.23,2422.78,2340.1,2422.78Z"/><path class="cls-21" d="M2095.17,2575.6a54.68,54.68,0,0,0,7.37,7.41v-69.67h-7.37Z"/><path class="cls-21" d="M2118.24,2593.48c2.34,1.29,4.78,2.57,7.39,3.78v-63.48h-7.39Z"/><path class="cls-21" d="M2146.06,2605.67c2.39.85,4.82,1.71,7.34,2.49v-61.84h-7.34Z"/><path class="cls-21" d="M2176,2614.65c2.39.63,4.82,1.2,7.29,1.77v-61.69H2176Z"/><path class="cls-21" d="M2203.24,2620.69c2.39.51,4.82.94,7.3,1.36v-59.27h-7.3Z"/><path class="cls-21" d="M2235.21,2625.89c2.43.36,4.87.65,7.35,1v-58.78h-7.35Z"/><path class="cls-21" d="M2263,2629.1l7.38.64v-61.62H2263Z"/><path class="cls-21" d="M2301.29,2631.81c2.44.07,4.87.21,7.34.28v-64h-7.34Z"/><path class="cls-21" d="M2345.35,2632.67c2.47,0,4.91-.07,7.34-.07v-69.82h-7.34Z"/><path class="cls-21" d="M2386.26,2631.45c2.47-.14,4.9-.28,7.34-.5v-76.22h-7.34Z"/><path class="cls-21" d="M2419.32,2628.89c2.43-.21,4.86-.5,7.3-.71v-73.45h-7.3Z"/><path class="cls-21" d="M2462.82,2623.26c2.48-.42,4.95-.85,7.35-1.28v-75.66h-7.35Z"/><path class="cls-21" d="M2509.52,2613.36c2.48-.71,4.91-1.43,7.3-2.14v-72.95h-7.3Z"/><path class="cls-21" d="M2546.73,2600.82c2.57-1.07,5-2.21,7.35-3.28v-78.86h-7.35Z"/><path class="cls-21" d="M2573,2586.64a80.14,80.14,0,0,0,7.34-6v-75.38H2573Z"/><g class="cls-22"><path class="cls-23" d="M2580.3,2544.61a80.14,80.14,0,0,1-7.34,6,126.63,126.63,0,0,1-18.88,10.9c-2.35,1.07-4.78,2.21-7.35,3.28a251.11,251.11,0,0,1-29.91,10.4c-2.39.71-4.82,1.43-7.3,2.14-12.12,3.2-25.26,6.13-39.35,8.62-2.4.43-4.87.86-7.35,1.28-11.53,1.85-23.61,3.57-36.2,4.92-2.44.21-4.87.5-7.3.71-8.39.85-17,1.5-25.72,2.07-2.44.21-4.87.35-7.34.5-11,.57-22.15.92-33.57,1.14-2.43,0-4.87.06-7.34.06h-5.25c-10.65,0-21.14-.21-31.47-.56-2.47-.07-4.9-.22-7.34-.29-10.53-.5-20.85-1.21-30.92-2.07l-7.38-.63c-7-.64-13.76-1.43-20.43-2.21-2.48-.36-4.92-.64-7.35-1-8.48-1.14-16.74-2.42-24.67-3.85-2.48-.43-4.91-.85-7.3-1.35-6.92-1.28-13.55-2.71-20-4.28-2.47-.57-4.9-1.14-7.29-1.77-8-2-15.48-4.14-22.57-6.49-2.52-.78-5-1.64-7.34-2.5a192.07,192.07,0,0,1-20.43-8.4c-2.61-1.21-5.05-2.49-7.39-3.78a96.34,96.34,0,0,1-15.7-10.47,54.11,54.11,0,0,1-7.37-7.41c-4.45-5.56-6.81-11.32-6.81-17.24v36.05c0,5.91,2.36,11.69,6.81,17.24a54.68,54.68,0,0,0,7.37,7.41,96.34,96.34,0,0,0,15.7,10.47c2.34,1.29,4.78,2.57,7.39,3.78a194.14,194.14,0,0,0,20.43,8.41c2.39.85,4.82,1.71,7.34,2.49,7.09,2.35,14.6,4.49,22.57,6.49,2.39.63,4.82,1.2,7.29,1.77,6.43,1.57,13.06,3,20,4.27,2.39.51,4.82.94,7.3,1.36,7.93,1.42,16.19,2.71,24.67,3.84,2.43.36,4.87.65,7.35,1,6.67.78,13.46,1.56,20.43,2.2l7.38.64c10.07.85,20.39,1.57,30.92,2.07,2.44.07,4.87.21,7.34.28q15.49.55,31.47.58h5.25c2.47,0,4.91-.07,7.34-.07,11.42-.22,22.61-.58,33.57-1.15,2.47-.14,4.9-.28,7.34-.5,8.76-.56,17.33-1.21,25.72-2.06,2.43-.21,4.86-.5,7.3-.71,12.59-1.35,24.67-3.07,36.2-4.92,2.48-.42,4.95-.85,7.35-1.28,14.09-2.49,27.23-5.42,39.35-8.62,2.48-.71,4.91-1.43,7.3-2.14a252.9,252.9,0,0,0,29.91-10.4c2.57-1.07,5-2.21,7.35-3.28a127.51,127.51,0,0,0,18.88-10.9,80.14,80.14,0,0,0,7.34-6c7.51-7,11.54-14.53,11.54-22.3v-36.05C2591.84,2530.08,2587.81,2537.55,2580.3,2544.61Z"/></g><path class="cls-18" d="M2066.68,2459.31c0,5.92,2.35,11.69,6.8,17.25a54.17,54.17,0,0,0,7.38,7.4,94.53,94.53,0,0,0,15.69,10.47c2.35,1.29,4.78,2.57,7.39,3.78a192,192,0,0,0,20.43,8.41c2.38.86,4.82,1.71,7.33,2.49,7.1,2.36,14.61,4.49,22.59,6.49,2.38.63,4.82,1.2,7.29,1.77,6.43,1.57,13.05,3,20,4.28,2.4.5,4.83.93,7.31,1.35,7.92,1.43,16.19,2.71,24.67,3.85,2.42.36,4.86.65,7.34,1,6.67.78,13.47,1.57,20.44,2.21l7.38.64c10.06.85,20.39,1.57,30.92,2.06,2.43.07,4.86.22,7.34.28q15.48.55,31.46.58h5.24c2.48,0,4.92-.07,7.35-.07,11.41-.21,22.62-.57,33.57-1.14,2.48-.14,4.9-.29,7.34-.5,8.76-.57,17.33-1.21,25.72-2.07,2.44-.21,4.87-.49,7.29-.71,12.6-1.35,24.68-3.07,36.22-4.91l7.35-1.29c14.09-2.49,27.22-5.41,39.35-8.61l7.3-2.14a252.85,252.85,0,0,0,29.91-10.41c2.56-1.06,5-2.2,7.35-3.27a129.31,129.31,0,0,0,18.87-10.9,80.17,80.17,0,0,0,7.34-6c7.52-7.05,11.54-14.53,11.54-22.3v-81.57H2066.68Z"/><ellipse class="cls-24" cx="2318.41" cy="2377.77" rx="251.73" ry="65.83"/><path class="cls-20" d="M2318.41,2323.73c-114.12,0-206.63,20.28-206.63,45.29s92.51,45.27,206.63,45.27S2525.05,2394,2525.05,2369,2432.54,2323.73,2318.41,2323.73Z"/><path class="cls-21" d="M2318.41,2323.73c-114.12,0-206.63,20.28-206.63,45.29,0,3.84,2.2,7.56,6.31,11.12,22.64-19.62,103.74-34.14,200.32-34.14s177.69,14.52,200.33,34.14c4.11-3.56,6.31-7.28,6.31-11.12C2525.05,2344,2432.54,2323.73,2318.41,2323.73Z"/><path class="cls-21" d="M2073.48,2476.56a54.17,54.17,0,0,0,7.38,7.4v-69.67h-7.38Z"/><path class="cls-21" d="M2096.55,2494.43c2.35,1.29,4.78,2.57,7.39,3.78v-63.48h-7.39Z"/><path class="cls-21" d="M2124.37,2506.62c2.38.86,4.82,1.71,7.33,2.49v-61.84h-7.33Z"/><path class="cls-21" d="M2154.29,2515.6c2.38.63,4.82,1.2,7.29,1.77v-61.69h-7.29Z"/><path class="cls-21" d="M2181.55,2521.65c2.4.5,4.83.93,7.31,1.35v-59.27h-7.31Z"/><path class="cls-21" d="M2213.53,2526.85c2.42.36,4.86.65,7.34,1v-58.78h-7.34Z"/><path class="cls-21" d="M2241.31,2530.06l7.38.64v-61.63h-7.38Z"/><path class="cls-21" d="M2279.61,2532.76c2.43.07,4.86.22,7.34.28v-64h-7.34Z"/><path class="cls-21" d="M2323.65,2533.62c2.48,0,4.92-.07,7.35-.07v-69.82h-7.35Z"/><path class="cls-21" d="M2364.57,2532.41c2.48-.14,4.9-.29,7.34-.5v-76.23h-7.34Z"/><path class="cls-21" d="M2397.63,2529.84c2.44-.21,4.87-.49,7.29-.71v-73.45h-7.29Z"/><path class="cls-21" d="M2441.14,2524.22l7.35-1.29v-75.66h-7.35Z"/><path class="cls-21" d="M2487.84,2514.32l7.3-2.14v-72.95h-7.3Z"/><path class="cls-21" d="M2525.05,2501.77c2.56-1.06,5-2.2,7.35-3.27v-78.87h-7.35Z"/><path class="cls-21" d="M2551.27,2487.6a80.17,80.17,0,0,0,7.34-6v-75.37h-7.34Z"/><g class="cls-22"><path class="cls-23" d="M2558.61,2445.56a78.51,78.51,0,0,1-7.34,6,128.4,128.4,0,0,1-18.87,10.91c-2.35,1.07-4.79,2.21-7.35,3.28a254.72,254.72,0,0,1-29.91,10.4q-3.6,1.07-7.3,2.13c-12.13,3.21-25.26,6.13-39.35,8.62-2.4.43-4.88.86-7.35,1.28-11.54,1.86-23.62,3.57-36.22,4.92-2.42.22-4.85.5-7.29.72-8.39.85-17,1.49-25.72,2.06-2.44.21-4.86.36-7.34.5-11,.57-22.16.92-33.57,1.14-2.43,0-4.87.07-7.35.07h-5.24c-10.66,0-21.14-.21-31.46-.57-2.48-.07-4.91-.21-7.34-.28-10.53-.5-20.86-1.22-30.92-2.07l-7.38-.64c-7-.64-13.77-1.43-20.44-2.21-2.48-.36-4.92-.64-7.34-1-8.48-1.13-16.75-2.42-24.67-3.85-2.48-.42-4.91-.85-7.31-1.35-6.92-1.28-13.54-2.71-20-4.27-2.47-.57-4.91-1.14-7.29-1.78-8-2-15.49-4.13-22.59-6.49-2.51-.78-4.95-1.63-7.33-2.49a192,192,0,0,1-20.43-8.41c-2.61-1.21-5-2.49-7.39-3.77a95.8,95.8,0,0,1-15.69-10.48,54.17,54.17,0,0,1-7.38-7.4c-4.45-5.56-6.8-11.33-6.8-17.24v36c0,5.92,2.35,11.69,6.8,17.25a54.17,54.17,0,0,0,7.38,7.4,94.53,94.53,0,0,0,15.69,10.47c2.35,1.29,4.78,2.57,7.39,3.78a192,192,0,0,0,20.43,8.41c2.38.86,4.82,1.71,7.33,2.49,7.1,2.36,14.61,4.49,22.59,6.49,2.38.63,4.82,1.2,7.29,1.77,6.43,1.57,13.05,3,20,4.28,2.4.5,4.83.93,7.31,1.35,7.92,1.43,16.19,2.71,24.67,3.85,2.42.36,4.86.65,7.34,1,6.67.78,13.47,1.57,20.44,2.21l7.38.64c10.06.85,20.39,1.57,30.92,2.06,2.43.07,4.86.22,7.34.28q15.48.55,31.46.58h5.24c2.48,0,4.92-.07,7.35-.07,11.41-.21,22.62-.57,33.57-1.14,2.48-.14,4.9-.29,7.34-.5,8.76-.57,17.33-1.21,25.72-2.07,2.44-.21,4.87-.49,7.29-.71,12.6-1.35,24.68-3.07,36.22-4.91l7.35-1.29c14.09-2.49,27.22-5.41,39.35-8.61l7.3-2.14a252.85,252.85,0,0,0,29.91-10.41c2.56-1.06,5-2.2,7.35-3.27a129.31,129.31,0,0,0,18.87-10.9,80.17,80.17,0,0,0,7.34-6c7.52-7.05,11.54-14.53,11.54-22.3v-36C2570.15,2431,2566.13,2438.51,2558.61,2445.56Z"/></g><path class="cls-18" d="M2088.36,2355.32c0,5.92,2.36,11.68,6.81,17.24a54.11,54.11,0,0,0,7.37,7.41,96.34,96.34,0,0,0,15.7,10.47c2.34,1.29,4.78,2.57,7.39,3.78a192.07,192.07,0,0,0,20.43,8.4c2.39.86,4.82,1.71,7.34,2.5,7.09,2.35,14.6,4.49,22.57,6.49,2.39.63,4.82,1.2,7.29,1.77,6.43,1.57,13.06,3,20,4.28,2.39.5,4.82.93,7.3,1.35,7.93,1.43,16.19,2.71,24.67,3.85,2.43.35,4.87.64,7.35,1,6.67.79,13.46,1.57,20.43,2.21l7.38.64c10.07.86,20.39,1.57,30.92,2.07,2.44.08,4.87.22,7.34.29,10.33.35,20.82.57,31.47.57h5.25c2.47,0,4.91-.07,7.34-.07,11.42-.22,22.61-.57,33.57-1.14,2.47-.15,4.9-.29,7.34-.5,8.76-.57,17.33-1.22,25.72-2.07,2.43-.21,4.86-.5,7.3-.71,12.59-1.35,24.67-3.06,36.2-4.91l7.35-1.29c14.09-2.49,27.23-5.41,39.35-8.62q3.72-1.07,7.3-2.14a252.9,252.9,0,0,0,29.91-10.4c2.57-1.07,5-2.21,7.35-3.28a127.51,127.51,0,0,0,18.88-10.9,80.14,80.14,0,0,0,7.34-6c7.51-7,11.54-14.54,11.54-22.3v-81.57H2088.36Z"/><path class="cls-24" d="M2340.1,2208c-139,0-251.74,29.47-251.74,65.83s112.71,65.83,251.74,65.83,251.74-29.48,251.74-65.83S2479.13,2208,2340.1,2208Z"/><path class="cls-20" d="M2340.1,2219.74c-114.12,0-206.63,20.28-206.63,45.28s92.51,45.28,206.63,45.28S2546.73,2290,2546.73,2265,2454.23,2219.74,2340.1,2219.74Z"/><path class="cls-21" d="M2340.1,2219.74c-114.12,0-206.63,20.28-206.63,45.28,0,3.84,2.2,7.57,6.3,11.13,22.65-19.62,103.74-34.14,200.33-34.14s177.69,14.52,200.33,34.14c4.1-3.56,6.3-7.29,6.3-11.13C2546.73,2240,2454.23,2219.74,2340.1,2219.74Z"/><path class="cls-21" d="M2095.17,2372.56a54.11,54.11,0,0,0,7.37,7.41V2310.3h-7.37Z"/><path class="cls-21" d="M2118.24,2390.44c2.34,1.29,4.78,2.57,7.39,3.78v-63.48h-7.39Z"/><path class="cls-21" d="M2146.06,2402.62c2.39.86,4.82,1.71,7.34,2.5v-61.84h-7.34Z"/><path class="cls-21" d="M2176,2411.61c2.39.63,4.82,1.2,7.29,1.77v-61.69H2176Z"/><path class="cls-21" d="M2203.24,2417.66c2.39.5,4.82.93,7.3,1.35v-59.27h-7.3Z"/><path class="cls-21" d="M2235.21,2422.86c2.43.35,4.87.64,7.35,1v-58.77h-7.35Z"/><path class="cls-21" d="M2263,2426.06l7.38.64v-61.62H2263Z"/><path class="cls-21" d="M2301.29,2428.77c2.44.08,4.87.22,7.34.29v-64h-7.34Z"/><path class="cls-21" d="M2345.35,2429.63c2.47,0,4.91-.07,7.34-.07v-69.82h-7.34Z"/><path class="cls-21" d="M2386.26,2428.42c2.47-.15,4.9-.29,7.34-.5v-76.23h-7.34Z"/><path class="cls-21" d="M2419.32,2425.85c2.43-.21,4.86-.5,7.3-.71v-73.45h-7.3Z"/><path class="cls-21" d="M2462.82,2420.23l7.35-1.29v-75.66h-7.35Z"/><path class="cls-21" d="M2509.52,2410.32q3.72-1.07,7.3-2.14v-72.95h-7.3Z"/><path class="cls-21" d="M2546.73,2397.78c2.57-1.07,5-2.21,7.35-3.28v-78.86h-7.35Z"/><path class="cls-21" d="M2573,2383.6a80.14,80.14,0,0,0,7.34-6v-75.37H2573Z"/><g class="cls-22"><path class="cls-23" d="M2580.3,2341.57a80.17,80.17,0,0,1-7.34,6,127.51,127.51,0,0,1-18.88,10.89c-2.35,1.07-4.78,2.21-7.35,3.28a252.85,252.85,0,0,1-29.91,10.41q-3.59,1.07-7.3,2.13c-12.12,3.21-25.26,6.13-39.35,8.63l-7.35,1.28c-11.53,1.84-23.61,3.56-36.2,4.91-2.44.21-4.87.5-7.3.72-8.39.84-17,1.49-25.72,2.05-2.44.22-4.87.37-7.34.51-11,.57-22.15.92-33.57,1.13-2.43,0-4.87.08-7.34.08h-5.25c-10.65,0-21.14-.22-31.47-.57-2.47-.07-4.9-.21-7.34-.29-10.53-.49-20.85-1.21-30.92-2.07L2263,2390c-7-.64-13.76-1.43-20.43-2.21-2.48-.36-4.92-.65-7.35-1-8.48-1.14-16.74-2.42-24.67-3.85-2.48-.42-4.91-.85-7.3-1.35-6.92-1.28-13.55-2.71-20-4.27-2.47-.57-4.9-1.15-7.29-1.79-8-2-15.48-4.13-22.57-6.48-2.52-.79-5-1.64-7.34-2.49a194.14,194.14,0,0,1-20.43-8.41c-2.61-1.21-5.05-2.49-7.39-3.77a96.35,96.35,0,0,1-15.7-10.48,54.11,54.11,0,0,1-7.37-7.41c-4.45-5.56-6.81-11.32-6.81-17.24v36.05c0,5.92,2.36,11.68,6.81,17.24a54.11,54.11,0,0,0,7.37,7.41,96.34,96.34,0,0,0,15.7,10.47c2.34,1.29,4.78,2.57,7.39,3.78a192.07,192.07,0,0,0,20.43,8.4c2.39.86,4.82,1.71,7.34,2.5,7.09,2.35,14.6,4.49,22.57,6.49,2.39.63,4.82,1.2,7.29,1.77,6.43,1.57,13.06,3,20,4.28,2.39.5,4.82.93,7.3,1.35,7.93,1.43,16.19,2.71,24.67,3.85,2.43.35,4.87.64,7.35,1,6.67.79,13.46,1.57,20.43,2.21l7.38.64c10.07.86,20.39,1.57,30.92,2.07,2.44.08,4.87.22,7.34.29,10.33.35,20.82.57,31.47.57h5.25c2.47,0,4.91-.07,7.34-.07,11.42-.22,22.61-.57,33.57-1.14,2.47-.15,4.9-.29,7.34-.5,8.76-.57,17.33-1.22,25.72-2.07,2.43-.21,4.86-.5,7.3-.71,12.59-1.35,24.67-3.06,36.2-4.91l7.35-1.29c14.09-2.49,27.23-5.41,39.35-8.62q3.72-1.07,7.3-2.14a252.9,252.9,0,0,0,29.91-10.4c2.57-1.07,5-2.21,7.35-3.28a127.51,127.51,0,0,0,18.88-10.9,80.14,80.14,0,0,0,7.34-6c7.51-7,11.54-14.54,11.54-22.3v-36.05C2591.84,2327,2587.81,2334.52,2580.3,2341.57Z"/></g><path class="cls-18" d="M2115.47,2256.27c0,5.92,2.35,11.69,6.81,17.25a53.64,53.64,0,0,0,7.38,7.41,96.43,96.43,0,0,0,15.69,10.47c2.34,1.28,4.78,2.56,7.38,3.77a192.23,192.23,0,0,0,20.44,8.41c2.39.86,4.81,1.71,7.33,2.49,7.1,2.36,14.61,4.5,22.58,6.49,2.39.64,4.82,1.21,7.29,1.78,6.43,1.56,13.05,3,20,4.27,2.4.5,4.84.93,7.31,1.35,7.93,1.43,16.19,2.72,24.66,3.85,2.44.36,4.88.64,7.35,1,6.67.78,13.47,1.57,20.43,2.21l7.39.64c10.07.86,20.39,1.57,30.93,2.07,2.42.07,4.86.21,7.33.28,10.33.36,20.81.57,31.47.57h5.25c2.47,0,4.9-.07,7.34-.07,11.41-.22,22.61-.57,33.57-1.14,2.47-.14,4.91-.29,7.33-.5,8.77-.57,17.33-1.21,25.73-2.06,2.43-.22,4.86-.51,7.3-.72,12.58-1.35,24.67-3.06,36.2-4.91l7.35-1.29c14.09-2.49,27.23-5.41,39.35-8.62,2.48-.7,4.91-1.42,7.3-2.13a254.72,254.72,0,0,0,29.91-10.4c2.56-1.07,5-2.21,7.35-3.29a126.49,126.49,0,0,0,18.87-10.9,80.23,80.23,0,0,0,7.36-6c7.5-7.05,11.53-14.53,11.53-22.3V2174.7H2115.47Z"/><path class="cls-24" d="M2367.21,2108.9c-139,0-251.74,29.48-251.74,65.84s112.71,65.82,251.74,65.82S2619,2211.09,2619,2174.74,2506.24,2108.9,2367.21,2108.9Z"/><path class="cls-20" d="M2367.21,2120.7c-114.12,0-206.63,20.27-206.63,45.28s92.51,45.27,206.63,45.27S2573.84,2191,2573.84,2166,2481.34,2120.7,2367.21,2120.7Z"/><path class="cls-21" d="M2367.21,2120.7c-114.12,0-206.63,20.27-206.63,45.28,0,3.84,2.2,7.57,6.3,11.13,22.65-19.63,103.74-34.15,200.33-34.15s177.68,14.52,200.33,34.15c4.1-3.56,6.3-7.29,6.3-11.13C2573.84,2141,2481.34,2120.7,2367.21,2120.7Z"/><path class="cls-21" d="M2122.28,2273.52a53.64,53.64,0,0,0,7.38,7.41v-69.68h-7.38Z"/><path class="cls-21" d="M2145.35,2291.4c2.34,1.28,4.78,2.56,7.38,3.77V2231.7h-7.38Z"/><path class="cls-21" d="M2173.17,2303.58c2.39.86,4.81,1.71,7.33,2.49v-61.84h-7.33Z"/><path class="cls-21" d="M2203.08,2312.56c2.39.64,4.82,1.21,7.29,1.78v-61.7h-7.29Z"/><path class="cls-21" d="M2230.34,2318.61c2.4.5,4.84.93,7.31,1.35v-59.27h-7.31Z"/><path class="cls-21" d="M2262.31,2323.81c2.44.36,4.88.64,7.35,1V2266h-7.35Z"/><path class="cls-21" d="M2290.09,2327l7.39.64V2266h-7.39Z"/><path class="cls-21" d="M2328.41,2329.73c2.42.07,4.86.21,7.33.28v-64h-7.33Z"/><path class="cls-21" d="M2372.46,2330.58c2.47,0,4.9-.07,7.34-.07v-69.82h-7.34Z"/><path class="cls-21" d="M2413.37,2329.37c2.47-.14,4.91-.29,7.33-.5v-76.23h-7.33Z"/><path class="cls-21" d="M2446.43,2326.81c2.43-.22,4.86-.51,7.3-.72v-73.45h-7.3Z"/><path class="cls-21" d="M2489.93,2321.18l7.35-1.29v-75.66h-7.35Z"/><path class="cls-21" d="M2536.63,2311.27c2.48-.7,4.91-1.42,7.3-2.13v-72.95h-7.3Z"/><path class="cls-21" d="M2573.84,2298.74c2.56-1.07,5-2.21,7.35-3.29v-78.86h-7.35Z"/><path class="cls-21" d="M2600.06,2284.55a80.23,80.23,0,0,0,7.36-6V2203.2h-7.36Z"/><g class="cls-22"><path class="cls-23" d="M2607.42,2242.53a83.7,83.7,0,0,1-7.36,6,128.26,128.26,0,0,1-18.87,10.9c-2.36,1.07-4.79,2.2-7.35,3.28a254.72,254.72,0,0,1-29.91,10.4l-7.3,2.14c-12.12,3.2-25.26,6.12-39.35,8.62l-7.35,1.28c-11.53,1.85-23.62,3.56-36.2,4.92-2.44.21-4.87.5-7.3.71-8.4.85-17,1.49-25.73,2.06-2.42.22-4.86.36-7.33.5-11,.57-22.16.92-33.57,1.14-2.44,0-4.87.07-7.34.07h-5.25c-10.66,0-21.14-.21-31.47-.57-2.47-.07-4.91-.21-7.33-.28-10.54-.5-20.86-1.22-30.93-2.07l-7.39-.64c-7-.64-13.76-1.43-20.43-2.21-2.47-.36-4.91-.64-7.35-1-8.47-1.14-16.73-2.42-24.66-3.85-2.47-.41-4.91-.85-7.31-1.35-6.92-1.28-13.54-2.71-20-4.27-2.47-.57-4.9-1.14-7.29-1.78-8-2-15.48-4.14-22.58-6.49-2.52-.78-4.94-1.63-7.33-2.49a190.16,190.16,0,0,1-20.44-8.41c-2.6-1.21-5-2.49-7.38-3.77a95.17,95.17,0,0,1-15.69-10.48,52.51,52.51,0,0,1-7.38-7.4c-4.46-5.56-6.81-11.33-6.81-17.25v36.05c0,5.92,2.35,11.69,6.81,17.25a53.64,53.64,0,0,0,7.38,7.41,96.43,96.43,0,0,0,15.69,10.47c2.34,1.28,4.78,2.56,7.38,3.77a192.23,192.23,0,0,0,20.44,8.41c2.39.86,4.81,1.71,7.33,2.49,7.1,2.36,14.61,4.5,22.58,6.49,2.39.64,4.82,1.21,7.29,1.78,6.43,1.56,13.05,3,20,4.27,2.4.5,4.84.93,7.31,1.35,7.93,1.43,16.19,2.72,24.66,3.85,2.44.36,4.88.64,7.35,1,6.67.78,13.47,1.57,20.43,2.21l7.39.64c10.07.86,20.39,1.57,30.93,2.07,2.42.07,4.86.21,7.33.28,10.33.36,20.81.57,31.47.57h5.25c2.47,0,4.9-.07,7.34-.07,11.41-.22,22.61-.57,33.57-1.14,2.47-.14,4.91-.29,7.33-.5,8.77-.57,17.33-1.21,25.73-2.06,2.43-.22,4.86-.51,7.3-.72,12.58-1.35,24.67-3.06,36.2-4.91l7.35-1.29c14.09-2.49,27.23-5.41,39.35-8.62,2.48-.7,4.91-1.42,7.3-2.13a254.72,254.72,0,0,0,29.91-10.4c2.56-1.07,5-2.21,7.35-3.29a126.49,126.49,0,0,0,18.87-10.9,80.23,80.23,0,0,0,7.36-6c7.5-7.05,11.53-14.53,11.53-22.3v-36.05C2619,2228,2614.92,2235.47,2607.42,2242.53Z"/></g><path class="cls-18" d="M2377.94,2574.84c0,5.91,2.36,11.69,6.81,17.25a54.07,54.07,0,0,0,7.37,7.4,96.35,96.35,0,0,0,15.7,10.48c2.34,1.28,4.78,2.56,7.39,3.77a194.14,194.14,0,0,0,20.43,8.41c2.39.86,4.82,1.71,7.34,2.5,7.08,2.34,14.6,4.48,22.57,6.48,2.39.64,4.82,1.21,7.29,1.78,6.43,1.56,13.06,3,20,4.27,2.39.5,4.82.93,7.3,1.35,7.93,1.43,16.19,2.71,24.67,3.85,2.43.35,4.87.64,7.35,1,6.67.78,13.46,1.57,20.42,2.21,2.44.21,4.92.43,7.39.63,10.07.86,20.39,1.58,30.92,2.07,2.44.07,4.87.22,7.34.29,10.33.36,20.82.57,31.47.57h5.25c2.47,0,4.91-.07,7.34-.07,11.42-.22,22.61-.57,33.57-1.14,2.47-.14,4.9-.29,7.34-.5,8.76-.57,17.33-1.22,25.72-2.07,2.43-.21,4.86-.5,7.3-.71,12.59-1.35,24.66-3.07,36.2-4.91l7.35-1.29c14.09-2.49,27.23-5.41,39.35-8.62,2.48-.71,4.91-1.43,7.3-2.13a252.85,252.85,0,0,0,29.91-10.41c2.56-1.07,5-2.2,7.35-3.27a129.3,129.3,0,0,0,18.88-10.9,80.17,80.17,0,0,0,7.34-6c7.51-7,11.54-14.53,11.54-22.3v-81.56H2377.94Z"/><path class="cls-19" d="M2629.68,2427.47c-139,0-251.74,29.48-251.74,65.83s112.71,65.83,251.74,65.83,251.74-29.47,251.74-65.83S2768.71,2427.47,2629.68,2427.47Z"/><path class="cls-20" d="M2629.68,2439.26c-114.12,0-206.63,20.27-206.63,45.28s92.51,45.28,206.63,45.28,206.63-20.28,206.63-45.28S2743.81,2439.26,2629.68,2439.26Z"/><path class="cls-21" d="M2629.68,2439.26c-114.12,0-206.63,20.27-206.63,45.28,0,3.85,2.2,7.58,6.3,11.14,22.65-19.63,103.74-34.15,200.33-34.15s177.69,14.52,200.33,34.15c4.1-3.56,6.3-7.29,6.3-11.14C2836.31,2459.53,2743.81,2439.26,2629.68,2439.26Z"/><path class="cls-21" d="M2384.75,2592.09a54.07,54.07,0,0,0,7.37,7.4v-69.67h-7.37Z"/><path class="cls-21" d="M2407.82,2610c2.34,1.28,4.78,2.56,7.39,3.77v-63.47h-7.39Z"/><path class="cls-21" d="M2435.64,2622.15c2.39.86,4.82,1.71,7.34,2.5V2562.8h-7.34Z"/><path class="cls-21" d="M2465.55,2631.13c2.39.64,4.82,1.21,7.29,1.78v-61.7h-7.29Z"/><path class="cls-21" d="M2492.82,2637.18c2.39.5,4.82.93,7.3,1.35v-59.27h-7.3Z"/><path class="cls-21" d="M2524.79,2642.38c2.43.35,4.87.64,7.35,1v-58.77h-7.35Z"/><path class="cls-21" d="M2552.56,2645.59c2.44.21,4.92.43,7.39.63v-61.61h-7.39Z"/><path class="cls-21" d="M2590.87,2648.29c2.44.07,4.87.22,7.34.29v-64h-7.34Z"/><path class="cls-21" d="M2634.93,2649.15c2.47,0,4.91-.07,7.34-.07v-69.82h-7.34Z"/><path class="cls-21" d="M2675.84,2647.94c2.47-.14,4.9-.29,7.34-.5v-76.23h-7.34Z"/><path class="cls-21" d="M2708.9,2645.37c2.43-.21,4.86-.5,7.3-.71v-73.45h-7.3Z"/><path class="cls-21" d="M2752.4,2639.75l7.35-1.29V2562.8h-7.35Z"/><path class="cls-21" d="M2799.1,2629.84c2.48-.71,4.91-1.43,7.3-2.13v-73h-7.3Z"/><path class="cls-21" d="M2836.31,2617.3c2.56-1.07,5-2.2,7.35-3.27v-78.87h-7.35Z"/><path class="cls-21" d="M2862.54,2603.13a80.17,80.17,0,0,0,7.34-6v-75.37h-7.34Z"/><g class="cls-22"><path class="cls-23" d="M2869.88,2561.1a81.84,81.84,0,0,1-7.34,6,127.51,127.51,0,0,1-18.88,10.89c-2.35,1.08-4.79,2.21-7.35,3.28a252.85,252.85,0,0,1-29.91,10.41l-7.3,2.14c-12.12,3.2-25.26,6.12-39.35,8.61l-7.35,1.29c-11.54,1.85-23.61,3.56-36.2,4.91-2.44.21-4.87.5-7.3.71-8.39.86-17,1.5-25.72,2.07-2.44.21-4.87.36-7.34.5-11,.57-22.15.93-33.57,1.14-2.43,0-4.87.07-7.34.07h-5.25c-10.65,0-21.14-.21-31.47-.57-2.47-.07-4.9-.21-7.34-.29-10.53-.49-20.85-1.21-30.92-2.06l-7.39-.64c-7-.64-13.75-1.43-20.42-2.21-2.48-.35-4.92-.64-7.35-1-8.48-1.14-16.74-2.42-24.67-3.85-2.48-.42-4.91-.85-7.3-1.35-6.92-1.28-13.55-2.71-20-4.27-2.47-.57-4.9-1.15-7.29-1.78-8-2-15.49-4.14-22.57-6.49-2.52-.78-4.95-1.63-7.34-2.49a192,192,0,0,1-20.43-8.41c-2.61-1.21-5.05-2.49-7.39-3.77a96.34,96.34,0,0,1-15.7-10.47,54.68,54.68,0,0,1-7.37-7.41c-4.45-5.56-6.81-11.33-6.81-17.25v36.05c0,5.91,2.36,11.69,6.81,17.25a54.07,54.07,0,0,0,7.37,7.4,96.35,96.35,0,0,0,15.7,10.48c2.34,1.28,4.78,2.56,7.39,3.77a194.14,194.14,0,0,0,20.43,8.41c2.39.86,4.82,1.71,7.34,2.5,7.08,2.34,14.6,4.48,22.57,6.48,2.39.64,4.82,1.21,7.29,1.78,6.43,1.56,13.06,3,20,4.27,2.39.5,4.82.93,7.3,1.35,7.93,1.43,16.19,2.71,24.67,3.85,2.43.35,4.87.64,7.35,1,6.67.78,13.46,1.57,20.42,2.21,2.44.21,4.92.43,7.39.63,10.07.86,20.39,1.58,30.92,2.07,2.44.07,4.87.22,7.34.29,10.33.36,20.82.57,31.47.57h5.25c2.47,0,4.91-.07,7.34-.07,11.42-.22,22.61-.57,33.57-1.14,2.47-.14,4.9-.29,7.34-.5,8.76-.57,17.33-1.22,25.72-2.07,2.43-.21,4.86-.5,7.3-.71,12.59-1.35,24.66-3.07,36.2-4.91l7.35-1.29c14.09-2.49,27.23-5.41,39.35-8.62,2.48-.71,4.91-1.43,7.3-2.13a252.85,252.85,0,0,0,29.91-10.41c2.56-1.07,5-2.2,7.35-3.27a129.3,129.3,0,0,0,18.88-10.9,80.17,80.17,0,0,0,7.34-6c7.51-7,11.54-14.53,11.54-22.3v-36.05C2881.42,2546.56,2877.39,2554,2869.88,2561.1Z"/></g><path class="cls-18" d="M2356.26,2475.8c0,5.91,2.35,11.68,6.8,17.24a54.17,54.17,0,0,0,7.38,7.4,94.54,94.54,0,0,0,15.69,10.48c2.35,1.28,4.78,2.57,7.39,3.77a190,190,0,0,0,20.43,8.41c2.38.86,4.82,1.71,7.33,2.5,7.09,2.35,14.61,4.48,22.58,6.48,2.39.64,4.83,1.21,7.3,1.78,6.43,1.57,13.05,3,20,4.27,2.4.5,4.83.93,7.31,1.36,7.92,1.42,16.19,2.71,24.67,3.84,2.42.36,4.86.65,7.34,1,6.67.78,13.46,1.57,20.43,2.21l7.39.64c10.06.86,20.39,1.57,30.92,2.07,2.43.07,4.86.22,7.34.28,10.32.36,20.8.58,31.46.58h5.24c2.48,0,4.92-.07,7.35-.07,11.41-.22,22.62-.57,33.57-1.15,2.48-.14,4.9-.28,7.34-.5,8.76-.57,17.33-1.21,25.72-2.07,2.44-.21,4.87-.49,7.29-.7,12.6-1.36,24.67-3.07,36.22-4.92l7.35-1.28c14.09-2.5,27.22-5.41,39.35-8.62l7.3-2.14a252,252,0,0,0,29.9-10.41c2.57-1.06,5-2.2,7.35-3.27a128,128,0,0,0,18.88-10.9,81.84,81.84,0,0,0,7.34-6c7.52-7.06,11.54-14.54,11.54-22.3v-81.57H2356.26Z"/><ellipse class="cls-24" cx="2607.99" cy="2394.26" rx="251.73" ry="65.83"/><path class="cls-20" d="M2608,2340.21c-114.12,0-206.64,20.28-206.64,45.29s92.52,45.27,206.64,45.27,206.63-20.27,206.63-45.27S2722.11,2340.21,2608,2340.21Z"/><path class="cls-21" d="M2608,2340.21c-114.12,0-206.64,20.28-206.64,45.29,0,3.84,2.21,7.57,6.32,11.13,22.64-19.63,103.74-34.15,200.32-34.15s177.68,14.52,200.33,34.15c4.11-3.56,6.3-7.29,6.3-11.13C2814.62,2360.49,2722.11,2340.21,2608,2340.21Z"/><path class="cls-21" d="M2363.06,2493a54.17,54.17,0,0,0,7.38,7.4v-69.67h-7.38Z"/><path class="cls-21" d="M2386.13,2510.92c2.35,1.28,4.78,2.57,7.39,3.77v-63.47h-7.39Z"/><path class="cls-21" d="M2414,2523.1c2.38.86,4.82,1.71,7.33,2.5v-61.84H2414Z"/><path class="cls-21" d="M2443.86,2532.08c2.39.64,4.83,1.21,7.3,1.78v-61.7h-7.3Z"/><path class="cls-21" d="M2471.13,2538.13c2.4.5,4.83.93,7.31,1.36v-59.28h-7.31Z"/><path class="cls-21" d="M2503.11,2543.33c2.42.36,4.86.65,7.34,1v-58.77h-7.34Z"/><path class="cls-21" d="M2530.88,2546.54l7.39.64v-61.62h-7.39Z"/><path class="cls-21" d="M2569.19,2549.25c2.43.07,4.86.22,7.34.28v-64h-7.34Z"/><path class="cls-21" d="M2613.23,2550.11c2.48,0,4.92-.07,7.35-.07v-69.83h-7.35Z"/><path class="cls-21" d="M2654.15,2548.89c2.48-.14,4.9-.28,7.34-.5v-76.23h-7.34Z"/><path class="cls-21" d="M2687.21,2546.32c2.44-.21,4.87-.49,7.29-.7v-73.46h-7.29Z"/><path class="cls-21" d="M2730.72,2540.7l7.35-1.28v-75.66h-7.35Z"/><path class="cls-21" d="M2777.42,2530.8l7.3-2.14v-72.95h-7.3Z"/><path class="cls-21" d="M2814.62,2518.25c2.57-1.06,5-2.2,7.35-3.27v-78.87h-7.35Z"/><path class="cls-21" d="M2840.85,2504.08a81.84,81.84,0,0,0,7.34-6v-75.38h-7.34Z"/><g class="cls-22"><path class="cls-23" d="M2848.19,2462.05a81.84,81.84,0,0,1-7.34,6,128,128,0,0,1-18.88,10.9c-2.35,1.07-4.78,2.21-7.35,3.28a255.66,255.66,0,0,1-29.9,10.41c-2.4.7-4.83,1.42-7.3,2.13-12.13,3.21-25.26,6.13-39.35,8.61-2.4.44-4.88.86-7.35,1.29-11.55,1.85-23.62,3.56-36.22,4.91-2.42.22-4.85.5-7.29.72-8.39.85-17,1.5-25.72,2.06-2.44.22-4.86.36-7.34.5-11,.57-22.16.93-33.57,1.14-2.43,0-4.87.08-7.35.08H2608c-10.66,0-21.14-.22-31.46-.57-2.48-.08-4.91-.22-7.34-.29-10.53-.5-20.86-1.21-30.92-2.07l-7.39-.64c-7-.64-13.76-1.42-20.43-2.21-2.48-.35-4.92-.64-7.34-1-8.48-1.13-16.75-2.42-24.67-3.84-2.48-.43-4.91-.86-7.31-1.36-6.92-1.27-13.54-2.7-20-4.27-2.47-.57-4.91-1.13-7.3-1.78-8-2-15.49-4.13-22.58-6.48-2.51-.78-5-1.64-7.33-2.49a192,192,0,0,1-20.43-8.42c-2.61-1.21-5-2.48-7.39-3.77a95.79,95.79,0,0,1-15.69-10.47,54.78,54.78,0,0,1-7.38-7.41c-4.45-5.56-6.8-11.33-6.8-17.24v36.05c0,5.91,2.35,11.68,6.8,17.24a54.17,54.17,0,0,0,7.38,7.4,94.54,94.54,0,0,0,15.69,10.48c2.35,1.28,4.78,2.57,7.39,3.77a190,190,0,0,0,20.43,8.41c2.38.86,4.82,1.71,7.33,2.5,7.09,2.35,14.61,4.48,22.58,6.48,2.39.64,4.83,1.21,7.3,1.78,6.43,1.57,13.05,3,20,4.27,2.4.5,4.83.93,7.31,1.36,7.92,1.42,16.19,2.71,24.67,3.84,2.42.36,4.86.65,7.34,1,6.67.78,13.46,1.57,20.43,2.21l7.39.64c10.06.86,20.39,1.57,30.92,2.07,2.43.07,4.86.22,7.34.28,10.32.36,20.8.58,31.46.58h5.24c2.48,0,4.92-.07,7.35-.07,11.41-.22,22.62-.57,33.57-1.15,2.48-.14,4.9-.28,7.34-.5,8.76-.57,17.33-1.21,25.72-2.07,2.44-.21,4.87-.49,7.29-.7,12.6-1.36,24.67-3.07,36.22-4.92l7.35-1.28c14.09-2.5,27.22-5.41,39.35-8.62l7.3-2.14a252,252,0,0,0,29.9-10.41c2.57-1.06,5-2.2,7.35-3.27a128,128,0,0,0,18.88-10.9,81.84,81.84,0,0,0,7.34-6c7.52-7.06,11.54-14.54,11.54-22.3v-36.05C2859.73,2447.52,2855.71,2455,2848.19,2462.05Z"/></g><path class="cls-18" d="M2377.94,2371.8c0,5.92,2.36,11.69,6.81,17.24a53.55,53.55,0,0,0,7.37,7.41,95.06,95.06,0,0,0,15.7,10.47c2.34,1.29,4.78,2.57,7.39,3.78a192,192,0,0,0,20.43,8.41c2.39.85,4.82,1.71,7.34,2.49,7.08,2.36,14.6,4.49,22.57,6.49,2.39.63,4.82,1.21,7.29,1.78,6.43,1.57,13.06,3,20,4.27,2.39.5,4.82.93,7.3,1.35,7.93,1.43,16.19,2.71,24.67,3.85,2.43.36,4.87.65,7.35,1,6.67.78,13.46,1.57,20.42,2.21,2.44.2,4.92.43,7.39.64,10.07.85,20.39,1.56,30.92,2.06,2.44.08,4.87.22,7.34.29,10.33.36,20.82.57,31.47.57h5.25c2.47,0,4.91-.07,7.34-.07,11.42-.21,22.61-.57,33.57-1.14,2.47-.15,4.9-.29,7.34-.5,8.76-.57,17.33-1.21,25.72-2.06,2.43-.22,4.86-.51,7.3-.72,12.59-1.35,24.66-3.06,36.2-4.91l7.35-1.29c14.09-2.49,27.23-5.41,39.35-8.61,2.48-.72,4.91-1.43,7.3-2.15a253,253,0,0,0,29.91-10.39c2.56-1.07,5-2.21,7.35-3.29a127.51,127.51,0,0,0,18.88-10.89,83.61,83.61,0,0,0,7.34-6c7.51-7.06,11.54-14.54,11.54-22.31v-81.57H2377.94Z"/><path class="cls-24" d="M2629.68,2224.43c-139,0-251.74,29.48-251.74,65.84s112.71,65.82,251.74,65.82,251.74-29.47,251.74-65.82S2768.71,2224.43,2629.68,2224.43Z"/><path class="cls-20" d="M2629.68,2236.23c-114.12,0-206.63,20.27-206.63,45.27s92.51,45.28,206.63,45.28,206.63-20.27,206.63-45.28S2743.81,2236.23,2629.68,2236.23Z"/><path class="cls-21" d="M2629.68,2236.23c-114.12,0-206.63,20.27-206.63,45.27,0,3.85,2.2,7.58,6.3,11.14,22.65-19.63,103.74-34.15,200.33-34.15S2807.37,2273,2830,2292.64c4.1-3.56,6.3-7.29,6.3-11.14C2836.31,2256.5,2743.81,2236.23,2629.68,2236.23Z"/><path class="cls-21" d="M2384.75,2389a53.55,53.55,0,0,0,7.37,7.41v-69.67h-7.37Z"/><path class="cls-21" d="M2407.82,2406.92c2.34,1.29,4.78,2.57,7.39,3.78v-63.47h-7.39Z"/><path class="cls-21" d="M2435.64,2419.11c2.39.85,4.82,1.71,7.34,2.49v-61.83h-7.34Z"/><path class="cls-21" d="M2465.55,2428.09c2.39.63,4.82,1.21,7.29,1.78v-61.7h-7.29Z"/><path class="cls-21" d="M2492.82,2434.14c2.39.5,4.82.93,7.3,1.35v-59.27h-7.3Z"/><path class="cls-21" d="M2524.79,2439.34c2.43.36,4.87.65,7.35,1v-58.77h-7.35Z"/><path class="cls-21" d="M2552.56,2442.55c2.44.2,4.92.43,7.39.64v-61.62h-7.39Z"/><path class="cls-21" d="M2590.87,2445.25c2.44.08,4.87.22,7.34.29v-64h-7.34Z"/><path class="cls-21" d="M2634.93,2446.11c2.47,0,4.91-.07,7.34-.07v-69.82h-7.34Z"/><path class="cls-21" d="M2675.84,2444.9c2.47-.15,4.9-.29,7.34-.5v-76.23h-7.34Z"/><path class="cls-21" d="M2708.9,2442.34c2.43-.22,4.86-.51,7.3-.72v-73.45h-7.3Z"/><path class="cls-21" d="M2752.4,2436.71l7.35-1.29v-75.65h-7.35Z"/><path class="cls-21" d="M2799.1,2426.81c2.48-.72,4.91-1.43,7.3-2.15v-72.95h-7.3Z"/><path class="cls-21" d="M2836.31,2414.27c2.56-1.07,5-2.21,7.35-3.29v-78.86h-7.35Z"/><path class="cls-21" d="M2862.54,2400.09a83.61,83.61,0,0,0,7.34-6v-75.38h-7.34Z"/><g class="cls-22"><path class="cls-23" d="M2869.88,2358.06a81.84,81.84,0,0,1-7.34,6,127.51,127.51,0,0,1-18.88,10.89c-2.35,1.08-4.79,2.22-7.35,3.28a251.06,251.06,0,0,1-29.91,10.41l-7.3,2.14c-12.12,3.2-25.26,6.12-39.35,8.62l-7.35,1.28c-11.54,1.85-23.61,3.56-36.2,4.91-2.44.21-4.87.5-7.3.72-8.39.85-17,1.49-25.72,2.06-2.44.22-4.87.36-7.34.5-11,.57-22.15.93-33.57,1.14-2.43,0-4.87.07-7.34.07h-5.25c-10.65,0-21.14-.21-31.47-.57-2.47-.07-4.9-.21-7.34-.28-10.53-.5-20.85-1.22-30.92-2.07l-7.39-.64c-7-.64-13.75-1.43-20.42-2.21-2.48-.36-4.92-.64-7.35-1-8.48-1.13-16.74-2.42-24.67-3.84-2.48-.43-4.91-.86-7.3-1.36-6.92-1.28-13.55-2.7-20-4.27-2.47-.57-4.9-1.14-7.29-1.78-8-2-15.49-4.14-22.57-6.48-2.52-.79-4.95-1.65-7.34-2.5a192,192,0,0,1-20.43-8.41c-2.61-1.21-5.05-2.49-7.39-3.77a95.71,95.71,0,0,1-15.7-10.48,54.07,54.07,0,0,1-7.37-7.4c-4.45-5.56-6.81-11.33-6.81-17.24v36c0,5.92,2.36,11.69,6.81,17.24a53.55,53.55,0,0,0,7.37,7.41,95.06,95.06,0,0,0,15.7,10.47c2.34,1.29,4.78,2.57,7.39,3.78a192,192,0,0,0,20.43,8.41c2.39.85,4.82,1.71,7.34,2.49,7.08,2.36,14.6,4.49,22.57,6.49,2.39.63,4.82,1.21,7.29,1.78,6.43,1.57,13.06,3,20,4.27,2.39.5,4.82.93,7.3,1.35,7.93,1.43,16.19,2.71,24.67,3.85,2.43.36,4.87.65,7.35,1,6.67.78,13.46,1.57,20.42,2.21,2.44.2,4.92.43,7.39.64,10.07.85,20.39,1.56,30.92,2.06,2.44.08,4.87.22,7.34.29,10.33.36,20.82.57,31.47.57h5.25c2.47,0,4.91-.07,7.34-.07,11.42-.21,22.61-.57,33.57-1.14,2.47-.15,4.9-.29,7.34-.5,8.76-.57,17.33-1.21,25.72-2.06,2.43-.22,4.86-.51,7.3-.72,12.59-1.35,24.66-3.06,36.2-4.91l7.35-1.29c14.09-2.49,27.23-5.41,39.35-8.61,2.48-.72,4.91-1.43,7.3-2.15a253,253,0,0,0,29.91-10.39c2.56-1.07,5-2.21,7.35-3.29a127.51,127.51,0,0,0,18.88-10.89,83.61,83.61,0,0,0,7.34-6c7.51-7.06,11.54-14.54,11.54-22.31v-36C2881.42,2343.53,2877.39,2351,2869.88,2358.06Z"/></g><path class="cls-18" d="M2405.05,2272.76c0,5.91,2.35,11.68,6.81,17.24a53.09,53.09,0,0,0,7.38,7.41,96.11,96.11,0,0,0,15.68,10.47c2.35,1.28,4.79,2.56,7.39,3.77a194.31,194.31,0,0,0,20.44,8.42c2.39.85,4.81,1.71,7.33,2.49,7.09,2.35,14.61,4.49,22.58,6.48,2.39.64,4.82,1.21,7.29,1.78,6.43,1.57,13.05,3,20,4.27,2.4.5,4.84.93,7.31,1.35,7.93,1.44,16.19,2.72,24.66,3.85,2.44.36,4.88.65,7.35,1,6.67.78,13.47,1.57,20.43,2.21l7.39.64c10.07.86,20.39,1.57,30.93,2.07,2.42.07,4.86.21,7.33.28,10.33.36,20.81.58,31.47.58H2662c2.47,0,4.9-.08,7.34-.08,11.41-.21,22.61-.57,33.57-1.14,2.47-.14,4.91-.28,7.33-.5,8.77-.56,17.33-1.21,25.73-2.06,2.43-.22,4.85-.5,7.3-.71,12.58-1.36,24.66-3.07,36.2-4.92,2.48-.42,4.95-.85,7.35-1.28,14.09-2.5,27.22-5.42,39.35-8.62,2.47-.71,4.91-1.43,7.3-2.14a252.9,252.9,0,0,0,29.91-10.4c2.56-1.07,5-2.21,7.34-3.28a127,127,0,0,0,18.88-10.9,80.34,80.34,0,0,0,7.35-6c7.51-7,11.54-14.54,11.54-22.3v-81.57H2405.05Z"/><path class="cls-24" d="M2656.79,2125.39c-139,0-251.74,29.47-251.74,65.83s112.71,65.83,251.74,65.83,251.74-29.48,251.74-65.83S2795.82,2125.39,2656.79,2125.39Z"/><path class="cls-17" d="M2656.79,2137.18c-114.12,0-206.63,20.27-206.63,45.28s92.51,45.28,206.63,45.28,206.63-20.28,206.63-45.28S2770.92,2137.18,2656.79,2137.18Z"/><path class="cls-25" d="M2656.79,2137.18c-114.12,0-206.63,20.27-206.63,45.28,0,3.84,2.2,7.57,6.3,11.13,22.65-19.63,103.74-34.15,200.33-34.15s177.68,14.52,200.33,34.15c4.1-3.56,6.3-7.29,6.3-11.13C2863.42,2157.45,2770.92,2137.18,2656.79,2137.18Z"/><path class="cls-21" d="M2411.86,2290a53.09,53.09,0,0,0,7.38,7.41v-69.67h-7.38Z"/><path class="cls-21" d="M2434.92,2307.88c2.35,1.28,4.79,2.56,7.39,3.77v-63.47h-7.39Z"/><path class="cls-21" d="M2462.75,2320.07c2.39.85,4.81,1.71,7.33,2.49v-61.85h-7.33Z"/><path class="cls-21" d="M2492.66,2329c2.39.64,4.82,1.21,7.29,1.78v-61.69h-7.29Z"/><path class="cls-21" d="M2519.92,2335.09c2.4.5,4.84.93,7.31,1.35v-59.26h-7.31Z"/><path class="cls-21" d="M2551.89,2340.29c2.44.36,4.88.65,7.35,1v-58.77h-7.35Z"/><path class="cls-21" d="M2579.67,2343.5l7.39.64v-61.62h-7.39Z"/><path class="cls-21" d="M2618,2346.21c2.42.07,4.86.21,7.33.28v-64H2618Z"/><path class="cls-21" d="M2662,2347.07c2.47,0,4.9-.08,7.34-.08v-69.81H2662Z"/><path class="cls-21" d="M2703,2345.85c2.47-.14,4.91-.28,7.33-.5v-76.22H2703Z"/><path class="cls-21" d="M2736,2343.29c2.43-.22,4.85-.5,7.3-.71v-73.45H2736Z"/><path class="cls-21" d="M2779.51,2337.66c2.48-.42,4.95-.85,7.35-1.28v-75.67h-7.35Z"/><path class="cls-21" d="M2826.21,2327.76c2.47-.71,4.91-1.43,7.3-2.14v-72.95h-7.3Z"/><path class="cls-21" d="M2863.42,2315.22c2.56-1.07,5-2.21,7.34-3.28v-78.86h-7.34Z"/><path class="cls-21" d="M2889.64,2301a80.34,80.34,0,0,0,7.35-6v-75.38h-7.35Z"/><g class="cls-22"><path class="cls-23" d="M2897,2259a82,82,0,0,1-7.35,6,127.87,127.87,0,0,1-18.88,10.9c-2.35,1.08-4.78,2.21-7.34,3.28a252.9,252.9,0,0,1-29.91,10.4c-2.39.71-4.83,1.43-7.3,2.14-12.13,3.21-25.26,6.12-39.35,8.62l-7.35,1.29c-11.54,1.84-23.62,3.56-36.2,4.91-2.45.21-4.87.5-7.3.71-8.4.85-17,1.5-25.73,2.07-2.42.21-4.86.35-7.33.5-11,.57-22.16.92-33.57,1.14-2.44,0-4.87.07-7.34.07h-5.25c-10.66,0-21.14-.22-31.47-.58-2.47-.06-4.91-.21-7.33-.28-10.54-.5-20.86-1.21-30.93-2.07l-7.39-.64c-7-.63-13.76-1.43-20.43-2.21-2.47-.35-4.91-.64-7.35-1-8.47-1.14-16.73-2.42-24.66-3.85-2.47-.42-4.91-.85-7.31-1.35-6.92-1.29-13.54-2.71-20-4.27-2.47-.58-4.9-1.15-7.29-1.78-8-2-15.49-4.14-22.58-6.49-2.52-.78-4.94-1.64-7.33-2.49a194.35,194.35,0,0,1-20.44-8.41c-2.6-1.21-5-2.49-7.39-3.78a96.11,96.11,0,0,1-15.68-10.47,52.56,52.56,0,0,1-7.38-7.41c-4.46-5.56-6.81-11.33-6.81-17.24v36.05c0,5.91,2.35,11.68,6.81,17.24a53.09,53.09,0,0,0,7.38,7.41,96.11,96.11,0,0,0,15.68,10.47c2.35,1.28,4.79,2.56,7.39,3.77a194.31,194.31,0,0,0,20.44,8.42c2.39.85,4.81,1.71,7.33,2.49,7.09,2.35,14.61,4.49,22.58,6.48,2.39.64,4.82,1.21,7.29,1.78,6.43,1.57,13.05,3,20,4.27,2.4.5,4.84.93,7.31,1.35,7.93,1.44,16.19,2.72,24.66,3.85,2.44.36,4.88.65,7.35,1,6.67.78,13.47,1.57,20.43,2.21l7.39.64c10.07.86,20.39,1.57,30.93,2.07,2.42.07,4.86.21,7.33.28,10.33.36,20.81.58,31.47.58H2662c2.47,0,4.9-.08,7.34-.08,11.41-.21,22.61-.57,33.57-1.14,2.47-.14,4.91-.28,7.33-.5,8.77-.56,17.33-1.21,25.73-2.06,2.43-.22,4.85-.5,7.3-.71,12.58-1.36,24.66-3.07,36.2-4.92,2.48-.42,4.95-.85,7.35-1.28,14.09-2.5,27.22-5.42,39.35-8.62,2.47-.71,4.91-1.43,7.3-2.14a252.9,252.9,0,0,0,29.91-10.4c2.56-1.07,5-2.21,7.34-3.28a127,127,0,0,0,18.88-10.9,80.34,80.34,0,0,0,7.35-6c7.51-7,11.54-14.54,11.54-22.3v-36.05C2908.53,2244.48,2904.5,2252,2897,2259Z"/></g><path class="cls-26" d="M2178.69,1959.85c-38.76,108,18,226.74,126.85,265.17l140.4-391.1C2337.11,1795.5,2217.5,1851.82,2178.69,1959.85Z"/><path class="cls-26" d="M2459.06,1839.07c-4.26-1.87-8.68-3.6-13.12-5.15L2305.54,2225a209.93,209.93,0,0,0,170.82-13.61,206.53,206.53,0,0,0,96.42-112.32C2610,1995.55,2559.25,1882.14,2459.06,1839.07Z"/><path class="cls-27" d="M2407.64,1820.36c-108.74-38.44-228.39,17.94-267.18,125.89s18,226.74,126.83,265.26,228.5-17.9,267.23-125.92S2516.52,1858.87,2407.64,1820.36Z"/><path class="cls-28" d="M2173.64,1958.07c-32.25,89.79,15,188.52,105.5,220.46l116.72-325.27C2305.41,1821.27,2205.85,1868.22,2173.64,1958.07Z"/><path class="cls-28" d="M2395.86,1853.26l-116.72,325.27c90.5,32,190-14.82,222.28-104.65S2486.37,1885.28,2395.86,1853.26Z"/><path class="cls-29" d="M2387,1877.91c-76.66-27.05-161.29,12.73-188.59,88.89s12.83,160.06,89.51,187.13,161.26-12.76,188.62-88.87S2463.7,1905.07,2387,1877.91Zm83.36,185c-26.16,72.65-106.93,110.79-180.18,84.83s-111.67-106.07-85.57-178.84,106.87-110.75,180.21-84.88S2496.49,1990.22,2470.39,2063Z"/><path class="cls-27" d="M2389.16,1909.44l-23.24-8.39-7.59,20.84c-27.09-8.75-52.72-5.28-65.48,29.28l-5.45,15.12c-4.85,13.29-14.51,50,29.2,65.76l19,6.77c12,4.28,12.74,10.47,9.64,19.13l-2.6,7.06c-3.82,10.54-12.9,10-23.31,6.2-22.67-8.12-46.07-18.4-55.57-22.55l-11.23,30.69c14.12,10.6,20.44,15,40.21,22.77l-7.33,20.15,23.21,8.36,7.24-19.8c24.32,8.66,52.4,8.16,67.41-33l3.67-10.17c7.12-19.44,10.24-51.54-26-64.59l-19.64-7c-12.86-4.58-15.77-10.36-11.92-20.84l2.18-6c4.86-13.28,12.19-12,26.32-6.74,12,4.35,37.8,14.85,52.08,21.36l11.27-30.88a175.85,175.85,0,0,0-39.62-22.45Z"/><g class="cls-30"><path class="cls-17" d="M2163.15,1901.19a206.28,206.28,0,0,0-22.55,44.69l266.68-125.62a208.67,208.67,0,0,0-49.16-10.9Z"/><path class="cls-17" d="M2472,1856.81l-343.72,161.92a207.78,207.78,0,0,0,32.29,107.87l375.22-176.79A208.32,208.32,0,0,0,2472,1856.81Z"/></g><path class="cls-10" d="M1277.72,1425.81l43.43-41.62a43.11,43.11,0,0,1-12.31-30.16,43.61,43.61,0,0,1,43.77-43.44V1250.7a103.35,103.35,0,0,0-74.89,175.11Z"/><path class="cls-16" d="M1352.61,1397.47a43.75,43.75,0,0,1-31.46-13.28l-43.43,41.62a92.84,92.84,0,0,0,15.18,12.86c47.09,32.74,112,21.37,145-25.37l-49.44-34.36A43.81,43.81,0,0,1,1352.61,1397.47Z"/><path class="cls-29" d="M1388,1328.52a43,43,0,0,1,.46,50.42l49.44,34.36c25.79-36.56,25.38-83.9-1.05-120Z"/><path class="cls-15" d="M1393.6,1258.92,1370,1314a43.85,43.85,0,0,1,18.27,14.48l48.85-35.22C1425.42,1277.28,1412,1266.66,1393.6,1258.92Z"/><path class="cls-6" d="M1357.94,1310.94a44.11,44.11,0,0,1,11.77,3.1l23.57-55.12a102.28,102.28,0,0,0-28-7.45Z"/><path class="cls-16" d="M1352.61,1310.59a46.77,46.77,0,0,1,5.33.35l7.36-59.47a91.31,91.31,0,0,0-12.69-.77Z"/><rect class="cls-3" x="1231.47" y="585.54" width="378.73" height="94.79" rx="15.61"/><rect class="cls-3" x="1252.88" y="732.63" width="345.79" height="29.42" rx="4.84"/><rect class="cls-3" x="1251.23" y="786.56" width="345.79" height="29.42" rx="4.84"/><rect class="cls-3" x="1251.64" y="843.76" width="345.79" height="29.42" rx="4.84"/><rect class="cls-3" x="1249.58" y="1012.91" width="345.79" height="29.42" rx="4.84"/><rect class="cls-3" x="1247.94" y="1071.75" width="345.79" height="29.42" rx="4.84"/><rect class="cls-3" x="1247.94" y="1135.49" width="345.79" height="29.42" rx="4.84"/><rect class="cls-3" x="1488.35" y="1420.13" width="126.24" height="25.06" rx="4.13"/><rect class="cls-3" x="1486.15" y="1376.55" width="126.24" height="25.06" rx="4.13"/><rect class="cls-3" x="1487.25" y="1328.61" width="126.24" height="25.06" rx="4.13"/><path class="cls-31" d="M2445,991c-2.21,2.72-1.71,7.06.78,9.88,17,19.3,61.16,49,61.16,49l21.83-15.21C2486.06,1002.74,2453.34,980.78,2445,991Z"/><path class="cls-31" d="M2528.5,1036.48c-15.86,6.7-28.28-12.81-28.28-12.81l2.4-1-16.86-3.68a3,3,0,0,0-3.6,2.09l-2.73,8.7a4.63,4.63,0,0,0,.43,3.64l8.82,15.47a30.94,30.94,0,0,1,4.15,17.48l-1,17a15.41,15.41,0,0,0,4.88,12c23.6,22.23,45.19,29.77,65.09,28.9l24.83-42.23-45-39.45Z"/><path class="cls-31" d="M2556.46,1020.58l-18.7-6.46a22.82,22.82,0,0,0-16.54.51l-18.6,8-2.4,1s12.42,19.51,28.28,12.81l13.14,6.13,45,39.45,3.38-5.69c-3.36-18.75-10.74-35.53-23.94-49.53A24,24,0,0,0,2556.46,1020.58Z"/><path class="cls-31" d="M2606.48,1068.46,2576.26,1054l-37,55.16s29.56,26,55.53,48.3c20.18,17.37,38.18,32.49,38.28,31.37.19-2.54,14.49-33.27,14.49-33.27L2615.88,1073Z"/><path class="cls-32" d="M2606.48,1068.46l-11.7,89c20.18,17.37,38.18,32.49,38.28,31.37.19-2.54,14.49-33.27,14.49-33.27L2615.88,1073Z"/><path class="cls-33" d="M2499.27,1021.91l-1.82,1,1,1.78c.12.22,12.86,21.61,31.8,13.81,2.79,1.38,11.58,5.7,13.44,6.47l1.53-3.68c-1.63-.67-9.88-4.72-14-6.76l-.86-.43-.87.4c-13.34,6.08-23.17-5.47-26.41-10.06,25.91-13.38,34.44-9.5,40.11-6.89a22.51,22.51,0,0,0,3.44,1.36l1-3.85a17.66,17.66,0,0,1-2.8-1.12C2538.76,1011.09,2528.51,1006.39,2499.27,1021.91Z"/><path class="cls-33" d="M2534.29,1041.22c1.76,5.18,1.78,9.08.07,11a4,4,0,0,1-3.71,1.15c-3.48-.77-27-5.44-27-5.44l-.79,3.9s23.4,4.66,26.87,5.42a8.24,8.24,0,0,0,5.34-.69,7.41,7.41,0,0,0,2.22-1.68c1.92-2.13,3.62-6.44.75-14.91Z"/><path class="cls-33" d="M2478.07,1028.3l2.72,2.92c2.15-2,16-6.63,18.37-5.86l2.12-3.38C2497.37,1019.56,2480.76,1025.84,2478.07,1028.3Z"/><path class="cls-33" d="M2531.11,1053.68l-.89,3.88c4.08.92,10.88,5.55,13.22,9.91a4.47,4.47,0,0,1,.56,3.72c-1.13,2.89-9.24,3.28-14.4,2.63l-20-2.25-.45,4,20,2.25c1.24.16,9.82,1.13,15-1.5a7,7,0,0,0,3.58-3.64,8.31,8.31,0,0,0-.76-7C2544.07,1060.18,2536.2,1054.84,2531.11,1053.68Z"/><path class="cls-33" d="M2527.8,1073.49l-.89,3.88c3.14.71,9.34,4.63,11.46,8.59a3.65,3.65,0,0,1,.48,3.07c-.94,2.42-7.94,2.72-12.4,2.16l-17.63-2-.45,4,17.6,2c1.77.22,8.87.94,13.33-1.3a6.44,6.44,0,0,0,3.29-3.37,7.5,7.5,0,0,0-.68-6.38C2539.33,1079.27,2532.33,1074.52,2527.8,1073.49Z"/><path class="cls-34" d="M3085.76,554.6c-3-2.09-25.08-22-25.08-22-3.45,58,42,85,42,85l15.57-28S3088.71,556.69,3085.76,554.6Z"/><path class="cls-35" d="M3178.24,840.19s14.23,6.68,56.34,9.9c35.42,2.7,56.34-9.9,56.34-9.9V699.46l-112.68,15Z"/><polygon class="cls-33" points="3178.23 840.82 3258.14 771.62 3178.23 804.73 3178.23 840.82"/><path class="cls-35" d="M3098.5,754.39a22.27,22.27,0,0,0,9.51,18.23l45.06,31.44a22.42,22.42,0,0,0,21.58,2.34l83.81-34.69a22.39,22.39,0,0,0,13.84-20.64V589.77H3098.5Z"/><g class="cls-36"><path class="cls-37" d="M3098.5,672.7v64.83a32.42,32.42,0,1,0,0-64.83Z"/></g><path class="cls-38" d="M3165,702.63h-22.39l7-67.62a2.51,2.51,0,0,0-5-.51l-7.31,70.36a2.5,2.5,0,0,0,2.5,2.74H3165a2.49,2.49,0,1,0,0-5Z"/><g class="cls-36"><path class="cls-37" d="M3226.4,670.53A32.43,32.43,0,1,0,3259.07,703,32.55,32.55,0,0,0,3226.4,670.53Z"/></g><path class="cls-39" d="M3192.1,645.15c-3.84.09-6.83,5.46-6.68,12s3.39,11.78,7.23,11.69,6.82-5.46,6.67-12S3195.93,645.06,3192.1,645.15Z"/><path class="cls-39" d="M3121.53,645.15c-3.84.09-6.83,5.46-6.68,12s3.39,11.78,7.23,11.69,6.83-5.46,6.67-12S3125.37,645.06,3121.53,645.15Z"/><path class="cls-38" d="M3180.33,739.07c-.63.56-15.52,13.57-34.63.85a2.53,2.53,0,0,0-3.48.68,2.48,2.48,0,0,0,.69,3.45c7.11,4.74,13.78,6.36,19.6,6.36a34.41,34.41,0,0,0,21.2-7.66,2.47,2.47,0,0,0,.16-3.51A2.52,2.52,0,0,0,3180.33,739.07Z"/><path class="cls-40" d="M3097,622c4.37,7.54,32.5-1.36,29.93-9C3122.64,600.28,3090.07,610.07,3097,622Z"/><path class="cls-41" d="M3305.61,541c-32.34-68.78-114.79-38.14-141.58-28.94s-109.09,18.2-109.09,18.2c6.57,92.07,121.3,67.16,121.3,67.16-5,9.2-36.9,9.74-36.9,9.74,63.18,18.42,122.32-8.12,122.32-8.12-8.59,57.41,18,86.08,18,86.08,45.25-2,70.92-35.82,70.92-58s-12.79-30.28-25.93-44.91S3305.61,541,3305.61,541Z"/><path class="cls-34" d="M3312.3,565.92c-.24-3.66,9.1-20.65,9.1-20.65l-6.64-6.53C3311.57,540,3312.3,565.92,3312.3,565.92Z"/><polygon class="cls-34" points="3314.22 570.13 3329.71 564.38 3325.78 558.11 3314.22 570.13"/><path class="cls-42" d="M3260.75,607.12l-.44,3.36a60.53,60.53,0,0,0,9,.67c30.53,0,55.35-28.46,55.57-28.72l-2.14-2.36C3322.48,580.34,3294.53,612.17,3260.75,607.12Z"/><path class="cls-42" d="M3260.66,635.22l.48,3.31c1.81.12,3.85.37,5.58.37,45.54,0,68.74-44.79,68.94-45.19l-2.39-2.45C3333.07,591.67,3307.86,638.24,3260.66,635.22Z"/><path class="cls-42" d="M3260.94,637.74l.56,3.51a60.29,60.29,0,0,0,25,5.1c28.8,0,62.67-29.36,63-29.62l-1.06-3.89C3348,613.15,3299.18,655.78,3260.94,637.74Z"/><path class="cls-42" d="M3223.81,571.7c-43.11,20.36-81,26.74-87.42,26.74l6.86,1.8c6.63,0,38.28-4.85,81.86-25.44C3268.35,554.37,3311,559,3311.27,559l-1.19-3.31C3308.93,555.52,3268,550.82,3223.81,571.7Z"/><path class="cls-42" d="M3174.43,558.74c-57.91,20.87-103.41,14.2-103.81,14.13l4.73,3.8a116.69,116.69,0,0,0,16.63,1c17.31,0,47-2.5,83.48-15.66,58-20.91,130.36-18.52,130.88-18.48l-1-2.84C3304.85,540.6,3233.09,537.61,3174.43,558.74Z"/><path class="cls-42" d="M3064.33,546.9l-1.08,3.2a14.34,14.34,0,0,0,4.8.62c23.93,0,160.88-52.14,164.65-53.37l-8.9.16C3196.22,506.48,3075.22,551,3064.33,546.9Z"/><ellipse class="cls-35" cx="3302.23" cy="698.95" rx="41.34" ry="41.03"/><path class="cls-38" d="M3312.23,674.81c-10.73,1.46-30.3,9.68-27.53,30.37.94,7,3.18,12.79,6.66,17.21a2.53,2.53,0,0,0,2,1,2.49,2.49,0,0,0,2-4c-2.92-3.71-4.82-8.69-5.64-14.8-2.8-20.93,22.18-24.63,23.24-24.78a2.49,2.49,0,1,0-.68-4.93Z"/><path class="cls-38" d="M3311.36,697.17c-5.35-3.47-17.74-6.61-26.27,6.32a2.49,2.49,0,0,0,2.09,3.85,2.51,2.51,0,0,0,2.1-1.13c7.77-11.75,18.18-5.61,19.35-4.87a2.51,2.51,0,0,0,3.46-.73A2.47,2.47,0,0,0,3311.36,697.17Z"/><path class="cls-40" d="M3191.5,617.76c.17,9.44,31.63,15.61,33.23,7C3227.39,610.43,3191.22,602.81,3191.5,617.76Z"/><path class="cls-4" d="M1002,1406c-58.65,26.81-78.87,269.3-17.29,425s134.46,261,193.67,275.14c0,0,188.37-126,153.64-371.61S1060.67,1379.16,1002,1406Z"/><polygon class="cls-5" points="1050.3 1570.16 1052.34 1572.69 1107.81 1436.74 1105.35 1435.75 1050.3 1570.16"/><path class="cls-5" d="M1064.68,1596.89l.17,2.63a12.33,12.33,0,0,0,1.82-.27c28.66-6.4,107.78-116.14,111.2-120.91l-2.16-1.54C1174.86,1478,1090.36,1595.24,1064.68,1596.89Z"/><path class="cls-5" d="M948.52,1592.51c14.78,7.87,144.65,76.93,153.27,77.53l.19-2.63c-6.09-.42-94.36-46.42-152.2-77.23Z"/><polygon class="cls-5" points="1121.22 1710.67 1123.75 1711.49 1195.71 1492.48 1193.18 1491.66 1121.22 1710.67"/><path class="cls-5" d="M1159.29,1805l2.76,2.92c12.46-19.57,54.7-282.87,56.39-293.87l-2.63-.39C1215.4,1516.33,1171.46,1785.88,1159.29,1805Z"/><path class="cls-5" d="M1176.87,1731.11l.59,2.58c41-9.17,114.72-109.62,117.83-113.89l-2.15-1.55C1292.38,1619.29,1216.92,1722.16,1176.87,1731.11Z"/><path class="cls-5" d="M1168.3,1835.33l.81,2.52c53.49-17,137-171.22,140.52-177.78l-2.35-1.24C1306.43,1660.42,1220.76,1818.68,1168.3,1835.33Z"/><path class="cls-5" d="M1184.2,1893.84l-.72.15.47,2.6.78-.16c38.06-8.51,137.1-150,141.32-156.07l-2.18-1.5C1322.84,1740.34,1221.21,1885.57,1184.2,1893.84Z"/><path class="cls-5" d="M1210.7,1879.54l-2.36,2.51c4.8,1,17.23,1.36,23.63-.07,35.26-7.88,88.54-46.56,91.18-48.49l-1.57-2.12C1320.82,1831.92,1250.69,1883.41,1210.7,1879.54Z"/><polygon class="cls-5" points="1195.3 2001.58 1196.28 2005.25 1307.88 1914.86 1306.21 1912.81 1195.3 2001.58"/><path class="cls-5" d="M952.37,1666.52l-.45,2.6c19.32,3.23,115.13-13.17,119.05-13.85l-1.41-2.35C1068.61,1653.08,971.24,1669.67,952.37,1666.52Z"/><polygon class="cls-5" points="956.07 1696.48 1136.7 1790.46 1137.38 1786.98 957.31 1694.15 956.07 1696.48"/><path class="cls-5" d="M973.7,1779.93l-.09,2.63c3.23.11,59.48,1.91,93.71-5.74,12.65-2.83,22.29-6.94,25.13-12.91l-2.4-1.13C1080.23,1783.34,974.77,1780,973.7,1779.93Z"/><path class="cls-5" d="M987.78,1819.43l-2.09,1.63c26,32.79,169,55.45,174.72,56.3l-.7-4C1158.32,1873.15,1013.17,1851.4,987.78,1819.43Z"/><path class="cls-5" d="M1026.26,1910.69l-2.19,1.5c12.6,18.2,142.09,89.18,147.38,92.09l.76-2.81C1170.92,2000.76,1038.51,1928.39,1026.26,1910.69Z"/><path class="cls-5" d="M1012.32,1878.68l-.41,2.6c27.75,4.32,64.7-2.15,86.62-7,11.14-2.49,18.4-4.58,18.61-4.64l-.75-2.53C1115.77,1867.24,1053.57,1885.09,1012.32,1878.68Z"/><path class="cls-5" d="M1004.13,1498.56s128.78,202.64,161.6,421.71-18.55,391-18.55,391l42.36,8.75s36.76-173.86-.21-400C1152.29,1693.52,1004.13,1498.56,1004.13,1498.56Z"/><path class="cls-6" d="M1506.43,1602.77c-45.13-31.76-261.83,23.58-330.14,225s70.27,337,70.27,337c52.1-2.64,130.21-79.86,206.83-201.34S1551.56,1634.54,1506.43,1602.77Z"/><polygon class="cls-4" points="1412.44 1612.11 1437.54 1735.28 1439.66 1733.47 1414.68 1611.66 1412.44 1612.11"/><path class="cls-4" d="M1348.9,1635.21l-2.06,1c2.12,4.55,51.29,109.36,74.4,119.24a9.75,9.75,0,0,0,1.49.51l.57-2.19C1401.93,1748.31,1349.43,1636.34,1348.9,1635.21Z"/><path class="cls-4" d="M1380.67,1807.26l-.26,2.25c7.35.84,127.69-37,141.39-41.28l-.69-2.15C1467.5,1783,1385.86,1807.86,1380.67,1807.26Z"/><polygon class="cls-4" points="1329.57 1645.28 1355.33 1840.97 1357.59 1840.68 1331.83 1644.98 1329.57 1645.28"/><path class="cls-4" d="M1309.28,1659.94l-2.28-.08c-.33,9.53-6.64,237.86.75,256.29l2.78-2C1303.32,1896.13,1309.2,1662.27,1309.28,1659.94Z"/><path class="cls-4" d="M1227.52,1735.92l-2.06,1c2,4.09,48,100.21,81.11,114.36l.91-2.07C1275.18,1835.35,1228,1736.91,1227.52,1735.92Z"/><path class="cls-4" d="M1209.16,1767.87l-2.17.68c1.92,6.07,47.71,149,90,171.71l1.08-2C1256.59,1916,1209.63,1769.35,1209.16,1767.87Z"/><path class="cls-4" d="M1182.47,1832.66l-2.08.92c2.59,5.77,63.48,140.43,94.18,153.56l.63.26.81-2.12-.58-.23C1245.58,1972.28,1183.1,1834.07,1182.47,1832.66Z"/><path class="cls-4" d="M1169.68,1910.92l-1.66,1.54c1.92,2,40.63,43,69.07,55.11,5.16,2.21,15.68,3.86,19.89,3.77l-1.6-2.49C1221.1,1965.84,1170.23,1911.5,1169.68,1910.92Z"/><polygon class="cls-4" points="1167.94 1983.37 1247.54 2076.96 1248.94 2074.03 1169.67 1981.9 1167.94 1983.37"/><path class="cls-4" d="M1408.71,1801.9c3.2,1.18,81.26,30,98,30.31l0-2.26c-16.39-.3-95.74-29.53-96.52-29.81Z"/><polygon class="cls-4" points="1331.84 1902.4 1331.86 1905.44 1498.91 1854.6 1498.23 1852.44 1331.84 1902.4"/><path class="cls-4" d="M1375.55,1889.43l-2.21.58c1.45,5.47,8.91,10.45,19.12,14.81,27.6,11.81,75.26,19.11,78,19.52l.34-2.24C1469.89,1922,1380.55,1908.29,1375.55,1889.43Z"/><path class="cls-4" d="M1299.31,1971.63l-1.23,3.27c4.94.17,128.93,3.49,156.08-20l-1.5-1.71C1426.19,1976.11,1300.51,1971.68,1299.31,1971.63Z"/><path class="cls-4" d="M1268.4,2077.55l.2,2.48c4.91-1.61,125.24-41.09,138.74-54.45l-1.61-1.6C1392.61,2037,1269.6,2077.16,1268.4,2077.55Z"/><path class="cls-4" d="M1335.75,1975.13c.17.09,6,3,14.93,6.82,17.68,7.56,47.77,18.8,71.82,19.52l.07-2.26c-35.76-1.07-85.29-25.84-85.79-26.09Z"/><path class="cls-4" d="M1489.92,1680.41s-155.77,140.95-223,325.88c-67.1,184.64,2.49,341.41,2.49,341.41l35.06-6.37s-80.18-151.81-17.71-331.13S1489.92,1680.41,1489.92,1680.41Z"/><path class="cls-7" d="M1367.33,1993.84c-112.57,122.59-56.48,262.72-56.48,262.72,38.07,14.36,118.33-16.46,211.54-79.36s174.26-204.35,152.07-241.13S1479.9,1871.26,1367.33,1993.84Z"/><polygon class="cls-8" points="1583.28 2009.27 1585.36 2008.64 1606.08 1913.81 1604.34 1913.43 1583.28 2009.27"/><path class="cls-8" d="M1551.62,1910.12l-1.77,0c.07,3.91,2,94.14,15.41,108.41a9.71,9.71,0,0,0,.9.83l1.1-1.39C1553.71,2007.48,1551.64,1911.09,1551.62,1910.12Z"/><path class="cls-8" d="M1519,2044.49c5,2.9,103,13.42,114.1,14.61l.19-1.75c-43.65-4.66-109.87-12.33-113.39-14.38Z"/><polygon class="cls-8" points="1491.07 2059.16 1492.78 2059.65 1536.33 1911.78 1534.62 1911.29 1491.07 2059.16"/><path class="cls-8" d="M1433.27,2098l2.63-.58c.54-15.1,78.78-180.38,79.58-182l-1.6-.77C1510.62,1921.37,1433.82,2082.56,1433.27,2098Z"/><path class="cls-8" d="M1431.23,1944.27c.09,3.53,2.59,86.59,21.75,107l1.3-1.2c-18.71-20-21.25-105-21.28-105.86Z"/><path class="cls-8" d="M1409.77,1961.33l-1.77-.2c-.55,4.95-13.09,121.38,10,150.79l1.4-1.08C1396.75,2082,1409.63,1962.53,1409.77,1961.33Z"/><path class="cls-8" d="M1370.18,1999.3h-1.78c0,4.93.9,120.15,18.68,139.1l.37.38,1.25-1.25-.34-.35C1371.07,2118.75,1370.19,2000.5,1370.18,1999.3Z"/><path class="cls-8" d="M1336.27,2051.23l-1.68.58c.72,2.06,15.43,43.37,31.9,60.93,3,3.19,10,7.65,13,8.89l-.35-2.27C1355.62,2106.52,1336.47,2051.82,1336.27,2051.23Z"/><polygon class="cls-8" points="1312.08 2102.46 1339.33 2194.17 1341.26 2192.51 1313.78 2101.95 1312.08 2102.46"/><path class="cls-8" d="M1541.58,2047.89c1.92,1.84,48.57,46.78,60.46,52.24l.75-1.61c-11.62-5.33-59.07-51-59.53-51.41Z"/><polygon class="cls-8" points="1453.89 2097.9 1589.35 2113.68 1589.55 2111.92 1454.84 2095.72 1453.89 2097.9"/><path class="cls-8" d="M1490.17,2100.09l-1.75-.28c-.7,4.37,3,10.25,9,16.55,16,17,47.73,37.13,49.55,38.27l1-1.49C1547.29,2152.76,1487.78,2115.13,1490.17,2100.09Z"/><path class="cls-8" d="M1409.67,2135.05l-1.91,1.95c3.47,1.66,91,42.71,117.87,34.36l-.54-1.68C1498.91,2177.82,1410.51,2135.45,1409.67,2135.05Z"/><path class="cls-8" d="M1354.05,2201.1l-.65,1.83c4,.38,102.51,9.69,116.39,4.37l-.65-1.65C1455.65,2210.83,1355,2201.19,1354.05,2201.1Z"/><path class="cls-8" d="M1436,2147.8l-1.38,1.12c.09.11,3.31,4,8.51,9.52,10.24,10.92,28.18,28.34,45.14,36.35l.77-1.59C1463.8,2181.28,1436.25,2148.13,1436,2147.8Z"/><path class="cls-8" d="M1375.57,2149.72c-106.41,111-106.32,244.74-106.32,244.74l27.07,6.38s-9.23-133.49,92.19-242.14,249.57-172.3,249.57-172.3S1482.15,2038.54,1375.57,2149.72Z"/><path class="cls-6" d="M797,1921.74c-21.27,35.24,56.4,170.8,145.73,231.08s166.25,89.82,202.74,76.06c0,0,53.75-134.29-54.13-251.78S818.26,1886.5,797,1921.74Z"/><polygon class="cls-4" points="862.53 1900.4 882.38 1991.29 884.38 1991.89 864.19 1900.04 862.53 1900.4"/><path class="cls-4" d="M899.73,2000.27l1,1.33a8,8,0,0,0,.87-.8c12.82-13.68,14.69-100.14,14.77-103.9l-1.71,0C914.7,1897.8,912.72,1990.17,899.73,2000.27Z"/><path class="cls-4" d="M836.49,2038l.19,1.69c10.69-1.15,104.57-11.23,109.35-14l-.86-1.46C941.79,2026.15,878.33,2033.5,836.49,2038Z"/><polygon class="cls-4" points="929.37 1898.46 971.11 2040.17 972.75 2039.7 931.01 1897.98 929.37 1898.46"/><path class="cls-4" d="M949.36,1902c.76,1.57,75.74,160,76.26,174.44l2.53.56c-.54-14.83-74.14-169.31-77.26-175.73Z"/><path class="cls-4" d="M1008,2031l1.24,1.15c18.37-19.58,20.76-99.18,20.85-102.56l-1.7,0C1028.37,1930.37,1025.93,2011.89,1008,2031Z"/><path class="cls-4" d="M1050.67,1945.94c.12,1.16,12.47,115.64-9.22,143.29l1.34,1c22.12-28.19,10.09-139.78,9.57-144.51Z"/><path class="cls-4" d="M1071.18,2114.48c-.11.11-.21.23-.32.33l1.19,1.21.36-.37c17-18.16,17.87-128.58,17.9-133.3h-1.7C1088.6,1983.49,1087.75,2096.81,1071.18,2114.48Z"/><path class="cls-4" d="M1080,2097.4l-.34,2.17c2.91-1.19,9.61-5.46,12.48-8.52,15.78-16.83,29.88-56.41,30.57-58.39l-1.6-.56C1120.91,2032.67,1102.56,2085.09,1080,2097.4Z"/><polygon class="cls-4" points="1116.32 2167.5 1118.17 2169.09 1144.29 2081.2 1142.65 2080.71 1116.32 2167.5"/><path class="cls-4" d="M865.68,2077.43l.71,1.53c11.4-5.23,56.11-48.3,58-50.06l-1.61-.74C922.29,2028.59,876.82,2072.32,865.68,2077.43Z"/><polygon class="cls-4" points="878.37 2090.27 878.56 2091.95 1008.38 2076.83 1007.47 2074.74 878.37 2090.27"/><path class="cls-4" d="M973.61,2078.93c2.3,14.41-54.74,50.48-55.31,50.84l.91,1.43c1.75-1.1,32.16-20.34,47.49-36.68,5.66-6,9.26-11.68,8.59-15.86Z"/><path class="cls-4" d="M940.14,2145.62l-.51,1.61c25.73,8,109.63-31.34,113-32.93l-1.83-1.87C1050,2112.82,965.23,2153.42,940.14,2145.62Z"/><path class="cls-4" d="M993.76,2180.09l-.61,1.58c13.3,5.11,107.68-3.82,111.53-4.19l-.62-1.75C1103.12,2175.82,1006.69,2185.06,993.76,2180.09Z"/><path class="cls-4" d="M974.72,2168.16l.73,1.52c16.25-7.68,33.45-24.36,43.26-34.83,5-5.31,8.07-9,8.16-9.13l-1.32-1.07C1025.28,2125,998.88,2156.74,974.72,2168.16Z"/><path class="cls-4" d="M831.86,1970s142,61,239.18,165.12,88.35,232.06,88.35,232.06l25.94-6.11s.09-128.17-101.89-234.55C981.3,2019.94,831.86,1970,831.86,1970Z"/><path class="cls-43" d="M1053.24,2243.91q-.21,13.76.3,27.6.12,3.36.29,6.72a655.78,655.78,0,0,0,9.92,84.21c.33,1.88.68,3.76,1,5.64,12.75,67.9,34.7,136.27,59.22,203.11.63,1.73,1.27,3.47,1.91,5.2q1.78,4.83,3.58,9.64h237.59q8.18-21.9,16-44l2.4-6.88c9.38-27,18.15-54.17,25.89-81.42.67-2.33,1.32-4.67,2-7a921.25,921.25,0,0,0,20.86-92q.46-2.76.92-5.54c5.72-35.34,8.77-70.51,8.22-105.22Z"/><g class="cls-44"><path class="cls-7" d="M1326,2250c-18.24,9.49-35.47,18.45-53.71,8.18a33.71,33.71,0,0,1-13.86-14.28h-6.17a39,39,0,0,0,17.28,19.09c20.89,11.76,40.29,1.67,59-8.09,8.46-4.4,16.71-8.69,24.94-11h-15.39C1334.08,2245.82,1330,2247.92,1326,2250Z"/><path class="cls-7" d="M1408.37,2296.37c-1.12-19.85-2.27-40.35-20.08-52.46H1376a36.06,36.06,0,0,1,6.28,2.82c18.25,10.27,19.33,29.55,20.48,49.95,1.19,21,2.41,42.7,23.3,54.47a42.35,42.35,0,0,0,8.08,3.52q.46-2.76.92-5.54a36.78,36.78,0,0,1-6.25-2.8C1410.61,2336.06,1409.52,2316.78,1408.37,2296.37Z"/><path class="cls-7" d="M1369.75,2449.75c-18.25-10.28-19.34-29.55-20.49-50-1.18-21-2.41-42.7-23.3-54.46s-40.29-1.67-59,8.09c-18.24,9.49-35.46,18.46-53.71,8.18s-19.33-29.54-20.48-49.95c-1.18-21-2.41-42.7-23.3-54.46s-40.29-1.67-59.05,8.09c-18.24,9.49-35.47,18.45-53.71,8.18q-1.65-.93-3.12-1.95.12,3.36.29,6.72l.08.05c20.89,11.76,40.29,1.66,59-8.1,18.24-9.48,35.47-18.45,53.71-8.17s19.33,29.54,20.48,49.95c1.19,21,2.41,42.69,23.3,54.46s40.29,1.67,59-8.09c18.24-9.49,35.47-18.46,53.71-8.19s19.33,29.55,20.48,50c1.19,21,2.41,42.7,23.3,54.46,15.49,8.72,30.16,5.43,44.36-.84.67-2.33,1.32-4.67,2-7C1398.74,2453.74,1384.58,2458.1,1369.75,2449.75Z"/><path class="cls-7" d="M1364.34,2545c-18.23,9.49-35.46,18.45-53.7,8.18s-19.34-29.55-20.49-49.95c-1.18-21-2.41-42.7-23.3-54.46s-40.29-1.67-59,8.09c-18.24,9.49-35.46,18.45-53.71,8.18s-19.33-29.55-20.48-50c-1.18-21-2.41-42.69-23.3-54.45-16.29-9.18-31.68-5.06-46.56,1.83.33,1.88.68,3.76,1,5.64,14.3-6.8,28.22-10.86,42.78-2.66,18.24,10.27,19.33,29.55,20.48,50,1.18,21,2.41,42.69,23.3,54.45s40.29,1.67,59.05-8.09c18.24-9.49,35.46-18.45,53.71-8.18s19.33,29.55,20.48,50c1.19,21,2.41,42.69,23.3,54.46s40.29,1.67,59-8.1c5.45-2.83,8.74,1,14.06-1.21.81-2.29.1-1.55.9-3.85C1374.73,2547.4,1371.28,2541.37,1364.34,2545Z"/></g><path class="cls-45" d="M1119.36,2586h257.85c8.7-13.42,14.93-27.41,17.53-40.82H1101.83C1104.43,2558.62,1110.66,2572.61,1119.36,2586Z"/><g id="_3" data-name="3"><path class="cls-46" d="M3474.37,2408.45c6.2-10.6-109-2.28-110.62-4.79a4.44,4.44,0,0,0-4.43,4.76l13.56,169.66c4.9,39.82-19.58,50.77-19.69,82.06l3.51-1.82c0,2.43,3,10.88,5.48,10.88l103.52,2.12c2.45,0,4-4.58,4-7l8.83-2.51c0-15.39-1.27-21-8.12-32.87C3445.18,2595.92,3475.25,2447.15,3474.37,2408.45Z"/><path class="cls-46" d="M3121.32,2403.67h-91a16.31,16.31,0,0,0-16.26,18.29l16.55,131c6.34,60.62-56.82,65.69-98.38,74-16.32,4.08-33.37,10.37-41.32,22.47a16.28,16.28,0,0,0,13.54,25.47h206.2c18-.72,17.86-19,14.55-33.07-11.36-50.93,8.71-167.88,12.43-220.26A16.31,16.31,0,0,0,3121.32,2403.67Z"/><path class="cls-10" d="M3022.93,2590.18c-96.33-5.6-174.39,68.52-121,84.74h213.89c11.71.25,16.72-11.2,17.28-21.23,3.7-34.7-11.2-61.32-11.2-61.32C3079.16,2598.24,3030.54,2592,3022.93,2590.18Z"/><path class="cls-10" d="M3416.36,2590.18c-58.9.58-89.85,79.77-45.69,84.74h91.41C3506.2,2670,3475.59,2589.6,3416.36,2590.18Z"/><path class="cls-16" d="M2928.34,2608.45c-5.46-2.23-8.84,6.33-3.33,8.39.15.06,15.34,6.2,23.65,26.54a4.54,4.54,0,0,0,8.42-3.39C2947.33,2616.1,2929.11,2608.75,2928.34,2608.45Z"/><path class="cls-16" d="M2960.11,2596.59c-5.2-2.78-9.45,5.39-4.19,8,.21.11,20.66,10.88,27.93,34.19a4.54,4.54,0,0,0,8.68-2.66C2984.15,2609.24,2961.09,2597.09,2960.11,2596.59Z"/><path class="cls-16" d="M3000.82,2589c-4.87-3.31-10,4.37-5,7.52.2.13,19.8,13.31,28.29,37.52a4.54,4.54,0,0,0,8.58-3A89.16,89.16,0,0,0,3000.82,2589Z"/><path class="cls-16" d="M3451.45,2608.75c-31.46-17.08-76.88-3.38-72.81,5.75,4.89,8.74,35.68-16.81,70.51,2.65C3453.61,2617.32,3455.44,2610.89,3451.45,2608.75Z"/><path class="cls-16" d="M2901.88,2674.92H3126.3a55.57,55.57,0,0,0,6.75-21.23H2886.92C2883,2663.94,2890.83,2674.94,2901.88,2674.92Z"/><path class="cls-16" d="M3350.39,2653.69a20.18,20.18,0,0,0,20.28,21.23h91.41a20.18,20.18,0,0,0,20.28-21.23Z"/><path class="cls-29" d="M2607.87,1070.57l-13.09,86.92c85.76,87.08,322.74,145.63,447.36-7.14,40.72-47.54,106.18-276.3,135.05-328.47l1.26-.62C2938.23,873.11,2920.8,1139.37,2607.87,1070.57Z"/><path class="cls-28" d="M2734.43,1228.6c87.47,35.92,231.56,17.46,307.7-78.26l-10.45-106.69C2981.39,1141.36,2951.8,1278.62,2734.43,1228.6Z"/><path class="cls-15" d="M3020.42,1246.4c-84.78,504-48.38,1113-30.85,1300.4,39,27.89,128.64,22.11,163.32,10.59,10.1-178,63.21-908.2,64.18-926.3,25.28,310.49,73.91,758,100.06,920.69,50.23,25.26,171.66,7.36,171.66,7.36,8.61-191.84-4.62-1181.64-54.57-1341.51C3252.77,1272.05,3020.42,1246.4,3020.42,1246.4Z"/><path class="cls-29" d="M3291.8,812.91c-55.81,278.28,214,301.06,68.31,613.78,35.76,47.2,101.38,39.72,101.38,39.72,9.38-10.09,8-11.38,16.29-21.39C3716.35,1182.55,3479.86,835,3291.8,812.91Z"/><path class="cls-28" d="M3360.11,1426.69c35.76,47.2,94.92,42.93,94.92,42.93,9.37-10.08,18.21-20,26.51-30-65.61-13.4-106.33-49.41-106.33-49.41C3370.74,1402.74,3364.38,1411.63,3360.11,1426.69Z"/><path class="cls-47" d="M3451.63,1459.45c-72.38,3.12-91.61-44.22-92.41-46.29-31.73-19.27,6.78,64.14,85.3,59.42C3458.17,1473.2,3463,1461.69,3451.63,1459.45Z"/><path class="cls-11" d="M3114.4,1553.28c32.53,8.54,51.33,4.32,56.1-18.06,2.4-11.25,8.58-30.81,19.95-38.06,0,0,25.41,10.89,35,26.35,21,33.87,52.69,3.09,68.11-32.36,19.07-43.86,67.39-81,78-117.81l-384.88,89.71S3000.83,1523.48,3114.4,1553.28Z"/><path class="cls-29" d="M3284.5,821.88c-98.19,62.33-106.64,1.78-106.05-.62-28.65,23.92-61.95,59.29-91.94,105.36-68.46,88.62-153.1,454.56-99.88,536.42,30.48,36.86,92.73,30.59,204.63,19.6,109.94-3,146.43-168.2,248.49-92.58,3.78,3.76,6,4.79,9.69-1.7,47.46-83.23-129.65-447.35-134.64-521.44C3316.76,850.79,3289.44,824,3284.5,821.88Z"/><path class="cls-28" d="M3368,1407l22.38,4.62c54.77-172.07,35.27-253.3-93.76-401.5C3352.27,1122.72,3457.45,1207.19,3368,1407Z"/><path class="cls-11" d="M3289.47,814.17c-97.87,64.13-111.61,9.49-111,7.09a43.4,43.4,0,0,0-7.33-1.52c-31.27-5.8-43,23-.56,64.58,0,0,13-20.55,27.81-24.17L3209.89,894c5.44-.05,125-34.22,124.5-71.4C3334.39,822.58,3300.05,807.24,3289.47,814.17Z"/><path class="cls-48" d="M3179.07,1744.05c-7.29,96.7-56.28,821.29-56.28,821.29a232.26,232.26,0,0,0,30.1-8c-.81-15.65,64.18-926.3,64.18-926.3S3186.37,1647.35,3179.07,1744.05Z"/><path class="cls-48" d="M2986.74,2515c2,21.17,2.83,31.77,2.83,31.77,39,27.89,128.64,22.11,163.32,10.59-.1-1.73.62-14.23,1.93-35.13C3074.54,2553.46,2986.74,2515,2986.74,2515Z"/><path class="cls-48" d="M3490,2522.26c-85.93,19.1-177.86-5.05-177.86-5.05,3.63,22.54,5,34.57,5,34.57,50.23,25.26,171.66,7.36,171.66,7.36C3488.48,2557.32,3490.35,2544.23,3490,2522.26Z"/></g></g></g></svg>