<?xml version="1.0" encoding="utf-8"?>
<!-- Generator: Adobe Illustrator 24.3.0, SVG Export Plug-In . SVG Version: 6.00 Build 0)  -->
<svg version="1.1" id="Layer_1" xmlns="http://www.w3.org/2000/svg" xmlns:xlink="http://www.w3.org/1999/xlink" x="0px" y="0px"
	 viewBox="0 0 3402.28 2760" style="enable-background:new 0 0 3402.28 2760;" xml:space="preserve">
<style type="text/css">
	.st0{fill:#02DAFF;}
	.st1{clip-path:url(#SVGID_2_);fill:#FFFFFF;}
	.st2{fill:url(#SVGID_3_);}
	.st3{opacity:0.3;}
	.st4{fill:#000072;}
	.st5{opacity:0.55;}
	.st6{fill:#FFFFFF;}
	.st7{fill:#FFD553;}
	.st8{fill:#F43F08;}
	.st9{fill:#959BB3;}
	.st10{fill:#12E4F9;}
	.st11{fill:#262F6A;}
	.st12{fill:#0BCBFF;}
	.st13{clip-path:url(#SVGID_5_);fill:#FFFFFF;}
	.st14{fill:#526A88;}
	.st15{fill:#D2E7F9;}
	.st16{fill:#FDF5CF;}
	.st17{fill:#11E2F7;}
	.st18{opacity:0.47;}
	.st19{opacity:0.29;fill:url(#SVGID_6_);}
	.st20{opacity:0.29;fill:url(#SVGID_7_);}
	.st21{fill:#F2A549;}
	.st22{fill:#EC1C24;}
	.st23{fill:#00AAFF;}
	.st24{fill:#390075;}
	.st25{opacity:0.6;}
	.st26{fill:#FFFAE3;}
	.st27{opacity:0.3;fill:url(#SVGID_8_);}
	.st28{opacity:0.3;fill:url(#SVGID_9_);}
	.st29{opacity:0.3;fill:url(#SVGID_10_);}
	.st30{fill:#4A83FF;}
	.st31{fill:#FEB71F;}
	.st32{fill:#EE9623;}
	.st33{fill:#ED4945;}
	.st34{fill:#EF9623;}
	.st35{fill:#BB60EF;}
	.st36{fill:#35B7EB;}
	.st37{fill:#B339FE;}
	.st38{fill:#F49C00;}
	.st39{clip-path:url(#SVGID_12_);}
	.st40{fill:#3AAAFF;}
	.st41{fill:#FFA300;}
	.st42{fill:#E77C2C;}
	.st43{clip-path:url(#SVGID_14_);}
	.st44{opacity:0.1;}
	.st45{fill:#371A45;}
	.st46{fill:#19AFF9;}
	.st47{opacity:0.2;}
	.st48{opacity:0.25;}
	.st49{fill:#D16913;}
	.st50{opacity:0.15;}
	.st51{fill:#00EDF9;}
	.st52{fill:#428AF9;}
	.st53{fill:#FCBC06;}
	.st54{fill:#FDB71E;}
	.st55{opacity:0.5;}
	.st56{fill:#F15A23;}
	.st57{fill:#FFB031;}
	.st58{opacity:0.54;}
	.st59{fill:#FFCBA6;stroke:#000072;stroke-width:0;stroke-linecap:round;stroke-linejoin:round;stroke-miterlimit:10;}
	.st60{fill:#3AB4FF;}
	.st61{fill:#FFCBA6;}
	.st62{fill:#534F56;}
	.st63{fill:none;stroke:#000072;stroke-width:0;stroke-linecap:round;stroke-linejoin:round;stroke-miterlimit:10;}
	.st64{fill:#FF3926;}
	.st65{fill:#BAC2D6;}
	.st66{opacity:0.75;}
	.st67{fill:#263069;}
	.st68{fill:#ED902B;}
	.st69{fill:#F7C414;}
	.st70{fill:#FFDC9C;}
	.st71{fill:#00C3FF;}
	.st72{opacity:0.7;}
	.st73{opacity:0.8;}
	.st74{fill:url(#SVGID_15_);stroke:#390075;stroke-width:4.9446;stroke-linecap:round;stroke-linejoin:round;stroke-miterlimit:10;}
	.st75{opacity:0.35;}
	.st76{fill:#D25658;}
	.st77{fill:#6BD6F0;}
	.st78{fill:#FED176;}
	.st79{clip-path:url(#SVGID_17_);}
	.st80{fill:#DC60FC;}
</style>
<g>
	<g>
		<path class="st12" d="M905.47,2675.57h1566.12c402.5-258.19,669.22-709.59,669.22-1223.29C3140.81,650.21,2490.6,0,1688.53,0
			C886.46,0,236.25,650.21,236.25,1452.28C236.25,1965.98,502.97,2417.38,905.47,2675.57z"/>
		<g>
			<defs>
				<path id="SVGID_4_" d="M905.47,2675.57h1566.12c402.5-258.19,669.22-709.59,669.22-1223.29C3140.81,650.21,2490.6,0,1688.53,0
					C886.46,0,236.25,650.21,236.25,1452.28C236.25,1965.98,502.97,2417.38,905.47,2675.57z"/>
			</defs>
			<clipPath id="SVGID_2_">
				<use xlink:href="#SVGID_4_"  style="overflow:visible;"/>
			</clipPath>
			<path class="st1" d="M2606.65,1128.54c-0.11,5.08,0.23,10.16,0.96,15.01c2.43,16.53,16.59,28.78,33.3,28.78h727.12
				c16.59,0,30.76-12.13,33.24-28.55c1.02-6.49,1.3-13.21,0.73-20.15c-3.05-40.57-34.93-74.26-75.28-79.51
				c-25-3.22-48.36,4.18-66.03,18.34c4.74-18.4,6.94-37.87,6.32-57.9c-3.39-108.91-93.11-197.57-202.08-199.83
				c-43.79-0.9-84.54,11.85-118.34,34.31c-45.26,29.97-77.93,77.37-88.71,132.56c-3.39-0.28-6.83-0.45-10.33-0.45
				c-53.22,0-98.53,33.63-115.85,80.87c-12.7-6.15-27.09-9.25-42.32-8.52C2644.34,1045.75,2607.72,1083.45,2606.65,1128.54z"/>
			<path class="st1" d="M648.49,1518.35c0,5.22-0.35,10.39-1.03,15.46c-1.06,7.92-8.09,13.68-16.08,13.68H15.14
				c-10.74,0-17.88-10.78-14.12-20.85c11.35-30.43,40.69-52.15,75.1-52.15c1.2,0,2.4,0,3.5,0.1c-2.63-13.73-3.83-27.99-3.43-42.62
				c2.67-99.05,80.82-182.45,179.54-191.03c110.88-9.64,204.82,72.53,214.13,179.08c18.02-11.52,39.35-18.12,62.29-18.12
				C596.42,1401.89,648.49,1454.06,648.49,1518.35z"/>
		</g>
		<g>
			<g>
				<g>
					<circle class="st4" cx="1017.59" cy="755.96" r="18.01"/>
				</g>
				<g>
					<circle class="st4" cx="2055.12" cy="1060.33" r="18.01"/>
				</g>
				<g>
					<circle class="st4" cx="911.83" cy="1817.42" r="18.01"/>
				</g>
				<g>
					<circle class="st4" cx="2775.84" cy="1960.15" r="18.01"/>
				</g>
				<g>
					<circle class="st4" cx="1954.71" cy="1135.52" r="29.27"/>
				</g>
				<g>
					<circle class="st4" cx="932.62" cy="878.88" r="29.27"/>
				</g>
				<g>
					<path class="st4" d="M1060.47,1528.07c-3.56,3.56-12.67,0.7-23.48-6.53c-5.5-3.68-12.79-3.68-18.29,0
						c-10.8,7.23-19.89,10.08-23.44,6.53c-3.56-3.56-0.71-12.65,6.52-23.45c3.69-5.5,3.69-12.79,0.01-18.3
						c-7.24-10.81-10.08-19.92-6.52-23.47c3.56-3.56,12.65-0.7,23.46,6.54c5.5,3.69,12.79,3.69,18.29,0
						c10.8-7.23,19.89-10.08,23.45-6.52c3.56,3.56,0.7,12.65-6.53,23.45c-3.68,5.5-3.68,12.79,0,18.29
						C1061.16,1515.41,1064.03,1524.51,1060.47,1528.07z"/>
				</g>
				<g>
					<path class="st4" d="M2728.44,1854.17c0,4.26-7.17,8.01-17.98,10.16c-5.51,1.09-9.87,5.46-10.96,10.97
						c-2.14,10.8-5.88,17.96-10.14,17.96c-4.26,0-8.01-7.15-10.14-17.95c-1.09-5.51-5.45-9.88-10.96-10.97
						c-10.82-2.14-17.97-5.89-17.97-10.16c0-4.26,7.16-8,17.97-10.14c5.51-1.09,9.87-5.46,10.96-10.96
						c2.13-10.8,5.88-17.96,10.15-17.96c4.26,0,8,7.16,10.14,17.96c1.09,5.5,5.45,9.87,10.96,10.96
						C2721.27,1846.17,2728.44,1849.91,2728.44,1854.17z"/>
				</g>
				<g>
					<path class="st4" d="M826.83,1760.1c0,4.26-7.17,8.01-17.98,10.16c-5.51,1.09-9.87,5.46-10.96,10.97
						c-2.14,10.8-5.88,17.96-10.14,17.96c-4.26,0-8.01-7.15-10.14-17.95c-1.09-5.51-5.45-9.88-10.96-10.97
						c-10.82-2.14-17.97-5.89-17.97-10.16c0-4.26,7.16-8,17.97-10.14c5.51-1.09,9.87-5.46,10.96-10.96
						c2.13-10.8,5.88-17.96,10.15-17.96c4.26,0,8,7.16,10.14,17.96c1.09,5.5,5.46,9.87,10.96,10.96
						C819.66,1752.1,826.83,1755.83,826.83,1760.1z"/>
				</g>
			</g>
			<g>
				<g>
					<path class="st14" d="M2278.08,2394.88c5.48,1.45,11.03,2.31,16.51,2.51c32.95,1.19,63.65-20.34,72.63-53.62l242.07-891.8
						c10.5-38.69-12.35-78.58-51.11-89.14c-6.34-1.72-12.74-2.58-19.02-2.58c-0.99,0-1.98,0-2.97,0.13
						c-30.77,1.19-58.57,22.19-67.09,53.55l-242.07,891.8C2216.47,2344.43,2239.38,2384.38,2278.08,2394.88z"/>
					<path class="st4" d="M2297.28,2400c-0.93,0-1.85-0.02-2.78-0.05c-5.6-0.2-11.34-1.07-17.08-2.59l-0.01,0
						c-19.4-5.26-35.58-17.78-45.57-35.24c-9.98-17.44-12.56-37.7-7.27-57.05l242.06-891.79c8.66-31.89,36.57-54.17,69.46-55.44
						c0.86-0.13,1.97-0.13,3.07-0.13c6.54,0,13.16,0.9,19.68,2.67c40.02,10.91,63.76,52.3,52.92,92.28l-242.07,891.8
						C2360.77,2377.49,2331.23,2400,2297.28,2400z M2278.74,2392.4c5.36,1.42,10.72,2.24,15.94,2.42
						c32.61,1.15,61.52-20.09,70.06-51.72l242.07-891.8c10.11-37.25-12.01-75.83-49.31-85.99c-6.18-1.67-12.24-2.39-18.63-2.49
						c-0.78,0-1.56,0-2.34,0.11c-30.87,1.2-56.88,21.96-64.95,51.68l-242.07,891.8c-4.93,18.03-2.52,36.91,6.77,53.16
						C2245.6,2375.83,2260.67,2387.49,2278.74,2392.4z"/>
				</g>
				<g>
					<path class="st15" d="M2278.08,2394.88c5.48,1.45,11.03,2.31,16.51,2.51c32.95,1.19,63.65-20.34,72.63-53.62l242.07-891.8
						c10.5-38.69-12.35-78.58-51.11-89.14c-6.34-1.72-12.74-2.58-19.02-2.58c-0.99,0-1.98,0-2.97,0.13
						c-30.77,1.19-58.57,22.19-67.09,53.55l-242.07,891.8C2216.47,2344.43,2239.38,2384.38,2278.08,2394.88z"/>
					<path class="st4" d="M2297.28,2400c-0.93,0-1.85-0.02-2.78-0.05c-5.6-0.2-11.34-1.07-17.08-2.59l-0.01,0
						c-19.4-5.26-35.58-17.78-45.57-35.24c-9.98-17.44-12.56-37.7-7.27-57.05l242.06-891.79c8.66-31.89,36.57-54.17,69.46-55.44
						c0.86-0.13,1.97-0.13,3.07-0.13c6.54,0,13.16,0.9,19.68,2.67c40.02,10.91,63.76,52.3,52.92,92.28l-242.07,891.8
						C2360.77,2377.49,2331.23,2400,2297.28,2400z M2278.74,2392.4c5.36,1.42,10.72,2.24,15.94,2.42
						c32.61,1.15,61.52-20.09,70.06-51.72l242.07-891.8c10.11-37.25-12.01-75.83-49.31-85.99c-6.18-1.67-12.24-2.39-18.63-2.49
						c-0.78,0-1.56,0-2.34,0.11c-30.87,1.2-56.88,21.96-64.95,51.68l-242.07,891.8c-4.93,18.03-2.52,36.91,6.77,53.16
						C2245.6,2375.83,2260.67,2387.49,2278.74,2392.4z"/>
				</g>
				<g class="st3">
					<path class="st4" d="M2278.08,2394.88c5.48,1.45,11.03,2.31,16.51,2.51c32.95,1.19,63.65-20.34,72.63-53.62l242.07-891.8
						c10.5-38.69-12.35-78.58-51.11-89.14c-6.34-1.72-12.74-2.58-19.02-2.58c-0.99,0-1.98,0-2.97,0.13
						c-30.77,1.19-58.57,22.19-67.09,53.55l-242.07,891.8C2216.47,2344.43,2239.38,2384.38,2278.08,2394.88z"/>
				</g>
				<g>
					<path class="st4" d="M2297.28,2412.18c-1.07,0-2.15-0.02-3.23-0.06c-6.5-0.23-13.15-1.24-19.76-2.99
						c-0.03-0.01-0.05-0.01-0.08-0.02c-22.54-6.12-41.34-20.66-52.95-40.94c-11.6-20.27-14.59-43.82-8.45-66.31l242.06-891.77
						c10.01-36.87,42.19-62.69,80.19-64.4c1.37-0.14,2.73-0.17,4.11-0.17c7.62,0,15.31,1.04,22.87,3.09
						c46.51,12.68,74.09,60.78,61.48,107.23l-242.07,891.8C2371.09,2386.02,2336.75,2412.18,2297.28,2412.18z M2281.9,2380.63
						c4.47,1.18,8.92,1.86,13.22,2.02c27.06,0.98,50.82-16.59,57.86-42.72l242.07-891.82c8.35-30.78-9.93-62.65-40.75-71.05
						c-5.22-1.42-10.64-2.05-15.7-2.06c-0.19,0-0.38,0-0.57,0.02c-0.45,0.06-0.81,0.09-1.27,0.1
						c-25.29,0.98-46.76,18.13-53.43,42.68l-242.06,891.79c-4.07,14.91-2.08,30.5,5.59,43.92
						C2254.55,2366.95,2266.99,2376.58,2281.9,2380.63z"/>
				</g>
				<g>
					<path class="st14" d="M1550.49,2394.88c6.01,1.58,11.95,2.44,17.83,2.51h726.26c-5.48-0.2-11.03-1.06-16.51-2.51
						c-38.69-10.5-61.61-50.45-51.04-89.14l242.07-891.8c8.52-31.36,36.32-52.36,67.09-53.55l-722.17-0.07
						c-0.79-0.07-1.58-0.07-2.38-0.07c-32.02,0-61.34,21.33-70.12,53.68l-242.07,891.8
						C1488.95,2344.43,1511.8,2384.38,1550.49,2394.88z"/>
					<path class="st4" d="M2294.58,2399.95h-726.26c-6-0.07-12.2-0.94-18.48-2.6l-0.01,0c-40-10.85-63.71-52.25-52.85-92.29
						l242.07-891.8c8.89-32.72,38.74-55.57,72.6-55.57c0.87,0,1.73,0,2.59,0.08l721.95,0.06l0.1,5.12
						c-30.63,1.18-56.64,21.94-64.71,51.66l-242.07,891.8c-4.93,18.03-2.52,36.91,6.77,53.16c9.31,16.27,24.39,27.93,42.46,32.83
						c5.35,1.42,10.71,2.23,15.93,2.42L2294.58,2399.95z M1551.15,2392.4c5.87,1.55,11.66,2.36,17.2,2.42h701.38
						c-15.99-6.21-29.25-17.61-37.89-32.71c-9.98-17.44-12.56-37.7-7.27-57.05l242.06-891.79c6.39-23.53,23.27-41.83,44.89-50.32
						l-697.49-0.06c-0.93-0.07-1.64-0.08-2.38-0.07c-31.55,0-59.37,21.3-67.65,51.79l-242.07,891.8
						C1491.81,2343.71,1513.89,2382.28,1551.15,2392.4z"/>
				</g>
				<g class="st5">
					<path class="st6" d="M2536.17,1364.09c-22.49,0.9-43.42,12.36-56.4,30.77l-676.97-0.06c-0.78-0.06-1.57-0.06-2.35-0.06
						c-25.46,0-49.23,13.54-62.27,35.36l3.36-12.42c8.78-32.39,38.1-53.71,70.1-53.71c0.78,0,1.57,0,2.35,0.06L2536.17,1364.09z"/>
				</g>
				<g>
					<path class="st4" d="M2294.58,2412.13h-726.26c-7.13-0.08-14.34-1.09-21.59-3c-0.03-0.01-0.07-0.02-0.1-0.03
						c-46.48-12.61-74.03-60.72-61.41-107.23l242.07-891.8c10.32-38.02,45.01-64.57,84.36-64.57c0.96,0,1.92,0.01,2.88,0.07
						l721.67,0.07c8.03,0,14.59,6.43,14.74,14.46c0.16,8.03-6.15,14.71-14.17,15.02c-25.29,0.98-46.76,18.13-53.43,42.68
						l-242.06,891.79c-4.07,14.91-2.08,30.5,5.59,43.92c7.69,13.44,20.15,23.08,35.08,27.13c4.4,1.17,8.86,1.85,13.18,2
						c8.03,0.29,14.36,6.96,14.21,15C2309.18,2405.69,2302.63,2412.13,2294.58,2412.13z M1554.32,2380.63
						c4.88,1.28,9.64,1.96,14.17,2h663.11c-3.88-4.41-7.35-9.26-10.33-14.48c-11.6-20.27-14.59-43.82-8.45-66.31l242.06-891.77
						c3.61-13.29,10.1-25.14,18.7-34.95l-659.55-0.06c-0.41,0-0.82-0.02-1.23-0.05c-0.39-0.03-0.77-0.01-1.15-0.01
						c-26.06,0-49.05,17.6-55.89,42.8l-242.06,891.8C1505.33,2340.41,1523.55,2372.26,1554.32,2380.63z"/>
				</g>
				<g>
					<path class="st15" d="M725.16,2470.21h905.47c42.73,0,77.37-34.64,77.37-77.37l0,0c0-42.73-34.64-77.37-77.37-77.37H725.16
						c-42.73,0-77.37,34.64-77.37,77.37l0,0C647.79,2435.57,682.43,2470.21,725.16,2470.21z"/>
					<path class="st4" d="M1630.63,2472.77H725.16c-44.08,0-79.94-35.86-79.94-79.93s35.86-79.93,79.94-79.93h905.47
						c44.07,0,79.93,35.86,79.93,79.93S1674.7,2472.77,1630.63,2472.77z M725.16,2318.03c-41.25,0-74.81,33.56-74.81,74.81
						s33.56,74.81,74.81,74.81h905.47c41.25,0,74.8-33.56,74.8-74.81s-33.55-74.81-74.8-74.81H725.16z"/>
				</g>
				<g class="st3">
					<path class="st4" d="M647.79,2392.83c0,21.35,8.71,40.65,22.72,54.66c14.01,14.01,33.31,22.72,54.66,22.72h905.46
						c42.7,0,77.38-34.67,77.38-77.38c0-11.27-2.39-21.95-6.83-31.51c-11.96,26.99-39.12,45.78-70.54,45.78H725.17
						c-21.35,0-40.65-8.63-54.66-22.63c-6.66-6.66-12.04-14.43-15.89-23.14C650.18,2370.89,647.79,2381.56,647.79,2392.83z"/>
				</g>
				<g>
					<path class="st4" d="M1630.63,2484.95H725.16c-50.8,0-92.12-41.32-92.12-92.12s41.32-92.12,92.12-92.12h905.47
						c50.79,0,92.11,41.32,92.11,92.12S1681.42,2484.95,1630.63,2484.95z M725.16,2330.21c-34.53,0-62.63,28.09-62.63,62.62
						s28.1,62.62,62.63,62.62h905.47c34.53,0,62.62-28.09,62.62-62.62s-28.09-62.62-62.62-62.62H725.16z"/>
				</g>
				<g>
					<path class="st16" d="M1663.05,2470.21h501.42c42.73,0,77.37-34.64,77.37-77.37l0,0c0-42.73-34.64-77.37-77.37-77.37h-501.42
						c-42.73,0-77.37,34.64-77.37,77.37l0,0C1585.68,2435.57,1620.32,2470.21,1663.05,2470.21z"/>
					<path class="st4" d="M2164.47,2472.77h-501.43c-44.07,0-79.93-35.86-79.93-79.93s35.86-79.93,79.93-79.93h501.43
						c44.07,0,79.93,35.86,79.93,79.93S2208.54,2472.77,2164.47,2472.77z M1663.05,2318.03c-41.25,0-74.8,33.56-74.8,74.81
						s33.55,74.81,74.8,74.81h501.43c41.25,0,74.8-33.56,74.8-74.81s-33.55-74.81-74.8-74.81H1663.05z"/>
				</g>
				<g>
					<path class="st15" d="M1663.05,2470.21h501.42c42.73,0,77.37-34.64,77.37-77.37l0,0c0-42.73-34.64-77.37-77.37-77.37h-501.42
						c-42.73,0-77.37,34.64-77.37,77.37l0,0C1585.68,2435.57,1620.32,2470.21,1663.05,2470.21z"/>
					<path class="st4" d="M2164.47,2472.77h-501.43c-44.07,0-79.93-35.86-79.93-79.93s35.86-79.93,79.93-79.93h501.43
						c44.07,0,79.93,35.86,79.93,79.93S2208.54,2472.77,2164.47,2472.77z M1663.05,2318.03c-41.25,0-74.8,33.56-74.8,74.81
						s33.55,74.81,74.8,74.81h501.43c41.25,0,74.8-33.56,74.8-74.81s-33.55-74.81-74.8-74.81H1663.05z"/>
				</g>
				<g class="st3">
					<path class="st4" d="M2164.47,2413.82h-501.42c-32.77,0-60.72-20.41-71.99-49.18c-3.43,8.74-5.38,18.23-5.38,28.19l0,0
						c0,42.73,34.64,77.37,77.37,77.37h501.42c42.73,0,77.37-34.64,77.37-77.37l0,0c0-9.96-1.95-19.45-5.38-28.19
						C2225.19,2393.42,2197.24,2413.82,2164.47,2413.82z"/>
				</g>
				<g>
					<path class="st4" d="M2164.47,2484.95h-501.43c-50.79,0-92.11-41.32-92.11-92.12s41.32-92.12,92.11-92.12h501.43
						c50.79,0,92.11,41.32,92.11,92.12S2215.26,2484.95,2164.47,2484.95z M1663.05,2330.21c-34.53,0-62.62,28.09-62.62,62.62
						s28.09,62.62,62.62,62.62h501.43c34.53,0,62.62-28.09,62.62-62.62s-28.09-62.62-62.62-62.62H1663.05z"/>
				</g>
				<g>
					<path class="st17" d="M2370.44,1534.26l-6.15,22.55v0.09l-93.35,343.84l-74.05,272.95c-1.37,4.87-4.01,9.05-7.52,12.21
						c-4.53,4.18-10.59,6.58-17,6.58h-549.5c-16.74,0-28.95-15.89-24.51-32.03l10.33-38.09l129.22-476.22l8.37-31l25.62-94.2
						c2.48-9.05,9.74-15.89,18.62-18.02c1.88-0.43,3.84-0.68,5.89-0.68h549.5C2362.66,1502.23,2374.79,1518.12,2370.44,1534.26z"/>
				</g>
				<g class="st5">
					<path class="st6" d="M2182.41,2190.35l-3.25,11.97c-1.34,4.87-4.03,9.06-7.5,12.2c-4.53,4.2-10.57,6.6-17.01,6.6h-549.47
						c-16.78,0-28.98-15.89-24.56-32.06l10.35-38.04l129.24-476.23l8.34-31l25.62-94.22c2.13-7.55,7.5-13.6,14.43-16.56
						l-22.32,82.13l-8.39,31l-129.18,476.23l-10.35,38.04c-4.42,16.17,7.78,32.06,24.51,32.06h549.52
						C2175.87,2192.48,2179.28,2191.75,2182.41,2190.35z"/>
				</g>
				<g class="st18">
					<g>
						<path class="st6" d="M2192.25,1812.29h-409.33c-5.1,0-8.79-4.88-7.4-9.79l54.13-191.48c1.84-6.5,7.77-10.98,14.52-10.98
							h405.25c5.52,0,9.54,5.23,8.12,10.56l-50.76,190.52C2205.02,1807.71,2199.06,1812.29,2192.25,1812.29z"/>
					</g>
					<g>
						<path class="st6" d="M2162.87,1904.68H1763.5c-6.63,0-11.34-6.45-9.32-12.76l12.39-38.82c1.1-3.45,4.3-5.79,7.92-5.79h409.53
							c6.07,0,10.51,5.73,8.99,11.61l-7.26,28.06C2183.04,1897.4,2173.63,1904.68,2162.87,1904.68z"/>
					</g>
					<g>
						<path class="st6" d="M2118.11,2079.54h-399.37c-6.63,0-11.34-6.45-9.32-12.76l12.39-38.82c1.1-3.45,4.3-5.79,7.92-5.79h409.53
							c6.07,0,10.51,5.73,8.99,11.61l-7.26,28.06C2138.28,2072.26,2128.87,2079.54,2118.11,2079.54z"/>
					</g>
					<g>
						<path class="st6" d="M2008.33,1981.29h-200.21c-3.32,0-5.68-3.23-4.67-6.4l6.21-19.46c0.55-1.73,2.16-2.9,3.97-2.9h205.31
							c3.04,0,5.27,2.87,4.51,5.82l-3.64,14.07C2018.44,1977.64,2013.72,1981.29,2008.33,1981.29z"/>
					</g>
					<g>
						
							<ellipse transform="matrix(0.339 -0.9408 0.9408 0.339 -681.5542 2956.8235)" class="st6" cx="1763.39" cy="1963.43" rx="30.07" ry="23.08"/>
					</g>
				</g>
				<linearGradient id="SVGID_3_" gradientUnits="userSpaceOnUse" x1="1708.9469" y1="1828.243" x2="2014.2695" y2="1480.2179">
					<stop  offset="0" style="stop-color:#FFFFFF;stop-opacity:0"/>
					<stop  offset="0.1248" style="stop-color:#FFFFFF;stop-opacity:0.1248"/>
					<stop  offset="1" style="stop-color:#FFFFFF"/>
				</linearGradient>
				<polygon style="opacity:0.29;fill:url(#SVGID_3_);" points="2107.3,1502.23 1608.71,2122.36 1737.93,1646.14 1746.3,1615.14 
					1837.17,1502.23 				"/>
				<linearGradient id="SVGID_5_" gradientUnits="userSpaceOnUse" x1="1905.0964" y1="2003.4657" x2="2210.4189" y2="1655.4407">
					<stop  offset="0" style="stop-color:#1B75BB;stop-opacity:0"/>
					<stop  offset="0.0512" style="stop-color:#3A88C4;stop-opacity:0.0512"/>
					<stop  offset="0.1366" style="stop-color:#68A4D2;stop-opacity:0.1366"/>
					<stop  offset="0.2278" style="stop-color:#91BCDE;stop-opacity:0.2278"/>
					<stop  offset="0.3234" style="stop-color:#B3D1E8;stop-opacity:0.3234"/>
					<stop  offset="0.4245" style="stop-color:#CFE2F1;stop-opacity:0.4245"/>
					<stop  offset="0.5332" style="stop-color:#E4EFF7;stop-opacity:0.5332"/>
					<stop  offset="0.6531" style="stop-color:#F3F8FC;stop-opacity:0.6531"/>
					<stop  offset="0.7928" style="stop-color:#FCFDFE;stop-opacity:0.7928"/>
					<stop  offset="1" style="stop-color:#FFFFFF"/>
				</linearGradient>
				<path style="opacity:0.29;fill:url(#SVGID_5_);" d="M2370.44,1534.26l-6.15,22.55v0.09l-511.06,635.58h-177.39l555.05-690.24
					h115.04C2362.66,1502.23,2374.79,1518.12,2370.44,1534.26z"/>
				<g class="st3">
					<path class="st4" d="M1620.98,2192.39L1797,1543.82c1.62-5.98,7.09-10.08,13.24-10.08h560.26c4.01-15.97-8.03-31.51-24.6-31.51
						h-549.5c-11.44,0-21.52,7.69-24.51,18.7l-173.54,639.51C1594.08,2175.99,1605.18,2191.28,1620.98,2192.39z"/>
				</g>
				<g>
					<path class="st4" d="M2172.33,2207.2h-549.5c-12.6,0-24.22-5.74-31.88-15.75c-7.66-10.01-10.16-22.73-6.86-34.9l173.57-639.45
						c4.73-17.44,20.66-29.62,38.74-29.62h549.51c12.61,0,24.23,5.74,31.88,15.76c7.66,10.01,10.15,22.73,6.85,34.9l-173.56,639.45
						C2206.34,2195.01,2190.41,2207.2,2172.33,2207.2z M1796.4,1516.96c-4.79,0-9.02,3.23-10.27,7.85l-173.57,639.46
						c-0.88,3.23-0.21,6.6,1.82,9.26c2.03,2.65,5.11,4.18,8.46,4.18h549.5c4.79,0,9.02-3.23,10.27-7.86l173.57-639.45
						c0.88-3.23,0.21-6.6-1.81-9.26c-2.03-2.65-5.11-4.18-8.46-4.18H1796.4z"/>
				</g>
				<g>
					<path class="st4" d="M1156.09,2378.48h-138.96c-34.75,0-63.01-28.27-63.01-63.01c0-7.08,5.74-12.81,12.81-12.81
						s12.81,5.74,12.81,12.81c0,20.61,16.77,37.38,37.38,37.38h138.96c20.61,0,37.38-16.77,37.38-37.38
						c0-7.08,5.74-12.81,12.81-12.81s12.81,5.74,12.81,12.81C1219.1,2350.21,1190.84,2378.48,1156.09,2378.48z"/>
				</g>
				<g>
					<path class="st4" d="M1780.87,2408.36h-64.86c-3.31,0-6-2.69-6-6v-19.04c0-3.31,2.69-6,6-6h64.86c3.31,0,6,2.69,6,6v19.04
						C1786.87,2405.67,1784.19,2408.36,1780.87,2408.36z"/>
				</g>
				<g>
					<path class="st4" d="M1888.48,2408.36h-64.86c-3.31,0-6-2.69-6-6v-19.04c0-3.31,2.69-6,6-6h64.86c3.31,0,6,2.69,6,6v19.04
						C1894.48,2405.67,1891.79,2408.36,1888.48,2408.36z"/>
				</g>
				<g>
					<path class="st4" d="M2152.4,2431.65h12.25c2.8,0,5.07-2.27,5.07-5.07v-58.41c0-2.8-2.27-5.07-5.07-5.07h-12.25
						c-2.8,0-5.07,2.27-5.07,5.07v58.41C2147.34,2429.38,2149.61,2431.65,2152.4,2431.65z"/>
				</g>
				<g>
					<path class="st4" d="M2116.56,2431.65h12.25c2.8,0,5.07-2.27,5.07-5.07v-58.41c0-2.8-2.27-5.07-5.07-5.07h-12.25
						c-2.8,0-5.07,2.27-5.07,5.07v58.41C2111.5,2429.38,2113.76,2431.65,2116.56,2431.65z"/>
				</g>
				<g>
					<path class="st4" d="M2082.29,2431.65h12.25c2.8,0,5.07-2.27,5.07-5.07v-58.41c0-2.8-2.27-5.07-5.07-5.07h-12.25
						c-2.8,0-5.07,2.27-5.07,5.07v58.41C2077.23,2429.38,2079.5,2431.65,2082.29,2431.65z"/>
				</g>
			</g>
			<g>
				<g>
					<path class="st21" d="M1490.46,2595.57H462.34c-20.36,0-36.87-16.51-36.87-36.87v-51.61c0-20.36,16.51-36.87,36.87-36.87
						h1028.12V2595.57z"/>
					<path class="st4" d="M1493.02,2598.13H462.34c-21.74,0-39.43-17.69-39.43-39.44v-51.61c0-21.75,17.69-39.44,39.43-39.44
						h1030.68V2598.13z M462.34,2472.78c-18.92,0-34.31,15.39-34.31,34.31v51.61c0,18.92,15.39,34.31,34.31,34.31H1487.9v-120.23
						H462.34z"/>
				</g>
				<g>
					<path class="st4" d="M1490.46,2610.31H462.34c-28.46,0-51.62-23.16-51.62-51.62v-51.61c0-28.46,23.15-51.62,51.62-51.62
						h1028.12c8.14,0,14.75,6.6,14.75,14.75v125.35C1505.2,2603.71,1498.6,2610.31,1490.46,2610.31z M462.34,2484.96
						c-12.2,0-22.12,9.93-22.12,22.13v51.61c0,12.2,9.93,22.13,22.12,22.13h1013.37v-95.86H462.34z"/>
				</g>
				<g>
					<path class="st21" d="M2807.35,2595.57H1490.46v-125.35h1316.89c24.66,0,44.65,19.99,44.65,44.65v36.05
						C2852,2575.57,2832.01,2595.57,2807.35,2595.57z"/>
					<path class="st4" d="M2807.35,2598.13H1487.9v-130.48h1319.45c26.04,0,47.22,21.18,47.22,47.22v36.05
						C2854.57,2576.95,2833.38,2598.13,2807.35,2598.13z M1493.02,2593h1314.33c23.21,0,42.09-18.88,42.09-42.09v-36.05
						c0-23.21-18.88-42.09-42.09-42.09H1493.02V2593z"/>
				</g>
				<g class="st5">
					<path class="st6" d="M2847.09,2514.89v36.03c0,24.67-20.01,44.63-44.63,44.63h-36.86c24.63,0,44.63-19.96,44.63-44.63v-36.03
						c0-24.68-20.01-44.68-44.63-44.68h36.86C2827.08,2470.21,2847.09,2490.21,2847.09,2514.89z"/>
				</g>
				<g>
					<path class="st4" d="M2807.35,2610.31H1490.46c-8.14,0-14.75-6.6-14.75-14.75v-125.35c0-8.14,6.6-14.75,14.75-14.75h1316.89
						c32.75,0,59.4,26.65,59.4,59.4v36.05C2866.75,2583.67,2840.1,2610.31,2807.35,2610.31z M1505.2,2580.82h1302.14
						c16.49,0,29.91-13.42,29.91-29.91v-36.05c0-16.49-13.42-29.91-29.91-29.91H1505.2V2580.82z"/>
				</g>
				<g>
					<path class="st21" d="M1397.07,2665.2H579.28c-20.7,0-37.48-16.78-37.48-37.48v-32.15h855.27V2665.2z"/>
					<path class="st4" d="M1399.63,2667.76H579.28c-22.08,0-40.04-17.96-40.04-40.04V2593h860.4V2667.76z M544.36,2598.13v29.59
						c0,19.25,15.66,34.91,34.92,34.91h815.22v-64.51H544.36z"/>
				</g>
				<g class="st3">
					<path class="st4" d="M1490.46,2470.21v35.88H462.34c-20.37,0-36.87,16.51-36.87,36.87v-35.88c0-20.36,16.51-36.87,36.87-36.87
						l0,0c-20.37,0-36.87,16.51-36.87,36.87v51.61c0,20.36,16.51,36.87,36.87,36.87h1028.11V2470.21L1490.46,2470.21z"/>
				</g>
				<g class="st3">
					<path class="st4" d="M1397.07,2665.2H579.28c-20.7,0-37.48-16.78-37.48-37.48v-32.15h855.27V2665.2z"/>
				</g>
				<g>
					<path class="st21" d="M2697.58,2665.2H1397.07v-69.63h1351.72V2614C2748.78,2642.28,2725.86,2665.2,2697.58,2665.2z"/>
					<path class="st4" d="M2697.58,2667.76H1394.5V2593h1356.84v21C2751.34,2643.64,2727.22,2667.76,2697.58,2667.76z
						 M1399.63,2662.64h1297.95c26.82,0,48.64-21.82,48.64-48.64v-15.87H1399.63V2662.64z"/>
				</g>
				<g class="st5">
					<path class="st6" d="M2748.78,2595.55v18.43c0,28.31-22.91,51.22-51.22,51.22h-38.09c28.31,0,51.22-22.91,51.22-51.22v-18.43
						H2748.78z"/>
				</g>
				<g>
					<path class="st4" d="M1397.07,2679.95H579.28c-28.8,0-52.23-23.43-52.23-52.22v-32.16c0-8.14,6.6-14.75,14.75-14.75h855.27
						c8.14,0,14.75,6.6,14.75,14.75v69.63C1411.81,2673.34,1405.21,2679.95,1397.07,2679.95z M556.54,2610.31v17.41
						c0,12.53,10.2,22.73,22.73,22.73h803.04v-40.14H556.54z"/>
				</g>
				<g>
					<path class="st4" d="M2697.58,2679.95H1397.07c-8.14,0-14.75-6.6-14.75-14.75v-69.63c0-8.14,6.6-14.75,14.75-14.75h1351.71
						c8.14,0,14.75,6.6,14.75,14.75V2614C2763.53,2650.36,2733.94,2679.95,2697.58,2679.95z M1411.81,2650.45h1285.77
						c20.1,0,36.46-16.35,36.46-36.46v-3.69H1411.81V2650.45z"/>
				</g>
			</g>
			<g>
				<g>
					<path class="st4" d="M1904.18,2224.43c-2.76,0-5.56-0.59-8.23-1.83c-9.81-4.56-14.07-16.2-9.51-26.01
						c4.47-9.62,8.08-19.61,10.74-29.7c2.75-10.46,13.46-16.7,23.93-13.95c10.46,2.76,16.7,13.47,13.95,23.93
						c-3.25,12.31-7.65,24.5-13.09,36.21C1918.64,2220.23,1911.57,2224.43,1904.18,2224.43z"/>
				</g>
				<g>
					<path class="st4" d="M1605.44,2001.42c-5.57,0-11.1-2.36-14.98-6.95c-6.97-8.26-5.93-20.62,2.34-27.6
						c9.07-7.65,18.59-14.67,28.29-20.85c9.13-5.81,21.23-3.12,27.04,6c5.81,9.12,3.13,21.23-5.99,27.04
						c-8.24,5.25-16.34,11.22-24.08,17.75C1614.39,1999.9,1609.9,2001.42,1605.44,2001.42z"/>
				</g>
				<g>
					<path class="st6" d="M1937.43,2315.45h-902.67c-46.83,0-90.97-23.16-116.6-62.38c-54.55-83.53-27.58-189.44,53.21-235.77v-0.06
						c30.04-17.23,67.59-26.24,111.17-22.71c10.52-35.36,55.72-60.98,91.98-28.37c57.74-77.38,131.81-81.96,175.34-40.62V1189.1
						l144.68-2.69v761.29c36.93-49.91,113.91-45.93,137.07,14.83c154.53-98.64,325.67,53.04,284.5,209.36
						c35.97,1.68,67.19,26.58,78.55,61.6c0.06,0.11,0.11,0.28,0.22,0.56c0.73,2.35,1.4,4.76,1.96,7.22
						C2005.69,2279.25,1976.37,2315.45,1937.43,2315.45z"/>
					<path class="st4" d="M1937.43,2318.01h-902.67c-48.35,0-92.74-23.75-118.74-63.54c-26.71-40.9-35.34-88.73-24.3-134.69
						c10.62-44.21,37.97-81.07,77.08-103.96v-0.01l1.29-0.8c31.62-18.14,69.83-26.14,110.61-23.2
						c6.59-19.64,23.14-35.68,42.69-41.19c17.67-4.98,35.59-0.79,50.72,11.8c29.63-38.77,66.04-61.8,102.78-64.93
						c25.99-2.21,50.74,5.68,70.4,22.3v-733.22l149.81-2.78v756.63c19.05-21.77,47.25-32.78,75.23-28.94
						c27.55,3.78,49.45,20.93,60.52,47.23c68.26-42.27,146.43-40.07,209.67,6.06c64.77,47.23,95.39,129.17,76.83,204.75
						c35.35,2.97,66.35,28,77.75,63.16l0.23,0.59c0.75,2.41,1.44,4.88,2.01,7.4c4.35,18.69-0.04,38.09-12.06,53.22
						C1975.13,2309.23,1956.96,2318.01,1937.43,2318.01z M973.8,2018.82l-1.15,0.71c-38.56,22.11-65.53,58.14-75.94,101.45
						c-10.71,44.57-2.33,90.98,23.6,130.69c25.05,38.33,67.83,61.22,114.45,61.22h902.67c17.95,0,34.66-8.08,45.85-22.17
						c11.03-13.89,15.07-31.71,11.07-48.88c-0.55-2.41-1.2-4.75-1.91-7.04l-0.21-0.52c-11.08-34.17-41.72-58.22-76.24-59.83
						l-3.17-0.15l0.81-3.06c19.6-74.38-10.2-155.68-74.13-202.31c-62.29-45.43-139.49-47.01-206.5-4.23l-2.65,1.69l-1.12-2.94
						c-9.97-26.13-30.95-43.21-57.59-46.87c-28.47-3.91-57.25,8.6-75.03,32.65l-4.62,6.25v-766.45l-139.56,2.59v739.9l-4.33-4.11
						c-19.21-18.24-44.33-27.05-70.76-24.79c-35.94,3.06-71.73,26.18-100.76,65.09l-1.68,2.25l-2.09-1.88
						c-14.21-12.78-31.26-17.22-48.01-12.5c-18.55,5.22-34.17,20.81-39.79,39.69l-0.59,1.99l-2.07-0.17
						C1042.31,1993.85,1004.82,2001.36,973.8,2018.82z"/>
				</g>
				<g>
					<path class="st4" d="M1937.43,2330.2h-902.67c-52.49,0-100.69-25.82-128.94-69.06c-39.08-59.83-41.32-134.04-5.85-193.69
						c34.7-58.35,98.74-90.89,172.78-88.25c9.38-19.3,27-34.56,47.35-40.29c17.8-5.02,35.72-2.52,51.69,6.98
						c30.38-36.01,66.92-57.35,104.07-60.52c20.95-1.79,41.27,2.29,59.25,11.65V1189.1c0-8.04,6.44-14.59,14.47-14.74l144.68-2.69
						c3.96-0.03,7.78,1.45,10.61,4.22c2.82,2.77,4.41,6.56,4.41,10.52v727.57c19.11-12.28,41.96-17.67,64.7-14.56
						c26.96,3.7,49.88,19.13,63.85,42.31c69.81-37.98,147.94-33.41,211.86,13.2c65.05,47.44,97.63,127.95,84.21,204.55
						c37.49,8.55,68.11,38.85,77.3,78.44c5.2,22.34-0.04,45.51-14.38,63.56C1982.35,2319.73,1960.69,2330.2,1937.43,2330.2z
						 M1063.95,2008.52c-60.42,0-110.33,26.4-138.63,74c-29.67,49.9-27.68,112.16,5.19,162.49c22.79,34.88,61.76,55.7,104.25,55.7
						h902.67c14.21,0,27.45-6.4,36.31-17.56c8.71-10.96,11.89-25.01,8.75-38.54c-7.59-32.67-35.16-56.51-67.06-57.99
						c-4.45-0.21-8.56-2.41-11.2-6s-3.51-8.18-2.37-12.49c18.33-69.57-9.61-145.67-69.53-189.36
						c-58.08-42.36-130.15-43.78-192.77-3.81c-3.74,2.39-8.34,2.96-12.56,1.57c-4.21-1.39-7.57-4.6-9.15-8.75
						c-8.33-21.84-25.77-36.11-47.86-39.14c-24.08-3.3-48.44,7.36-63.58,27.82c-3.79,5.12-10.43,7.22-16.47,5.23
						c-6.04-1.99-10.13-7.64-10.13-14v-746.26l-115.19,2.14v721.97c0,5.9-3.51,11.22-8.93,13.55c-5.41,2.33-11.69,1.2-15.97-2.86
						c-16.65-15.81-38.39-23.43-61.33-21.49c-32.43,2.76-65.11,24.16-92.04,60.24c-2.48,3.32-6.24,5.45-10.37,5.86
						c-4.12,0.39-8.23-0.94-11.31-3.71c-14.09-12.67-27.66-12.34-36.56-9.84c-14.4,4.06-27.03,16.69-31.42,31.44
						c-2,6.68-8.51,11.08-15.32,10.49C1075.47,2008.75,1069.66,2008.52,1063.95,2008.52z"/>
				</g>
				<g>
					<path class="st4" d="M1916.11,2191.47h-0.05c-10.82,0-19.58-8.77-19.58-19.58s8.76-19.58,19.58-19.58s19.61,8.77,19.61,19.58
						S1926.93,2191.47,1916.11,2191.47z"/>
				</g>
				<g>
					<path class="st4" d="M1360.02,1914.86c10.67,8.07,18.8,19.06,24.66,30.74c5.93,11.72,9.16,24.44,10.79,36.96
						c1.61,12.56,1.35,25.1-0.31,37.22c-1.76,12.12-4.82,23.85-9.43,34.91c-0.46,1.1-1.73,1.62-2.83,1.16
						c-0.77-0.32-1.26-1.04-1.33-1.82l0-0.04c-0.97-11.74-2.02-23.08-3.98-34.05c-1.85-10.96-4.52-21.52-8.05-31.47
						c-3.5-9.98-8.14-19.18-13.09-27.82c-5-8.68-10.76-16.48-16.75-24.41l-0.47-0.62c-4.94-6.54-3.64-15.83,2.9-20.77
						C1347.55,1910.76,1354.86,1910.96,1360.02,1914.86z"/>
				</g>
				<g>
					<path class="st4" d="M1098.16,2051.06c-10.88-3.43-20.64-11.61-26.56-22.97c-2.91-5.64-4.9-12.03-5.19-18.53
						c-0.31-6.47,0.79-13.05,3.84-18.67c3.44-6.33,11.35-8.68,17.69-5.25c4.17,2.26,6.61,6.46,6.82,10.87l0.07,1.66
						c0.19,4.14-0.25,7.73-0.56,11.43c-0.3,3.67-0.74,7.46-0.58,11.52c0.11,4.05,0.75,8.34,1.96,12.85
						c1.14,4.56,2.93,9.22,4.97,14.37l0.03,0.07c0.41,1.03-0.1,2.2-1.13,2.61C1099.06,2051.19,1098.59,2051.19,1098.16,2051.06z"/>
				</g>
				<g>
					<path class="st4" d="M1534.68,2144.58c-3.41-4.64-6.23-10.08-7.61-16.17c-1.45-6.06-1.5-12.7,0.08-18.99
						c3.01-12.76,11.71-23.45,22.53-30.36c10.84-6.92,24.66-10.26,38.71-7.49c6.98,1.37,13.74,4.6,19.4,8.98
						c5.71,4.37,10.15,9.92,13.59,15.66l-26.4,5.25c1.24-11.67,3.65-23.45,8.04-34.85c4.29-11.42,10.88-22.34,19.56-31.66
						c8.62-9.35,19.53-16.98,31.72-21.51c12.2-4.46,25.46-5.91,38.25-4.21c25.68,3.63,48.26,21.04,58.53,43.19
						c5.42,10.92,8.12,22.73,8.88,34.24c0.67,11.56-0.5,22.89-2.92,33.75c-0.6,2.66-3.24,4.34-5.9,3.74
						c-2.27-0.51-3.83-2.51-3.86-4.74v-0.15c-0.34-20.73-4.03-41.1-14.43-56.67c-5.03-7.8-11.68-14.1-19.1-18.71
						c-7.45-4.64-15.88-7.11-24.32-7.99c-8.49-0.63-17.01,0.81-24.74,4.12c-7.77,3.18-14.87,8.14-20.62,14.65
						c-11.66,12.96-18.04,31.05-21,50.08l-0.13,0.82c-1.19,7.66-8.37,12.91-16.03,11.72c-4.52-0.7-8.23-3.55-10.24-7.29
						c-3.5-6.59-8.16-11.07-14.46-13.12c-6.27-2.21-14.31-1.39-21.6,1.8c-7.29,3.21-13.61,8.94-17.04,16.08
						c-3.44,7.16-3.56,16.03-0.32,25.04l0.06,0.18c0.93,2.57-0.41,5.41-2.98,6.34C1538.24,2147.06,1535.94,2146.3,1534.68,2144.58z"
						/>
				</g>
				<g>
					<g>
						<circle class="st6" cx="1213.95" cy="1748.96" r="44.62"/>
						<path class="st4" d="M1213.95,1796.15c-26.02,0-47.19-21.17-47.19-47.19s21.17-47.19,47.19-47.19
							c26.02,0,47.18,21.17,47.18,47.19S1239.97,1796.15,1213.95,1796.15z M1213.95,1706.9c-23.19,0-42.06,18.87-42.06,42.06
							c0,23.19,18.87,42.06,42.06,42.06c23.19,0,42.06-18.87,42.06-42.06C1256.01,1725.77,1237.14,1706.9,1213.95,1706.9z"/>
					</g>
					<g class="st3">
						<path class="st4" d="M1255.24,1765.84c-6.6,16.28-22.66,27.75-41.29,27.75c-24.62,0-44.65-19.97-44.65-44.65
							c0-20.36,13.71-37.54,32.39-42.86c-4.36,6.55-6.88,14.38-6.88,22.83c0,22.94,18.57,41.51,41.51,41.51
							C1243.16,1770.43,1249.59,1768.8,1255.24,1765.84z"/>
					</g>
					<g>
						<path class="st4" d="M1213.95,1806.55c-31.76,0-57.59-25.83-57.59-57.59c0-31.76,25.83-57.59,57.59-57.59
							c31.75,0,57.59,25.83,57.59,57.59C1271.54,1780.72,1245.71,1806.55,1213.95,1806.55z M1213.95,1717.31
							c-17.46,0-31.66,14.2-31.66,31.66s14.2,31.65,31.66,31.65c17.45,0,31.65-14.2,31.65-31.65S1231.41,1717.31,1213.95,1717.31z"
							/>
					</g>
				</g>
				<g>
					<g>
						<circle class="st6" cx="1658.02" cy="1767.32" r="68.12"/>
						<path class="st4" d="M1658.02,1837.93c-38.93,0-70.61-31.68-70.61-70.61s31.67-70.61,70.61-70.61s70.61,31.68,70.61,70.61
							S1696.95,1837.93,1658.02,1837.93z M1658.02,1701.68c-36.19,0-65.63,29.44-65.63,65.63s29.44,65.63,65.63,65.63
							s65.63-29.44,65.63-65.63S1694.21,1701.68,1658.02,1701.68z"/>
					</g>
					<g class="st3">
						<path class="st4" d="M1726.15,1767.34c0,37.62-30.51,68.08-68.13,68.08c-37.62,0-68.13-30.46-68.13-68.08
							c0-37.62,30.51-68.13,68.13-68.13c0.6,0,1.19,0,1.79,0.05c-17.32,7.76-29.42,25.19-29.42,45.44
							c0,27.47,22.26,49.73,49.73,49.73c20.68,0,38.44-12.6,45.93-30.51C1726.09,1765.06,1726.15,1766.2,1726.15,1767.34z"/>
					</g>
					<g>
						<path class="st4" d="M1658.02,1848.02c-44.5,0-80.7-36.21-80.7-80.71s36.2-80.71,80.7-80.71s80.7,36.21,80.7,80.71
							S1702.52,1848.02,1658.02,1848.02z M1658.02,1711.78c-30.62,0-55.54,24.91-55.54,55.54s24.92,55.54,55.54,55.54
							s55.54-24.91,55.54-55.54S1688.64,1711.78,1658.02,1711.78z"/>
					</g>
				</g>
				<g>
					<g>
						<circle class="st6" cx="1586.44" cy="1602.11" r="33.24"/>
						<path class="st4" d="M1586.44,1637.9c-19.74,0-35.8-16.06-35.8-35.8s16.06-35.8,35.8-35.8c19.74,0,35.8,16.06,35.8,35.8
							S1606.18,1637.9,1586.44,1637.9z M1586.44,1571.43c-16.91,0-30.67,13.76-30.67,30.67s13.76,30.67,30.67,30.67
							c16.91,0,30.67-13.76,30.67-30.67S1603.35,1571.43,1586.44,1571.43z"/>
					</g>
					<g class="st3">
						<path class="st4" d="M1616.07,1617.09c-5.43,10.85-16.67,18.24-29.6,18.24c-18.41,0-33.29-14.88-33.29-33.23
							c0-15.83,11.08-29.04,25.9-32.39c-2.24,4.48-3.52,9.57-3.52,14.94c0,18.35,14.88,33.23,33.29,33.23
							C1611.31,1617.88,1613.72,1617.6,1616.07,1617.09z"/>
					</g>
					<g>
						<path class="st4" d="M1586.44,1647.63c-25.1,0-45.52-20.42-45.52-45.52s20.42-45.52,45.52-45.52s45.53,20.42,45.53,45.52
							S1611.54,1647.63,1586.44,1647.63z M1586.44,1581.16c-11.55,0-20.94,9.4-20.94,20.95s9.39,20.95,20.94,20.95
							c11.55,0,20.95-9.4,20.95-20.95S1597.99,1581.16,1586.44,1581.16z"/>
					</g>
				</g>
				<g class="st3">
					<path class="st4" d="M1920.76,2307.95c0,0,2.52,2.97,6.66,7.5h-892.65c-46.83,0-90.97-23.16-116.6-62.38
						c-54.55-83.53-27.58-189.44,53.21-235.77c-37.71,106.24,86.94,176.12,164.54,90.75c6.7-7.37,18.81-5.4,22.56,3.83
						c15.16,37.34,42.57,39.01,58.68,10.04c2.85-5.15,10.41-5.09,12.7,0.39c28.53,68.54,111.56,59.64,147.87,13.65
						c5.87-7.39,17.23-6.21,21.43,2.24c11.58,23.16,35.53,30.66,59.81,23.33c9.62-2.91,13.54,0.5,12.53,15.78l-0.39,0.62
						c-0.28,48.51,41.68,67.42,67.14,38.6c4.87-5.48,13.54-5.09,18.3,0.5c27.41,32.56,107.64,22.99,125.27-38.38
						c2.07-7.27,10.91-9.79,16.39-4.59c15.5,14.77,43.25,30.38,75.19-0.56c5.87-5.71,15.5-2.35,16.95,5.71
						c7.83,43.55,63.79,71.96,114.43,47.01c20.59-10.14,45.57,1.13,51.49,23.3C1962.33,2272.28,1953.93,2298.24,1920.76,2307.95z"/>
				</g>
				<g class="st3">
					<path class="st4" d="M1721.31,2034.25c-50.75-2.3-71.34,26.25-71.76,73.87c-0.24,27.04-40.06,30-43.97,3.24
						c-0.05-0.35-0.1-0.71-0.15-1.07l-28.76-16.78c0,0-18.11,6.59-6.2,39.2c6.17,16.89-11.42,33.1-27.38,24.81
						c-0.23-0.12-0.46-0.24-0.69-0.37c0,0-34.02-61.5,46.98-71.66l16.05,5.92C1626.92,2031.36,1659.31,1997.4,1721.31,2034.25z"/>
				</g>
				<g class="st3">
					<path class="st4" d="M1420.02,1186.42l-3.06,727.11c0,0,36.62,81.56-19.32,114.82l-47.78-110.57V1189.1L1420.02,1186.42z"/>
				</g>
			</g>
			<g>
				<g>
					<path class="st6" d="M2621.93,2470.36h-184.07c-53.95,0-97.68-43.73-97.68-97.68v-191.01c0-14.04,11.38-25.43,25.43-25.43
						h328.58c14.04,0,25.43,11.38,25.43,25.43v191.01C2719.61,2426.62,2675.88,2470.36,2621.93,2470.36z"/>
					<path class="st4" d="M2621.93,2472.92h-184.07c-55.28,0-100.25-44.97-100.25-100.25v-191.01c0-15.43,12.56-27.99,27.99-27.99
						h328.58c15.43,0,27.99,12.56,27.99,27.99v191.01C2722.18,2427.95,2677.21,2472.92,2621.93,2472.92z M2365.61,2158.8
						c-12.61,0-22.87,10.26-22.87,22.86v191.01c0,52.45,42.67,95.12,95.12,95.12h184.07c52.45,0,95.12-42.67,95.12-95.12v-191.01
						c0-12.61-10.26-22.86-22.87-22.86H2365.61z"/>
				</g>
				<g class="st3">
					<path class="st4" d="M2700.9,2430.12c-17.7,24.42-46.49,40.22-78.95,40.22h-184.11c-53.96,0-97.68-43.73-97.68-97.68v-191
						c0-14.02,11.38-25.4,25.46-25.4h62.92v176.18c0,53.96,43.73,97.68,97.68,97.68H2700.9z"/>
				</g>
				<g>
					<path class="st4" d="M2621.94,2485.13h-184.08c-61.98,0-112.41-50.45-112.41-112.46v-191.01c0-22.14,18.01-40.16,40.16-40.16
						h328.59c22.14,0,40.16,18.02,40.16,40.16v191.01c0,13.57-2.42,26.88-7.19,39.55
						C2710.84,2455.81,2668.55,2485.13,2621.94,2485.13z M2365.61,2170.99c-5.88,0-10.66,4.79-10.66,10.67v191.01
						c0,45.75,37.2,82.97,82.92,82.97h184.08c34.38,0,65.57-21.61,77.62-53.78c3.53-9.37,5.31-19.18,5.31-29.19v-191.01
						c0-5.88-4.79-10.67-10.67-10.67H2365.61z"/>
				</g>
				<g>
					<g>
						<path class="st6" d="M2851.25,2300.85c0,34.46-16.47,65.08-41.98,84.49c-17.84,13.62-40.11,21.68-64.24,21.68h-31.65
							c4.03-10.72,6.24-22.27,6.24-34.36v-29.54h25.41c9.34,0,17.94-3.05,24.92-8.11c10.52-7.72,17.4-20.15,17.4-34.16
							c0-10.67-4.03-20.45-10.62-27.92c-0.93-1.08-1.92-2.11-3-3.1c-0.05-0.1-0.1-0.2-0.25-0.25c-7.52-6.83-17.5-11.01-28.46-11.01
							h-25.41v-63.9h25.41c20.4,0,39.47,5.75,55.64,15.73c0.05,0.05,0.05,0.1,0.05,0.1
							C2831.04,2229.18,2851.25,2262.71,2851.25,2300.85z"/>
						<path class="st4" d="M2745.02,2409.58h-35.36l1.3-3.47c4.03-10.72,6.08-21.98,6.08-33.45v-32.1h27.97
							c8.45,0,16.55-2.63,23.42-7.62c10.23-7.5,16.34-19.5,16.34-32.09c0-9.61-3.54-18.92-9.98-26.22c-0.88-1.02-1.79-1.98-2.8-2.9
							l-0.38-0.36c-7.32-6.6-16.76-10.23-26.61-10.23h-27.97v-69.03h27.97c20.2,0,39.91,5.57,56.99,16.11l0.43,0.33
							c32.17,19.99,51.36,54.46,51.36,92.29c0,34.2-15.67,65.74-42.99,86.53C2791.79,2401.91,2769.04,2409.58,2745.02,2409.58z
							 M2717,2404.46h28.02c22.88,0,44.56-7.31,62.69-21.15c26.04-19.81,40.97-49.87,40.97-82.46c0-36.19-18.43-69.15-49.31-88.16
							l-1.22-0.81c-16-9.58-34.34-14.64-53.13-14.64h-22.85v58.77h22.85c11,0,21.55,4.01,29.78,11.31l0.5,0.17l0.41,0.68
							c1.06,0.98,2.03,2.01,2.96,3.08c7.24,8.22,11.24,18.73,11.24,29.59c0,14.21-6.9,27.75-18.45,36.23
							c-7.76,5.63-16.9,8.61-26.44,8.61h-22.85v26.98C2722.18,2383.53,2720.44,2394.21,2717,2404.46z"/>
					</g>
				</g>
				<g>
					<g>
						<path class="st4" d="M2745.02,2421.77h-31.66c-4.84,0-9.37-2.38-12.12-6.35s-3.38-9.06-1.67-13.59
							c3.52-9.34,5.3-19.16,5.3-29.16v-29.54c0-8.14,6.6-14.75,14.75-14.75h25.41c15.21,0,27.58-12.35,27.58-27.53
							s-12.37-27.52-27.58-27.52h-25.41c-8.14,0-14.75-6.6-14.75-14.75v-63.9c0-8.14,6.6-14.75,14.75-14.75h25.41
							c66.7,0,120.97,54.24,120.97,120.92C2865.99,2367.52,2811.72,2421.77,2745.02,2421.77z M2732.64,2392.27h12.38
							c50.44,0,91.47-41.01,91.47-91.43c0-50.41-41.04-91.42-91.47-91.42h-10.66v34.41h10.66c31.47,0,57.07,25.58,57.07,57.02
							c0,31.44-25.6,57.02-57.07,57.02h-10.66v14.79C2734.36,2379.28,2733.78,2385.83,2732.64,2392.27z"/>
					</g>
				</g>
				<g class="st3">
					<path class="st4" d="M2773.49,2269.59c-7.52-6.83-17.5-11.01-28.46-11.01h-25.41v-63.9h25.41c20.4,0,39.47,5.75,55.64,15.73
						c0.05,0.05,0.05,0.1,0.05,0.1C2764.74,2206.23,2751.56,2244.22,2773.49,2269.59z"/>
				</g>
				<g class="st3">
					<path class="st4" d="M2809.27,2385.34c-17.84,13.62-40.11,21.68-64.24,21.68h-31.65c4.03-10.72,6.24-22.27,6.24-34.36v-29.54
						h25.41c9.34,0,17.94-3.05,24.92-8.11C2747.78,2368.29,2773.14,2391.98,2809.27,2385.34z"/>
				</g>
			</g>
			<g>
				<g>
					<path class="st6" d="M1613.04,1219.55c-8.06,42.92-45.47,74.04-89.19,74.04h-191.95c-43.64,0-81.06-31.11-89.19-74.04
						c-54.89-291.36-50.66-558.7,48.83-765.73c33.83-70.69,78.82-134.27,136.34-189.4c57.52,55.21,102.6,118.87,136.42,189.56
						C1663.7,660.92,1667.93,928.27,1613.04,1219.55z"/>
					<path class="st4" d="M1523.84,1296.15h-191.95c-44.78,0-83.35-32.01-91.71-76.12c-59.74-317.13-43.24-575.29,49.04-767.32
						c34.58-72.26,80.63-136.23,136.88-190.14l1.77-1.7l1.77,1.7c56.32,54.06,102.4,118.08,136.96,190.3
						c92.23,192,108.7,450.11,48.96,767.15l0,0C1607.28,1264.13,1568.71,1296.15,1523.84,1296.15z M1427.87,267.97
						c-55,53.12-100.08,116-134.03,186.95c-91.8,191.03-108.15,448.13-48.62,764.15c7.91,41.69,44.36,71.95,86.67,71.95h191.95
						c42.4,0,78.85-30.26,86.67-71.95l0,0c59.54-315.94,43.21-572.99-48.54-763.99C1528.05,384.18,1482.93,321.24,1427.87,267.97z"
						/>
				</g>
				<g>
					<path class="st22" d="M1647.77,910.67c195.11,295.16,194.76,508.75-55.87,352.1L1647.77,910.67z"/>
				</g>
				<g class="st5">
					<path class="st6" d="M1715.23,1314.88c52.58-35.74,22.66-168.74-78.1-337.55l10.61-66.7
						C1802.75,1145.11,1834.43,1328.13,1715.23,1314.88z"/>
				</g>
				<g>
					<path class="st22" d="M1264.48,1262.79c-58.64,36.62-103.55,53.05-135.55,52.81c-78.9-0.48-78.42-102.28-9.02-249.47
						c16.2-34.55,36.3-71.56,60.07-110.42c9.02-14.76,18.59-29.84,28.64-45.08l5.27,33.19l3.19,20.02l6.06,38.37L1264.48,1262.79z"
						/>
				</g>
				<g>
					<path class="st22" d="M1564.29,453.97c-0.32,91.27-272.77,91.19-272.77-0.16c33.83-70.69,78.82-134.27,136.34-189.4
						C1485.39,319.62,1530.46,383.29,1564.29,453.97z"/>
				</g>
				<g class="st5">
					<path class="st6" d="M1564.29,453.97c-0.08,26.89-23.85,45.87-57.28,56.88c5.82-6.86,9.41-14.92,10.37-24.17
						c-26.25-71.8-63.82-138.1-114.01-197.46c7.9-8.46,16.04-16.75,24.49-24.81C1485.39,319.62,1530.46,383.29,1564.29,453.97z"/>
				</g>
				<g class="st3">
					<path class="st4" d="M1608.65,1235.1c-13.16,34.7-46.59,58.48-84.81,58.48h-191.95c-43.64,0-81.06-31.11-89.19-74.04
						c-54.89-291.36-50.66-558.7,48.83-765.73c33.83-70.69,78.82-134.27,136.34-189.4c8.14,7.82,15.96,15.72,23.62,23.85
						c-24.73,33.51-45.95,69.25-64.06,107.07c-46.83,97.33-72.52,208.07-80.9,328.38c15.4-10.53,33.91-16.75,53.85-17.07
						c-19.71,17.87-32.07,43.64-32.07,72.36c0,54.01,43.8,97.73,97.73,97.73c0.56,0,1.04,0,1.6-0.08
						c-17.31,15.8-40.37,25.37-65.74,25.37c-0.3,0-0.6,0-0.9,0c-29.82-0.27-53.79,24.19-51.19,53.89
						c5.83,66.66,15.57,135.18,28.79,205.16c8.14,42.92,45.55,74.04,89.19,74.04H1608.65z"/>
				</g>
				<g>
					<path class="st23" d="M1552.16,1413.25c-83.25,26.85-167.33,26.34-252.19,0l31.91-119.67h188.36L1552.16,1413.25z"/>
					<path class="st24" d="M1427.27,1435.64c-42.38,0-85.16-6.65-128.05-19.97c-1.3-0.4-2.05-1.76-1.7-3.07l31.91-119.67
						c0.3-1.11,1.3-1.88,2.45-1.88h188.36c1.15,0,2.15,0.77,2.45,1.88l31.91,119.67c0.35,1.3-0.39,2.65-1.67,3.06
						C1511.66,1428.98,1469.66,1435.64,1427.27,1435.64z M1303.05,1411.55c83.19,25.35,165.94,25.36,246.04,0.02l-30.79-115.46
						h-184.47L1303.05,1411.55z"/>
				</g>
				<g class="st3">
					<path class="st4" d="M1467.36,1431.2c-55.45,5.58-111.21-0.56-167.38-17.95l31.91-119.67h76.67l-31.83,119.35
						C1407.04,1422.35,1437.2,1428.49,1467.36,1431.2z"/>
				</g>
				<g class="st5">
					<path class="st6" d="M1448.21,1432.64c19.79-3.27,39.49-8.06,59.12-14.44l-31.91-119.59h-144.88l1.36-5.03h188.36l31.91,119.67
						C1517.7,1424.42,1482.99,1430.81,1448.21,1432.64z"/>
				</g>
				<g>
					<path class="st4" d="M1523.87,1311.17h-191.98c-52.03,0-96.8-37.17-106.45-88.37c-83.54-443.18-19.53-769.9,190.27-971.07
						c6.81-6.52,17.54-6.52,24.35,0c209.79,201.17,273.8,527.89,190.26,971.07C1620.67,1274,1575.9,1311.17,1523.87,1311.17z
						 M1427.88,289.11c-190.93,193.44-247.41,505.24-167.88,927.18c6.52,34.6,36.76,59.72,71.89,59.72h191.98
						c35.13,0,65.37-25.11,71.89-59.72C1675.29,794.35,1618.8,482.55,1427.88,289.11z"/>
				</g>
				<g class="st3">
					<path class="st4" d="M1119.91,1066.13c16.2-34.55,36.3-71.56,60.07-110.42c13.16-5.19,25.37-9.41,33.91-11.89
						c7.1-2.15,11.81-3.11,12.53-2.63c1.68,1.2-4.15,11.17-9.33,22.66c-6.94,15.32-12.53,33.43,2.63,37.18
						c1.04,0.24,2.15,0.64,3.43,1.2l41.33,260.56c-58.64,36.62-103.55,53.05-135.55,52.81
						C1213.73,1238.45,1188.21,1153.73,1119.91,1066.13z"/>
				</g>
				<g>
					<path class="st4" d="M1427.28,1450.7c-43.88,0-88.14-6.88-132.51-20.65c-9.01-2.8-14.21-12.21-11.78-21.33l31.91-119.67
						c2.05-7.7,9.02-13.05,16.99-13.05h188.36c7.97,0,14.94,5.36,16.99,13.05l31.91,119.67c2.41,9.05-2.69,18.4-11.6,21.27
						C1514.75,1443.8,1471.21,1450.7,1427.28,1450.7z M1321.4,1401.16c70.74,19.07,141.04,19.12,209.38,0.15l-24.03-90.14H1345.4
						L1321.4,1401.16z"/>
				</g>
				<g>
					<path class="st4" d="M1727.17,1333.44c-36.81,0-85.15-18.61-144.59-55.76c-8.24-5.15-10.74-16-5.59-24.23
						c5.15-8.23,16-10.73,24.23-5.59c76.77,47.98,133.49,62.48,155.61,39.77c35.25-36.16,4.07-173.92-123.73-367.26
						c-5.35-8.1-3.12-19.01,4.98-24.37c8.1-5.36,19.01-3.13,24.37,4.97c127.75,193.26,174.69,354.67,119.57,411.21
						C1768.2,1326.36,1749.88,1333.44,1727.17,1333.44z"/>
				</g>
				<g>
					<path class="st4" d="M1129.54,1333.44c-22.71,0-41.03-7.08-54.85-21.27c-54.93-56.35-8.37-217.2,118.62-409.78
						c5.36-8.11,16.25-10.35,24.37-5c8.11,5.35,10.35,16.25,5,24.36c-127.01,192.6-157.92,329.84-122.8,365.87
						c22.06,22.63,78.54,8.29,154.98-39.36c8.23-5.14,19.09-2.62,24.22,5.62c5.14,8.24,2.62,19.09-5.62,24.23
						C1214.33,1314.97,1166.21,1333.44,1129.54,1333.44z"/>
				</g>
				<g>
					<circle class="st23" cx="1426.07" cy="779" r="97.73"/>
					<path class="st24" d="M1426.07,879.26c-55.29,0-100.26-44.98-100.26-100.27c0-55.29,44.98-100.26,100.26-100.26
						s100.26,44.98,100.26,100.26C1526.33,834.29,1481.36,879.26,1426.07,879.26z M1426.07,683.8c-52.49,0-95.2,42.71-95.2,95.2
						c0,52.49,42.71,95.2,95.2,95.2s95.2-42.71,95.2-95.2C1521.26,726.51,1478.56,683.8,1426.07,683.8z"/>
				</g>
				<g class="st5">
					<path class="st6" d="M1523.76,779c0,47.23-33.51,86.64-78.03,95.74c24.97-17.71,41.25-46.83,41.25-79.78
						c0-5.42-0.4-10.69-1.28-15.8c-22.98,5.27-38.13-31.03-19.23-44.04c-17.87-23.06-45.79-37.9-77.23-37.9
						c-6.7,0-13.24,0.64-19.63,1.99c15.96-11.33,35.42-17.95,56.4-17.95C1480.04,681.27,1523.76,724.99,1523.76,779z"/>
				</g>
				<g class="st3">
					<path class="st4" d="M1485.39,856.63c-16.43,12.61-36.94,20.1-59.36,20.1c-53.93,0-97.73-43.72-97.73-97.73
						c0-52.5,41.41-95.26,93.26-97.57c-23.38,17.87-38.37,45.95-38.37,77.63c0,54.01,43.72,97.73,97.73,97.73
						C1482.44,856.78,1483.95,856.78,1485.39,856.63z"/>
				</g>
				<g>
					<path class="st4" d="M1426.07,894.32c-63.58,0-115.32-51.73-115.32-115.32s51.73-115.31,115.32-115.31
						s115.32,51.73,115.32,115.31S1489.65,894.32,1426.07,894.32z M1426.07,698.85c-44.19,0-80.14,35.95-80.14,80.14
						s35.95,80.15,80.14,80.15s80.14-35.95,80.14-80.15S1470.26,698.85,1426.07,698.85z"/>
				</g>
				<g>
					<path class="st4" d="M1427.89,539.96c-38.15,0-74-6.63-100.95-18.66c-34.2-15.28-53.04-39.24-53.04-67.46
						c0-9.71,7.88-17.59,17.59-17.59s17.59,7.87,17.59,17.59c0,31.9,60.41,50.95,118.81,50.95s118.81-19.06,118.81-50.95
						c0-9.71,7.88-17.59,17.59-17.59s17.59,7.87,17.59,17.59C1581.87,513.33,1504.53,539.96,1427.89,539.96z"/>
				</g>
			</g>
			<g>
				<g>
					<path class="st4" d="M3044.07,2678.84c-57.45,8.8-114.9,10.91-172.34,11.99c-28.72,0.59-57.45,0.71-86.17,0.56
						c-28.73,0.04-57.45-0.36-86.17-0.65l-86.17-0.53l-86.17-0.03H2354.7h-689.37H975.96H631.27l-86.17,0.03l-43.09,0.41l-43.09,0.7
						c-28.72,0.37-57.45-0.2-86.17-1.63c-28.72-1.84-57.45-4.43-86.17-10.85c-3.13-0.7-5.1-3.8-4.4-6.93
						c0.51-2.26,2.28-3.92,4.4-4.4c28.73-6.42,57.45-9.01,86.17-10.85c28.73-1.43,57.45-1.99,86.17-1.63l43.09,0.7l43.09,0.41
						l86.17,0.03h344.69h689.37h689.37h172.34l86.17-0.03l86.17-0.53c28.72-0.29,57.45-0.69,86.17-0.65
						c28.72-0.15,57.45-0.04,86.17,0.56c57.45,1.08,114.9,3.19,172.34,11.99c3.13,0.48,5.28,3.4,4.8,6.53
						C3048.48,2676.58,3046.48,2678.47,3044.07,2678.84z"/>
				</g>
				<g class="st3">
					<path class="st4" d="M3216.74,2700.54c0,32.84-693.95,59.46-1549.9,59.46c-856,0-1549.9-26.62-1549.9-59.46
						c0-9.85,62.69-19.18,173.58-27.37h2752.64C3154.05,2681.36,3216.74,2690.69,3216.74,2700.54z"/>
				</g>
			</g>
			<g>
				<path class="st6" d="M2433.99,610.64c0,4.21-0.29,8.37-0.83,12.45c-0.85,6.38-6.52,11.03-12.96,11.03h-496.57
					c-8.66,0-14.41-8.69-11.38-16.8c9.15-24.52,32.79-42.02,60.51-42.02c0.97,0,1.94,0,2.82,0.08c-2.12-11.07-3.08-22.56-2.76-34.35
					c2.15-79.82,65.12-147.02,144.67-153.93c89.35-7.77,165.04,58.45,172.55,144.3c14.52-9.28,31.71-14.61,50.19-14.61
					C2392.03,516.8,2433.99,558.84,2433.99,610.64z"/>
			</g>
		</g>
	</g>
</g>
</svg>
