<svg xmlns="http://www.w3.org/2000/svg" xmlns:xlink="http://www.w3.org/1999/xlink" viewBox="0 0 4680 3120"><defs><style>.cls-1{fill:#8d7fd3;}.cls-2{fill:#b9ace5;}.cls-3{fill:#fff;}.cls-4{fill:#ffa89c;}.cls-5{fill:#d9f8ff;}.cls-6{fill:#ffd0a1;}.cls-7{fill:#6170af;}.cls-8{fill:#6187ad;}.cls-9{fill:#fda949;}.cls-10{fill:#2b4899;}.cls-11{fill:#556fce;}.cls-12{fill:#7925a0;}.cls-13{fill:#ff9885;}.cls-14{fill:#282368;}.cls-15{fill:#ae94ff;}.cls-16{fill:#000644;}.cls-17{fill:#6256a5;}.cls-18{fill:#765eb7;}.cls-19{fill:#a785f9;}.cls-20{fill:#cedaef;}.cls-21{fill:#121d4f;}.cls-22{fill:#2c3576;}.cls-23{fill:#7c5fd6;}.cls-24{opacity:0.7;}.cls-25{fill:#d7fffc;}.cls-26{clip-path:url(#clip-path);}.cls-27{fill:#2d4260;}.cls-28{clip-path:url(#clip-path-2);}.cls-29{fill:#8190c6;}.cls-30{clip-path:url(#clip-path-3);}.cls-31{opacity:0.38;}.cls-32{fill:#c9514b;}.cls-33{clip-path:url(#clip-path-4);}.cls-34{fill:#e0665a;}.cls-35{opacity:0.46;}.cls-36{fill:#ffe4e1;}.cls-37{clip-path:url(#clip-path-5);}.cls-38{opacity:0.25;}.cls-39{clip-path:url(#clip-path-6);}.cls-40{clip-path:url(#clip-path-7);}.cls-41{fill:#554aa0;}.cls-42{clip-path:url(#clip-path-8);}.cls-43{fill:#a82d2a;}.cls-44{clip-path:url(#clip-path-9);}.cls-45{fill:#6945d8;}.cls-46{clip-path:url(#clip-path-10);}.cls-47{fill:#e58423;}.cls-48{opacity:0.31;}.cls-49{clip-path:url(#clip-path-11);}.cls-50{fill:#5f4faf;}.cls-51{clip-path:url(#clip-path-12);}.cls-52{fill:#ed7a6b;}.cls-53{clip-path:url(#clip-path-13);}.cls-54{clip-path:url(#clip-path-14);}.cls-55{opacity:0.57;}.cls-56{fill:#f77e6d;}.cls-57{fill:#ff674b;}.cls-58{fill:#121b47;}.cls-59{fill:#858ba0;}.cls-60{clip-path:url(#clip-path-15);}.cls-61{opacity:0.65;}.cls-62{fill:#fff0c0;}.cls-63{clip-path:url(#clip-path-16);}.cls-64{fill:#ffe3ca;}.cls-65{clip-path:url(#clip-path-17);}.cls-66{opacity:0.32;}.cls-67{opacity:0.42;}.cls-68{clip-path:url(#clip-path-18);}.cls-69{fill:#38487c;}.cls-70{fill:#283b77;}.cls-71{clip-path:url(#clip-path-19);}.cls-72{fill:#cae6ff;}.cls-73{opacity:0.27;}.cls-74{opacity:0.67;}.cls-75{fill:#fdfeff;}.cls-76{clip-path:url(#clip-path-20);}.cls-77{fill:#c16810;}.cls-78{clip-path:url(#clip-path-21);}.cls-79{fill:#0a264f;}.cls-80{clip-path:url(#clip-path-22);}.cls-81{fill:#193268;}.cls-82{clip-path:url(#clip-path-23);}.cls-83{opacity:0.59;}.cls-84{clip-path:url(#clip-path-24);}.cls-85{opacity:0.4;}.cls-86{fill:#606ca0;}.cls-87{clip-path:url(#clip-path-25);}.cls-88{fill:#520b77;}.cls-89{clip-path:url(#clip-path-26);}.cls-90{clip-path:url(#clip-path-27);}.cls-91{fill:#121144;}.cls-92{clip-path:url(#clip-path-28);}.cls-93{opacity:0.71;}</style><clipPath id="clip-path"><path class="cls-1" d="M3409.49,2476.6c43.76-88.89,102.56-147.69,309.06-192.82C3689.83,2400,3553.08,2598.31,3378,2647.54,3382.14,2529.93,3409.49,2476.6,3409.49,2476.6Z"/></clipPath><clipPath id="clip-path-2"><path class="cls-2" d="M3375.76,2654.38s45.12-226.56,165.47-376.07,67.46-238.86-5.47-226.1-138.58,116.7-191.46,302.68-36.46,299-36.46,299Z"/></clipPath><clipPath id="clip-path-3"><rect class="cls-5" x="1376.56" y="498.49" width="1866.08" height="1210.52" rx="118.9"/></clipPath><clipPath id="clip-path-4"><path class="cls-4" d="M2739.38,1139.61c-6.27-3.19-7.39-4.19-7.45-6.72s.53-3.74,6.69-7.07c14.48-7.85,27.94-23.55,36.92-43.07s12.17-39.84,8.85-56c-9.58-46.54-48.52-79-94.69-79a103.36,103.36,0,0,0-38.6,7.62,17.92,17.92,0,0,1-6.19,1.59,4.22,4.22,0,0,1-3.5-1.74c-1.59-1.8-2.4-3.46.83-9.88,4.24-8.42,8.62-17.46,11.49-27.19,11-37.25,2.28-69.93-25.17-94.52-20-17.92-41.21-27-63-27a85.64,85.64,0,0,0-31.85,6.39c-9,3.61-16.89,9.19-24.51,14.59-4.67,3.3-9.08,6.43-13.68,9.09-3.25,1.88-6.92,3.14-9.15,3.14h-.06c-1.2-1.78-2.7-6.28-3.37-8.32l-.05-.15a26.85,26.85,0,0,1-.81-6.56,60.18,60.18,0,0,0-.53-6.19c-5.72-37.68-23-63-52.92-77.35a92.85,92.85,0,0,0-40.51-9.32c-40.53,0-76.37,25.72-91.31,65.53-2.81,7.49-4.33,7.84-7,7.84v3.78h0l0-3.78c-2.12,0-3.8,0-6.29-7.21-14.08-40.68-48.91-66-90.9-66a107.58,107.58,0,0,0-11.43.61c-42.55,4.47-77.16,40.34-82.3,85.28a32.52,32.52,0,0,0,5.19,20.62c13.14,19.49,19.72,37.12,20.7,55.49.36,6.76.27,13.53.17,20.69,0,3.24-.09,6.59-.09,9.95v5.14l4.66,1.84.11.05a12.73,12.73,0,0,0,3.95,1.3A97.71,97.71,0,0,1,2195.21,957a95,95,0,0,1,21.93,63.57c-1.7-3.92-3.2-8-4.79-12.2-3.13-8.36-6.36-17-11.19-24.92-16-26.18-40.31-42.17-72.31-47.54a25,25,0,0,0-4.22-.38c-6.25,0-11.14,2.92-14.92,8.94a108.9,108.9,0,0,1-11.64,15.09c1.37-3.91,2.9-7.85,4.38-11.69a222.32,222.32,0,0,0,8-23.21,100.53,100.53,0,0,0-15.23-84.43,97,97,0,0,0-72.07-40.75c-2.34-.17-4.71-.25-7-.25-32.44,0-61.15,16.42-78.75,45S1917.42,907.1,1931,934c2.85,5.64,3.11,8.94,2.46,10-.14.26-1.68,2.5-10.29,3-28.26,1.49-54.38,15.83-71.67,39.33-17.43,23.69-23.38,53.17-16.31,80.89,1.47,5.76,4.71,13.41,15.89,13.41.85,0,1.76,0,2.77-.12,2.54-.19,5.11-.29,7.65-.29a96.2,96.2,0,0,1,59.72,20.76,93.74,93.74,0,0,1,30.16,42.64l-1.13-1.69c-4.49-6.73-9.13-13.69-15.27-19.52-21.75-20.68-44.75-31.16-68.36-31.16a89,89,0,0,0-31.62,6.06c-37.81,14.37-59,44.21-61.23,86.31-1.84,34.51,13.8,61.8,46.49,81.11,17.18,10.15,36.8,14.81,63.63,15.1s53.81.35,80,.4l15.34,0q15.27,0,30.53,0h54.88l1.07-6.29c.08-.5.17-.92.24-1.28a16.26,16.26,0,0,0,.43-3.55c0-2.2-.16-4.34-.38-6.35-5.26-49.06,10.78-88.35,49-120.14,4.55-3.78,8.66-12.08,7.37-18.9-10.44-55.25-42.19-89.11-94.37-100.63a113,113,0,0,0-24.42-2.63,142.58,142.58,0,0,0-35.05,4.65,119.58,119.58,0,0,1,47.3-9.84c45.37,0,86.64,25.81,105.13,65.76,4,8.54,7.13,17.35,10.49,26.68,1.54,4.27,3.13,8.68,4.79,13l2.5,6.55,6.72-2c24.29-7.27,49.38-7.87,75.09-7.87l8.21,0h8.29c11.43,0,23.71-.12,36-1l12-.84-6-10.45c-.47-.82-.85-1.51-1.18-2.11a38.82,38.82,0,0,0-2.08-3.47c-29.85-42.67-30.86-80.92-3.25-124,6.6-10.31,3.48-17.59-.88-23.91a94,94,0,0,1-16.36-60.08A92.23,92.23,0,0,1,2273,843.94l-.06.11c-1.32,2.79-2.68,5.67-3.87,8.69-12,30.41-8.22,62.32,10.53,89.86,18.95,27.81,50.06,45.78,79.28,45.78l2,0c20-.56,36.75-3.65,51.58-9.58a55.67,55.67,0,0,1-12.57,9.44,93.21,93.21,0,0,1-42.56,10.41,94.77,94.77,0,0,1-24.53-3.28c-9.06-2.42-17.86-6.67-27.18-11.15-4.37-2.11-8.89-4.29-13.56-6.33l-5.91-2.59-3.48,5.44c-10,15.63-22.6,39.92-16.91,70.21,4.35,23.12,16.6,42.7,37.45,59.86a30.53,30.53,0,0,0,18.06,6.67c22,.37,44.36.37,66,.37h21.91c10.13,0,10.15,2.77,10.18,5.67,0,2.6,0,5.54-10.29,5.67-1.11,0-2.22,0-3.33,0h-4.1q-26.67-.06-53.33-.17c-30.79-.12-62.63-.24-93.95-.24-15.15,0-29,0-42.47.09h-4c-20,0-40.58.08-60.28,8.62-37.43,16.22-63.58,49.13-69.95,88-6.41,39.15,8,79,38.57,106.51,22.12,19.94,50.1,29.24,88.06,29.27,59.82,0,120.63,0,179.44,0,99.88,0,203.15,0,304.74.25h.29c26,0,49.14-7.86,70.76-24,31.09-23.24,47.59-61.15,44.13-101.41C2800,1194.32,2776,1158.23,2739.38,1139.61Z"/></clipPath><clipPath id="clip-path-5"><path class="cls-4" d="M2314.26,1372.86H2298l10.54,12.43c1.44,1.69,2.67,3.21,3.75,4.56a69.32,69.32,0,0,0,6.27,7.09c57.63,54.52,121.95,82.16,191.17,82.16a281.5,281.5,0,0,0,42-3.23c51.85-7.86,93.48-35.15,123.73-81.12a58.09,58.09,0,0,0,3.88-7.31c.54-1.14,1.1-2.35,1.75-3.63l5.53-11H2314.26Z"/></clipPath><clipPath id="clip-path-6"><rect class="cls-16" x="2771.98" y="2301.55" width="25.65" height="286.95"/></clipPath><clipPath id="clip-path-7"><path class="cls-17" d="M2523.73,2240.32h0a39.06,39.06,0,0,0,39.06,39.06h441.8c54.78,0,110.87-96.52,132.39-146.74s55.43-246.3,56.3-333.25c.23-23.54.34-45,.38-63.73a81.36,81.36,0,0,0-81.37-81.49H2946.82a81.36,81.36,0,0,0-81.36,81.36v50.81c0,13.05-4.35,120.87-33,230.43s-46.09,160-167.82,183.48c-40.15,0-76.54.7-102.28,1A39.06,39.06,0,0,0,2523.73,2240.32Z"/></clipPath><clipPath id="clip-path-8"><rect class="cls-18" x="2523.73" y="2198.76" width="511.34" height="80.61" rx="40.31"/></clipPath><clipPath id="clip-path-9"><path class="cls-19" d="M2986.05,1919.07l25.76,84.8s15.87,44.62,15.63,102.79c-.36,89-59.15,107.76-156.14,90.12-72.05-13.1-71.93,21-71.93,21L2828.78,2322s-142.88,72.24-238.24,17.36c-27.25-156.54-34.48-233.18-7.34-271.69s203.47-101.36,203.47-101.36l-18.75-68.11Z"/></clipPath><clipPath id="clip-path-10"><path class="cls-9" d="M2823.14,1481.55s-33-23.14-22.18-64.3,52-36.06,52-36.06,36.38-38,91-11.81c34.78,3.83,51,41.17,60.63,120.63,7.34,51.69,60.31,130.35,135,122.21-79,132.11-247.71,109.14-247.71,109.14s23-49.54,2.88-138.57S2823.14,1481.55,2823.14,1481.55Z"/></clipPath><clipPath id="clip-path-11"><path class="cls-3" d="M2929.64,1518.88s2.47,68.77,6.78,74,80.65,23,98.36,35.42,5.19,75.79-6.78,150.46-31.11,166.57-31.11,166.57-49.78,35.18-209.17,14.36c-7.9-48.11-20.83-114.16-20.83-114.16l-61-10.77s23.7-102,36.62-142.16,22.74-78.5,51.14-83.29,64.78-7.34,69.88-15.32-.64-49.14-.64-49.14l57.12-36.38Z"/></clipPath><clipPath id="clip-path-12"><path class="cls-4" d="M3100.28,1805.59S3128,1891,3118,1906.76s-133.87,37.58-235.34,26.34c-54.73-5-137.16-21.72-137.16-21.72s274.37-49.78,274.85-57.91-8.61-25.85-8.61-25.85S3101.08,1805.26,3100.28,1805.59Z"/></clipPath><clipPath id="clip-path-13"><path class="cls-3" d="M3028.8,1627.86c42.59,4.26,81.29,191.86,81.29,191.86s-50.26,47.39-102,25.85c-20.11-91.9-24.33-139.85-27.85-157.08S2993.7,1624.35,3028.8,1627.86Z"/></clipPath><clipPath id="clip-path-14"><path class="cls-4" d="M2813.58,1462.62s0,54.25,5.58,86.19,45.38,30.68,72.51,13.69,29.91-34.22,29.91-34.22,18,6.33,19.77-17.75-10.14-35-22-27.38c-4.06-15.21-13.1-4.14-25.27-33.21s-37.18-33.13-38.53-12.17S2837.24,1473.94,2813.58,1462.62Z"/></clipPath><clipPath id="clip-path-15"><rect class="cls-5" x="929.68" y="765.95" width="645.54" height="839.9" rx="65.23"/></clipPath><clipPath id="clip-path-16"><rect class="cls-5" x="3069.17" y="605.37" width="645.54" height="459.21" rx="62.06"/></clipPath><clipPath id="clip-path-17"><path class="cls-6" d="M2386.4,1925h369.67c8.23,0,13.36-6.68,11.46-14.91L2709.94,1661c-1.91-8.23-10.12-14.91-18.36-14.91H2321.92c-8.24,0-13.37,6.68-11.46,14.91l57.59,249.06C2370,1918.29,2378.17,1925,2386.4,1925Z"/></clipPath><clipPath id="clip-path-18"><rect class="cls-7" x="2068.76" y="1860.83" width="123.77" height="64.49"/></clipPath><clipPath id="clip-path-19"><rect class="cls-8" x="1867.25" y="1503.66" width="536.17" height="360.57" rx="49.09"/></clipPath><clipPath id="clip-path-20"><path class="cls-9" d="M2171.66,2398.15s3.12,54.77,14.57,76.25,92.36,47.24,117.36,57.53,28.63,51.63,24.27,70.86-51.26,26.22-101.39,16-95,1.6-113.8-10.68-22-34.34-18.25-84.89-15.22-107.58-15.22-107.58Z"/></clipPath><clipPath id="clip-path-21"><path class="cls-9" d="M2395.33,2408.72s14.4,52.93,30,71.57,100.15,27.09,126.74,32,38.71,44.58,38.42,64.29-44.71,36.28-95.88,36.64-92.63,21.26-113.54,13.14-28.6-29-35.44-79.28S2308.49,2445,2308.49,2445Z"/></clipPath><clipPath id="clip-path-22"><path class="cls-10" d="M2046.06,2046.93s122.75,35.54,186.55,48.46,78.29,66.22,102.95,114.68S2459,2475,2459,2475s-48.05,64.14-134.19,39.38c-138.55-223.63-69.5-195.73-123.92-226-9.7-5.39-277-67.27-277-67.27Z"/></clipPath><clipPath id="clip-path-23"><path class="cls-11" d="M1822.75,1624.13s64.35,11.2,109.77,24.12,35.2,199.21,36.81,252.51,19.39,134.06,103.38,142.14c-9.69,75.1-32.31,166.36-90.45,182.51s-224.52,26.52-269.74-74.1-77.8-390-83.19-443.57,12.66-66.13,22.71-78.69S1782,1614.42,1782,1614.42Z"/></clipPath><clipPath id="clip-path-24"><path class="cls-11" d="M1898.8,1688.09c5.12-24.79,22.9-36.54,40.26-36.54s48.31,40.58,48.85,102.49,9.48,137.57,22.37,159.64c65.66,4.85,189.49,0,189.49,0s22.61,46.84,5.38,85.61c-107.68,20.45-254.12,43.61-274,21.53s-24.23-63-32.31-120.06S1884.8,1755.93,1898.8,1688.09Z"/></clipPath><clipPath id="clip-path-25"><path class="cls-12" d="M1873.8,1471.12s37.15-8.89,35.26-41.73-31.76-31-31.76-31,10.23-10.33,2.69-25-28-9.78-28-9.78,18-21.26,11.4-32.21c-5.63-9.27-24.59-2.78-39.31,4.31-22,10.6-54.73-4.94-73,2.6a32.09,32.09,0,0,0-19.92,25s-54.38,6.56-64.07,58.46,45.77,148.28,81.84,148.28,37.15-10.77,62.45-45.22S1873.8,1471.12,1873.8,1471.12Z"/></clipPath><clipPath id="clip-path-26"><path class="cls-13" d="M1863.53,1456.4s3.73,46.66,7.16,80.4-4.36,45.58-17.75,49.53-67.25-11.12-68.74-37.17c-11.83-3.23-30-3.3-30.27-27.39s19-32,25.22-15.84c-2.8-29.79-4.36-75.37,31.76-59.94C1832.7,1465,1859.17,1462.5,1863.53,1456.4Z"/></clipPath><clipPath id="clip-path-27"><rect class="cls-14" x="1780.47" y="2301.55" width="25.65" height="286.95" transform="translate(3586.58 4890.05) rotate(-180)"/></clipPath><clipPath id="clip-path-28"><path class="cls-15" d="M2054.37,2240.32h0a39.06,39.06,0,0,1-39.06,39.06h-441.8c-54.78,0-110.86-96.52-132.38-146.74s-55.44-246.3-56.31-333.25c-.23-23.54-.34-45-.37-63.73a81.35,81.35,0,0,1,81.36-81.49h165.47a81.36,81.36,0,0,1,81.36,81.36v50.81c0,13.05,4.35,120.87,33,230.43s46.09,160,167.83,183.48c40.14,0,76.54.7,102.27,1A39.06,39.06,0,0,1,2054.37,2240.32Z"/></clipPath></defs><title>05</title><g id="_05" data-name="05"><rect id="_05-2" data-name="05" class="cls-20" width="4680" height="3120"/><path class="cls-21" d="M960.1,2592.41c-30.7,8.19-71.43,14.19-91.17-3.75-19.4-17.64-39.29-73.14-53.19-148.47-15.19-82.22-22.35-180.2-20.16-275.91,1.2-53,6.93-95.3,17-125.83,7.47-22.64,17.15-38.45,28.78-47,12.52-9.2,22.73-6.4,23.16-6.27l1.32-4.39-1.36,4.38,1.36-4.38,1.36-4.37c-.59-.19-14.59-4.34-30.83,7.34-13.29,9.55-24.16,26.8-32.31,51.27-10.48,31.44-16.42,74.85-17.65,129-2.2,96.32,5,195,20.31,277.78,14.47,78.39,34.9,134.37,56,153.59,11.27,10.24,27.64,14,45.76,14,50.93,0,115.6-30.07,119.26-31.79l-3.9-8.29A431,431,0,0,1,960.1,2592.41Z"/><path class="cls-21" d="M869.6,2607.86c-55.65-42.78-51-182.93-47.59-285.26,4.82-145.12,46.91-166.8,47.34-167a2.85,2.85,0,0,1-.69.18l-1.41-9.05c-4.14.65-16.34,9.53-27.63,32.84-15.69,32.43-24.7,80.45-26.77,142.72-1.61,48.54-3.82,115,2.19,170.41,6.76,62.23,22.78,102.28,49,122.41,13,10,28.58,15,46.52,15q16.92,0,36.6-5.94l-2.65-8.77C913.06,2624.91,888.57,2622.44,869.6,2607.86Z"/><path class="cls-21" d="M888.53,2588.8c-25.65-20.07-39.55-57.94-39.15-106.65.68-83,24-145.26,24.26-145.88l-8.56-3.26c-.24.63-24.16,64.31-24.86,149.06-.43,51.62,14.72,92.09,42.66,113.94,15.08,11.8,33.58,17.77,54.53,17.77a131.62,131.62,0,0,0,32.73-4.4l-2.28-8.87C935.71,2608.77,909,2604.83,888.53,2588.8Z"/><rect class="cls-22" x="929.38" y="1996.3" width="566.92" height="626.56"/><rect class="cls-23" x="879.95" y="1905.9" width="667.65" height="156.26" rx="20.66"/><rect class="cls-19" x="858.85" y="1949.38" width="711.13" height="62.85"/><g class="cls-24"><path class="cls-25" d="M1537.27,1967.89H1157.6a12.91,12.91,0,1,0,0,25.82h379.67a12.91,12.91,0,1,0,0-25.82Z"/></g><circle class="cls-3" cx="925.43" cy="1981.52" r="20.38"/><g class="cls-24"><circle class="cls-25" cx="1010.02" cy="1981.52" r="20.38"/></g><circle class="cls-3" cx="1094.61" cy="1981.52" r="20.38"/><rect class="cls-23" x="879.95" y="2076.36" width="667.65" height="156.26" rx="20.66"/><rect class="cls-19" x="858.85" y="2119.84" width="711.13" height="62.85"/><g class="cls-24"><path class="cls-25" d="M1537.27,2138.35H1157.6a12.91,12.91,0,0,0-12.92,12.92h0a12.91,12.91,0,0,0,12.92,12.91h379.67a12.91,12.91,0,0,0,12.91-12.91h0A12.91,12.91,0,0,0,1537.27,2138.35Z"/></g><circle class="cls-3" cx="925.43" cy="2151.98" r="20.38"/><g class="cls-24"><circle class="cls-25" cx="1010.02" cy="2151.98" r="20.38"/></g><circle class="cls-3" cx="1094.61" cy="2151.98" r="20.38"/><rect class="cls-23" x="879.95" y="2246.83" width="667.65" height="156.26" rx="20.66"/><rect class="cls-19" x="858.85" y="2290.31" width="711.13" height="62.85"/><g class="cls-24"><path class="cls-25" d="M1537.27,2308.82H1157.6a12.91,12.91,0,0,0-12.92,12.91h0a12.91,12.91,0,0,0,12.92,12.91h379.67a12.91,12.91,0,0,0,12.91-12.91h0A12.91,12.91,0,0,0,1537.27,2308.82Z"/></g><circle class="cls-3" cx="925.43" cy="2322.45" r="20.38"/><g class="cls-24"><circle class="cls-25" cx="1010.02" cy="2322.45" r="20.38"/></g><circle class="cls-3" cx="1094.61" cy="2322.45" r="20.38"/><rect class="cls-23" x="879.95" y="2417.29" width="667.65" height="156.26" rx="20.66"/><rect class="cls-19" x="858.85" y="2460.77" width="711.13" height="62.85"/><g class="cls-24"><path class="cls-25" d="M1537.27,2479.28H1157.6a12.92,12.92,0,1,0,0,25.83h379.67a12.92,12.92,0,0,0,0-25.83Z"/></g><circle class="cls-3" cx="925.43" cy="2492.91" r="20.38"/><g class="cls-24"><circle class="cls-25" cx="1010.02" cy="2492.91" r="20.38"/></g><circle class="cls-3" cx="1094.61" cy="2492.91" r="20.38"/><path class="cls-1" d="M3409.49,2476.6c43.76-88.89,102.56-147.69,309.06-192.82C3689.83,2400,3553.08,2598.31,3378,2647.54,3382.14,2529.93,3409.49,2476.6,3409.49,2476.6Z"/><g class="cls-26"><path d="M3594.37,2381.67c-7.36,4.71-14.59,9.62-21.79,14.57a778.25,778.25,0,0,0-82.3,65.1c-25.86,23.62-50,49.33-70.82,77.63a351.79,351.79,0,0,0-28.09,44.5,251.62,251.62,0,0,0-19.72,48.57c13.15-32.35,32-61.67,53.49-88.73,1.32-1.7,2.7-3.37,4.07-5s2.73-3.35,4.15-5l4.17-5,4.25-4.89c5.7-6.49,11.52-12.89,17.53-19.11q17.93-18.73,37.15-36.23c25.58-23.34,52.51-45.24,80.28-66.08,6.93-5.23,14-10.31,21-15.42s14.15-10.1,21.3-15q21.39-14.92,43.45-29c-15.7,7.63-30.88,16.29-45.88,25.22Q3605.38,2374.56,3594.37,2381.67Z"/></g><path class="cls-27" d="M3345,2111.87l-8.77-2.62c-47.24,157.76-60.63,299-63.55,389.77-3.17,98.38,5,160.37,5.05,161l9.08-1.22c-.08-.61-8.12-61.83-5-159.47C3284.78,2409.12,3298.09,2268.7,3345,2111.87Z"/><circle class="cls-3" cx="3350.23" cy="2081.84" r="37.83"/><path class="cls-2" d="M3375.76,2654.38s45.12-226.56,165.47-376.07,67.46-238.86-5.47-226.1-138.58,116.7-191.46,302.68-36.46,299-36.46,299Z"/><g class="cls-28"><path d="M3448.81,2245.12c-24.56,42.18-47.43,85.49-65.92,131-2.34,5.67-4.43,11.44-6.59,17.19-1.07,2.88-2,5.81-3,8.71l-1.5,4.35c-.49,1.46-.93,2.94-1.4,4.41-.91,2.94-1.86,5.86-2.73,8.82l-2.47,8.93c-.43,1.48-.79,3-1.13,4.46l-1.07,4.47-2.11,9c-1.47,5.95-2.61,12-3.82,18l-1.81,9c-.62,3-1.07,6-1.61,9l-1.56,9c-.52,3-1.06,6-1.46,9.06l-2.53,18.17-2.13,18.22c-.63,6.08-1.18,12.17-1.72,18.25s-.88,12.19-1.32,18.28-.66,12.2-1,18.29-.39,12.21-.52,18.31-.23,12.2-.13,18.31c.06,12.2.35,24.4,1.22,36.56.06-6.09.23-12.18.47-18.26s.48-12.17.85-18.24.74-12.14,1.13-18.21,1-12.12,1.47-18.18,1.08-12.1,1.73-18.14,1.29-12.08,2-18.11l2.32-18.06,2.64-18,3-17.94c.27-1.49.48-3,.77-4.48l.85-4.46,1.7-8.93c.59-3,1.09-6,1.75-8.92l1.95-8.88c1.31-5.91,2.54-11.84,4.09-17.7s2.85-11.78,4.42-17.59l2.45-8.67c.87-2.88,1.82-5.74,2.73-8.61.46-1.44.89-2.88,1.38-4.3l1.51-4.27c1-2.84,2-5.7,3-8.52,2.15-5.65,4.26-11.31,6.58-16.9,4.43-11.25,9.3-22.34,14.27-33.39s10.27-22,15.65-32.85c10.63-21.82,22.13-43.23,33.7-64.61,2.9-5.34,5.87-10.65,8.82-16l9-15.9c6-10.6,12.06-21.13,18.2-31.64,12.22-21.05,24.77-41.92,37.48-62.72-14.4,19.68-28,39.94-41.29,60.38S3461.09,2224,3448.81,2245.12Z"/></g><rect class="cls-29" x="1342.64" y="460" width="1933.92" height="1287.49" rx="114.36"/><rect class="cls-5" x="1376.56" y="498.49" width="1866.08" height="1210.52" rx="118.9"/><g class="cls-30"><g class="cls-31"><path class="cls-21" d="M1725.24,1033.57a245.33,245.33,0,0,1-99-63.09c-39-40.46-68.91-97.06-89-168.21-16.11-57.17-25.9-123.78-29.1-198-5.45-126.57,10.41-232.64,10.57-233.7l-9.06-1.38c-.16,1.06-16.14,107.88-10.67,235.3,3.22,74.94,13.12,142.28,29.41,200.16,20.46,72.65,51.14,130.58,91.19,172.16,51.6,53.58,119.13,80.59,201.19,80.59a414.43,414.43,0,0,0,46.81-2.75l-1-9.11C1814.09,1051.55,1766.53,1047.52,1725.24,1033.57Z"/></g><g class="cls-31"><polygon class="cls-21" points="2709.34 1083.72 2709.39 1088.3 2709.35 1083.72 2709.34 1083.72"/><path class="cls-21" d="M2920.74,343.81l-9,1.65c.1.52,9.51,52.76,14.18,136.86,4.31,77.6,5.34,199-14.21,336.51-8.55,60.17-24.55,111.54-47.57,152.69-18.32,32.77-41.11,59.17-67.73,78.46-36.24,26.26-72.79,33.55-87.05,33.74l0,4.58.05,4.58c1.78,0,44.22-.84,91.82-35.11,27.81-20,51.58-47.4,70.64-81.36,23.69-42.22,40.13-94.8,48.87-156.29,19.67-138.36,18.62-260.44,14.28-338.49C2930.34,397,2920.84,344.34,2920.74,343.81Z"/></g><g class="cls-31"><path class="cls-21" d="M3192.57,1086.63c-66.55,49.47-144.12,82.5-230.56,98.15-65.43,11.84-136,13.79-209.71,5.78-60.1-6.53-106.66-17.9-131.68-24-15-3.66-18.25-4.42-20.62-3.83l2.21,8.89a2.16,2.16,0,0,1-.62.09c1.58,0,9,1.83,16.86,3.75,25.22,6.17,72.16,17.64,132.86,24.23a819,819,0,0,0,88.38,4.89,696.21,696.21,0,0,0,123.95-10.77c87.84-15.9,166.71-49.48,234.4-99.81,82.11-61,148.76-147.56,198.08-257.12l-8.35-3.77C3339.09,941.22,3273.42,1026.52,3192.57,1086.63Z"/></g><path class="cls-32" d="M2758.83,1137.63l-6.44-5,5.48-6c40.19-44.27,49.35-84.83,28.81-127.67-20-41.69-53.83-62.83-100.6-62.83-4.74,0-9.67.22-14.66.66l-11,1,3.06-10.58c14.82-51.25,3.22-90.17-35.46-119-20.47-15.25-41.76-23-63.29-23-19.93,0-40.62,6.61-61.48,19.66l-9,5.62-2.37-10.34c-11.53-50.34-39.7-79.6-83.72-87a132.88,132.88,0,0,0-21.78-1.87c-36.9,0-67.06,16.87-89.66,50.14l-6.1,9-6.3-8.85c-24.09-33.89-54-51.07-88.81-51.07a121.13,121.13,0,0,0-21.95,2.09c-44.47,8.2-73.25,36.59-85.54,84.37l-2.37,9.22-8.44-4.41c-23-12-44.67-18.1-64.41-18.1-22.45,0-42.67,7.49-61.84,22.9-19,15.23-31.66,33.29-37.79,53.69-6,20-5.76,42.38.75,66.54l1.47,5.47-4.84,2.94c-.39.24-.69.44-.93.6a10.8,10.8,0,0,1-3.51,1.7c-30.22,7.87-55,25.67-69.81,50.11s-18.91,54.44-11.54,84.43c3,12.36-3,17.47-10,21.13-33,17.34-54.13,52.57-55.13,92-1,38.2,17.07,71.12,49.51,90.33,21.1,12.49,43.75,18.56,69.25,18.56h.57c57.94-.21,118.54-.7,180.12-1.45h.53c9.81,0,16.05,3.62,20.89,12.1,12.6,22.11,28.65,39,47.7,50.21s41.56,17.06,67.09,17.49c12.35.2,24.94.23,37.11.26,13.5,0,27.47.07,41.23.34,5.65.12,13.25,2.94,16.84,8.13,12,17.28,27.57,33.16,49.08,50a34.68,34.68,0,0,1,4.72,4.47l3.58,2.26c29.67,14.8,101.08,46.43,135.24,51,10.06.88,20.46,1.32,30.93,1.32,4.54,0,9.18-.08,13.8-.25,2.15-.07,4.26-.14,6.34-.19a173.56,173.56,0,0,0,18.9-2.44c32.37-6.21,60.65-18,84-34.92,24-17.37,43.59-40.8,58.38-69.65,3-5.76,9.68-9.55,14.68-10.63,43.64-9.46,76.92-34.47,93.72-70.44,17.09-36.57,15.17-81.5-5.13-120.17C2788.79,1162.39,2773,1148.6,2758.83,1137.63ZM2681,1383.81c-.65,1.28-1.21,2.49-1.75,3.63a58.09,58.09,0,0,1-3.88,7.31c-30.25,46-71.88,73.26-123.73,81.12a281.5,281.5,0,0,1-42,3.23c-69.22,0-133.54-27.64-191.17-82.16a69.32,69.32,0,0,1-6.27-7.09c-1.08-1.35-2.31-2.87-3.75-4.56L2298,1372.86h388.58Zm78.48-46.24c-21.62,16.16-44.77,24-70.76,24h-.29c-101.59-.25-204.86-.25-304.74-.25-58.81,0-119.62,0-179.44,0-38,0-65.94-9.33-88.06-29.27-30.56-27.55-45-67.36-38.57-106.51,6.37-38.89,32.52-71.8,69.95-88,19.7-8.54,40.33-8.58,60.28-8.62h4c13.43-.06,27.32-.09,42.47-.09,31.32,0,63.16.12,93.95.23q26.66.11,53.33.18h4.1c1.11,0,2.22,0,3.33,0,10.33-.13,10.31-3.07,10.29-5.67,0-2.9-.05-5.65-10.18-5.67H2387.2c-21.61,0-44,0-66-.37a30.53,30.53,0,0,1-18.06-6.67c-20.85-17.16-33.1-36.74-37.45-59.86-5.69-30.29,6.92-54.58,16.91-70.21l3.48-5.44,5.91,2.59c4.67,2,9.19,4.22,13.56,6.33,9.32,4.48,18.12,8.73,27.18,11.15a94.77,94.77,0,0,0,24.53,3.28,93.21,93.21,0,0,0,42.56-10.41,55.67,55.67,0,0,0,12.57-9.44c-14.83,5.93-31.58,9-51.58,9.58-.65,0-1.32,0-2,0-29.22,0-60.33-18-79.28-45.78-18.75-27.54-22.5-59.45-10.53-89.86,1.19-3,2.55-5.9,3.87-8.69l.06-.11a92.23,92.23,0,0,0-17.55,47.69,94,94,0,0,0,16.36,60.08c4.36,6.32,7.48,13.6.88,23.91-27.61,43.09-26.6,81.34,3.25,124a38.82,38.82,0,0,1,2.08,3.47c.33.6.71,1.29,1.18,2.11l6,10.45-12,.84c-12.31.85-24.59,1-36,1h-8.29l-8.21,0c-25.71,0-50.8.6-75.09,7.87l-6.72,2-2.5-6.55c-1.66-4.37-3.25-8.78-4.79-13-3.36-9.33-6.53-18.14-10.49-26.68-18.49-40-59.76-65.76-105.13-65.76a119.58,119.58,0,0,0-47.3,9.84,142.58,142.58,0,0,1,35.05-4.65,113,113,0,0,1,24.42,2.63c52.18,11.52,83.93,45.38,94.37,100.63,1.29,6.82-2.82,15.12-7.37,18.9-38.26,31.79-54.3,71.08-49,120.14.21,2,.34,4.15.37,6.35a16.26,16.26,0,0,1-.43,3.55c-.07.36-.16.78-.24,1.28l-1.07,6.29h-54.88q-15.27,0-30.53,0l-15.34,0c-26.23,0-53.35-.11-80-.4s-46.45-5-63.63-15.1c-32.69-19.31-48.33-46.6-46.49-81.11,2.25-42.1,23.42-71.94,61.23-86.31a89,89,0,0,1,31.62-6.06c23.61,0,46.61,10.48,68.36,31.16,6.14,5.83,10.78,12.79,15.27,19.52l1.13,1.69a93.74,93.74,0,0,0-30.16-42.64,96.2,96.2,0,0,0-59.72-20.76c-2.54,0-5.11.1-7.65.29-1,.08-1.92.12-2.77.12-11.18,0-14.42-7.65-15.89-13.41-7.07-27.72-1.12-57.2,16.31-80.89,17.29-23.5,43.41-37.84,71.67-39.33,8.61-.45,10.15-2.69,10.29-3,.65-1.11.39-4.41-2.46-10-13.59-26.86-11.15-61.24,6.36-89.72s46.31-45,78.75-45c2.32,0,4.69.08,7,.25a97,97,0,0,1,72.07,40.75,100.56,100.56,0,0,1,15.23,84.43,222.32,222.32,0,0,1-8,23.21c-1.48,3.84-3,7.78-4.38,11.69a108.9,108.9,0,0,0,11.64-15.09c3.79-6,8.67-8.94,14.92-8.94a25,25,0,0,1,4.22.38c32,5.37,56.33,21.36,72.31,47.54,4.83,7.92,8.06,16.56,11.19,24.92,1.59,4.24,3.09,8.28,4.79,12.2A95,95,0,0,0,2195.21,957a97.71,97.71,0,0,0-61.71-33.84,12.73,12.73,0,0,1-3.95-1.3l-.11-.05-4.66-1.84v-5.14c0-3.36,0-6.71.09-9.95.1-7.17.19-13.93-.17-20.69-1-18.37-7.56-36-20.7-55.49a32.52,32.52,0,0,1-5.19-20.62c5.14-44.94,39.75-80.81,82.3-85.28a107.58,107.58,0,0,1,11.43-.61c42,0,76.82,25.27,90.9,66,2.49,7.2,4.17,7.2,6.29,7.21l0,3.78h0v-3.78c2.66,0,4.18-.35,7-7.84,14.94-39.81,50.78-65.53,91.31-65.53a92.85,92.85,0,0,1,40.51,9.32c29.9,14.37,47.2,39.67,52.92,77.35a60.18,60.18,0,0,1,.53,6.19,26.85,26.85,0,0,0,.81,6.56l.05.15c.67,2,2.17,6.54,3.37,8.32h.06c2.22,0,5.9-1.26,9.15-3.14,4.6-2.66,9-5.79,13.68-9.09,7.62-5.4,15.5-11,24.51-14.59a85.64,85.64,0,0,1,31.85-6.39c21.83,0,43,9.09,63,27,27.45,24.59,36.15,57.27,25.17,94.52-2.87,9.73-7.25,18.77-11.49,27.19-3.23,6.42-2.42,8.08-.83,9.88a4.22,4.22,0,0,0,3.5,1.74,17.92,17.92,0,0,0,6.19-1.59,103.36,103.36,0,0,1,38.6-7.62c46.17,0,85.11,32.5,94.69,79,3.32,16.12.1,36.52-8.85,56s-22.44,35.22-36.92,43.07c-6.16,3.33-6.75,4.65-6.69,7.07s1.18,3.53,7.45,6.72c36.63,18.62,60.64,54.71,64.24,96.55C2807.08,1276.42,2790.58,1314.33,2759.49,1337.57Z"/><path class="cls-4" d="M2739.38,1139.61c-6.27-3.19-7.39-4.19-7.45-6.72s.53-3.74,6.69-7.07c14.48-7.85,27.94-23.55,36.92-43.07s12.17-39.84,8.85-56c-9.58-46.54-48.52-79-94.69-79a103.36,103.36,0,0,0-38.6,7.62,17.92,17.92,0,0,1-6.19,1.59,4.22,4.22,0,0,1-3.5-1.74c-1.59-1.8-2.4-3.46.83-9.88,4.24-8.42,8.62-17.46,11.49-27.19,11-37.25,2.28-69.93-25.17-94.52-20-17.92-41.21-27-63-27a85.64,85.64,0,0,0-31.85,6.39c-9,3.61-16.89,9.19-24.51,14.59-4.67,3.3-9.08,6.43-13.68,9.09-3.25,1.88-6.92,3.14-9.15,3.14h-.06c-1.2-1.78-2.7-6.28-3.37-8.32l-.05-.15a26.85,26.85,0,0,1-.81-6.56,60.18,60.18,0,0,0-.53-6.19c-5.72-37.68-23-63-52.92-77.35a92.85,92.85,0,0,0-40.51-9.32c-40.53,0-76.37,25.72-91.31,65.53-2.81,7.49-4.33,7.84-7,7.84v3.78h0l0-3.78c-2.12,0-3.8,0-6.29-7.21-14.08-40.68-48.91-66-90.9-66a107.58,107.58,0,0,0-11.43.61c-42.55,4.47-77.16,40.34-82.3,85.28a32.52,32.52,0,0,0,5.19,20.62c13.14,19.49,19.72,37.12,20.7,55.49.36,6.76.27,13.53.17,20.69,0,3.24-.09,6.59-.09,9.95v5.14l4.66,1.84.11.05a12.73,12.73,0,0,0,3.95,1.3A97.71,97.71,0,0,1,2195.21,957a95,95,0,0,1,21.93,63.57c-1.7-3.92-3.2-8-4.79-12.2-3.13-8.36-6.36-17-11.19-24.92-16-26.18-40.31-42.17-72.31-47.54a25,25,0,0,0-4.22-.38c-6.25,0-11.14,2.92-14.92,8.94a108.9,108.9,0,0,1-11.64,15.09c1.37-3.91,2.9-7.85,4.38-11.69a222.32,222.32,0,0,0,8-23.21,100.53,100.53,0,0,0-15.23-84.43,97,97,0,0,0-72.07-40.75c-2.34-.17-4.71-.25-7-.25-32.44,0-61.15,16.42-78.75,45S1917.42,907.1,1931,934c2.85,5.64,3.11,8.94,2.46,10-.14.26-1.68,2.5-10.29,3-28.26,1.49-54.38,15.83-71.67,39.33-17.43,23.69-23.38,53.17-16.31,80.89,1.47,5.76,4.71,13.41,15.89,13.41.85,0,1.76,0,2.77-.12,2.54-.19,5.11-.29,7.65-.29a96.2,96.2,0,0,1,59.72,20.76,93.74,93.74,0,0,1,30.16,42.64l-1.13-1.69c-4.49-6.73-9.13-13.69-15.27-19.52-21.75-20.68-44.75-31.16-68.36-31.16a89,89,0,0,0-31.62,6.06c-37.81,14.37-59,44.21-61.23,86.31-1.84,34.51,13.8,61.8,46.49,81.11,17.18,10.15,36.8,14.81,63.63,15.1s53.81.35,80,.4l15.34,0q15.27,0,30.53,0h54.88l1.07-6.29c.08-.5.17-.92.24-1.28a16.26,16.26,0,0,0,.43-3.55c0-2.2-.16-4.34-.38-6.35-5.26-49.06,10.78-88.35,49-120.14,4.55-3.78,8.66-12.08,7.37-18.9-10.44-55.25-42.19-89.11-94.37-100.63a113,113,0,0,0-24.42-2.63,142.58,142.58,0,0,0-35.05,4.65,119.58,119.58,0,0,1,47.3-9.84c45.37,0,86.64,25.81,105.13,65.76,4,8.54,7.13,17.35,10.49,26.68,1.54,4.27,3.13,8.68,4.79,13l2.5,6.55,6.72-2c24.29-7.27,49.38-7.87,75.09-7.87l8.21,0h8.29c11.43,0,23.71-.12,36-1l12-.84-6-10.45c-.47-.82-.85-1.51-1.18-2.11a38.82,38.82,0,0,0-2.08-3.47c-29.85-42.67-30.86-80.92-3.25-124,6.6-10.31,3.48-17.59-.88-23.91a94,94,0,0,1-16.36-60.08A92.23,92.23,0,0,1,2273,843.94l-.06.11c-1.32,2.79-2.68,5.67-3.87,8.69-12,30.41-8.22,62.32,10.53,89.86,18.95,27.81,50.06,45.78,79.28,45.78l2,0c20-.56,36.75-3.65,51.58-9.58a55.67,55.67,0,0,1-12.57,9.44,93.21,93.21,0,0,1-42.56,10.41,94.77,94.77,0,0,1-24.53-3.28c-9.06-2.42-17.86-6.67-27.18-11.15-4.37-2.11-8.89-4.29-13.56-6.33l-5.91-2.59-3.48,5.44c-10,15.63-22.6,39.92-16.91,70.21,4.35,23.12,16.6,42.7,37.45,59.86a30.53,30.53,0,0,0,18.06,6.67c22,.37,44.36.37,66,.37h21.91c10.13,0,10.15,2.77,10.18,5.67,0,2.6,0,5.54-10.29,5.67-1.11,0-2.22,0-3.33,0h-4.1q-26.67-.06-53.33-.17c-30.79-.12-62.63-.24-93.95-.24-15.15,0-29,0-42.47.09h-4c-20,0-40.58.08-60.28,8.62-37.43,16.22-63.58,49.13-69.95,88-6.41,39.15,8,79,38.57,106.51,22.12,19.94,50.1,29.24,88.06,29.27,59.82,0,120.63,0,179.44,0,99.88,0,203.15,0,304.74.25h.29c26,0,49.14-7.86,70.76-24,31.09-23.24,47.59-61.15,44.13-101.41C2800,1194.32,2776,1158.23,2739.38,1139.61Z"/><g class="cls-33"><path class="cls-34" d="M2057,1026.4c39,19.27,51.09,98.81,3.6,140.63s-61.91,98.66-211.8,58.87-96.86-66.23-96.86-66.23c-28.41-16.63-63.16,15.72-63.16,15.72s16.87,40.43,37.11,69.74,33.74,32.86,67.48,54.55,132.54,77.6,282,9.09c-12.53-118.15,37.11-152.72,58.38-181.85C2124.58,1087.17,2097.35,1042.35,2057,1026.4Z"/><path class="cls-34" d="M2792.56,1163.9c35.34,67.23-8.36,148-56.59,164.75s-394.53,16.06-541.32,7.39S2073.41,1281,2073.41,1281s-124.61,65-97.84,77.9,209.71,85.47,355.48,136.24,185.18,29.56,258.44,36,275-198.57,275-198.57S2869,1235.47,2792.56,1163.9Z"/><path class="cls-34" d="M2515.91,1020.23c20.24-48.56,27.78-85.51,1.52-128.57-67.07-51.09-88.39-28.75-88.39-28.75s-16.06.4-33.21,13-16.27,13.46-16.27,13.46,58.75-23.85,95.38,8.2,15.91,112.94-12.77,138.4c42.41,14.38,98.56,34.57,94.22,98.21s-214.95,59.56-214.95,59.56-46.41-16.71-66.58-45c18.38,30.85,18.95,48.15,19.95,49.34s9.68,19.42,9.68,19.42,0,8.36,114.7,6.43,138.49,2.89,157.77-22.49,45.3-43.36,33.41-94.78S2563.78,1029.91,2515.91,1020.23Z"/><path class="cls-34" d="M2614.56,792.36c6.57,13.47,58.74,110.11-14.77,187.72,60.07-30.58,74.16-83.28,76.91-89.7s-62.79-99.56-62.79-99.56A7.3,7.3,0,0,0,2614.56,792.36Z"/><path class="cls-34" d="M2764.87,966.87s50.5,94.45-65.81,177c80.65-.64,112.78-71.33,110.21-103.78S2764.87,966.87,2764.87,966.87Z"/><path class="cls-34" d="M2007.61,983.08c61,8.67,105.21-19.21,110.6-73.23s-21.51-82.07-21.51-82.07S2126.83,969.59,2007.61,983.08Z"/><path class="cls-34" d="M2258.81,872.67l.07-.09S2258.82,872.58,2258.81,872.67Z"/><path class="cls-34" d="M2261.8,1040.93c-4.22-54.48,23.23-72.43,23.23-72.43L2261.8,915s-3.5-40.26-3-42.35c-1.45,1.63-23.31,27.85-4.77,101.26-24.42,42.4-51.74,70.82-.64,147.36,38.56,7.53,52.43-1.69,52.43-1.69S2266,1095.41,2261.8,1040.93Z"/><path class="cls-34" d="M2300.66,1055.85c-18.61-55.26,12.29-75,12.29-75l-26.69-17.71s-31.58,72.81-32.22,73.35,42.52,80,42.52,80l-12.36,5.16,63.67,4.22S2319.27,1111.12,2300.66,1055.85Z"/><g class="cls-35"><path class="cls-36" d="M1933.5,870.89c-5.55,29.29.19,64.47,7.45,68.49s13.31-4.34,9.21-53.82,50.37-63.94,40.86-73.09S1940.59,833.47,1933.5,870.89Z"/></g><g class="cls-35"><path class="cls-36" d="M2595,1223.11c-5.55,29.29.19,64.48,7.45,68.49s13.3-4.33,9.2-53.82,50.37-63.94,40.87-73.08S2602.08,1185.7,2595,1223.11Z"/></g><g class="cls-35"><path class="cls-36" d="M2124.59,758.64c-6,7-10.48,18.64-11.28,33.26s11.88,9,14.45-9.48,20.89-32.13,19.9-37.07S2139.76,740.78,2124.59,758.64Z"/></g><g class="cls-35"><path class="cls-36" d="M2334.2,770c-15.17-7.23-56.35,47-64.76,104.58-3.66,25.1,3.79,21.21,6.36,34.26s17.67,3.82,17.85-38.64S2349.38,777.19,2334.2,770Z"/></g><g class="cls-35"><path class="cls-36" d="M2096.7,1210.86c-11.47,49.29-4.6,69.59,1.14,83.1s24.46,14.12,13-45.1,77-68.66,69.19-91S2108.89,1158.47,2096.7,1210.86Z"/></g><g class="cls-35"><path class="cls-36" d="M1883.62,1108.11c-29.18-13.93-67.28-4-86.48,38.55-17.7,39.25,28.59,39.65,36.29,11.2S1912.81,1122,1883.62,1108.11Z"/></g><g class="cls-35"><path class="cls-36" d="M1862.22,993.52c-12.67,16.39-3.39,36-6.6,66.53s24.09,24.72,19.82-12.55,44.12-67.8,45.4-83.45S1881.51,968.58,1862.22,993.52Z"/></g></g><path class="cls-32" d="M2657.07,1127.33c-6.49.41-13,1.4-19.89,2.46-3.07.47-6.25,1-9.47,1.39l-8.51,1.16-.06-8.58c-.2-25.76-8.25-47.83-24.61-67.47-16-19.19-36.48-31.69-62.68-38.23l-8.35-2.09,3.15-8,3.76-9.54c9.56-24.24,12.43-47.77,8.54-69.93a90.25,90.25,0,0,0-89.09-74.7,94,94,0,0,0-19.72,2.11c-16,3.43-27,9.82-34.31,20,2.36-.89,4.73-1.86,7.2-2.86,7.09-2.88,14.43-5.86,22.29-7.41a103.35,103.35,0,0,1,19.73-2c39.39,0,71.43,25.61,79.74,63.73,6.15,28.26.89,56.66-16.11,86.82-4.48,8-2.08,10.14-.79,11.31.56.51,3,2.21,11,2.75,26.35,1.78,51.3,15.45,68.43,37.5,16.31,21,23.12,46.83,18.7,70.93-10.3,56.07-53.84,81.61-89.95,81.61-1.85,0-3.72-.06-5.56-.19-2.82-.2-5.86-.29-9.28-.29-4.32,0-8.78.15-13.09.3s-9.05.31-13.63.31h-1.37c-50.35-.07-102.41-.14-153.63-.62-6.42-.06-12-5.17-14.73-8.22-3.41-3.78-6.71-7.68-9.92-11.52a126.75,126.75,0,0,1,6.06,52.78c-2,20.58-9,39.4-15.84,55.26,12.87-9.5,21.06-22,24.37-37.29a186.53,186.53,0,0,0,2.85-20.83c.33-3.29.67-6.69,1.09-10.12.39-4.31,4.36-7.16,8.13-7.38s6.85-.34,9.79-.36c5.49,0,11.13-.08,17.23-.08,15.39,0,31,.16,46.15.32s30.77.31,46.15.31c30.2,0,70-.54,110-4.76l8.34-.88v8.39c0,1.15,0,2.39-.05,3.7-.06,2.88-.12,5.87.08,8.79,1.13,16.22,4.74,30.23,11,42.41a130.3,130.3,0,0,1,.58-65.9,39.16,39.16,0,0,1,10.62-17.54,124.35,124.35,0,0,0,30.33-45.54c1.23-3.11,4.79-10.71,11.28-14,12.05-6.07,24.47-11.75,36.48-17.25l2.39-1.1-1.94.14Z"/><path class="cls-4" d="M2314.26,1372.86H2298l10.54,12.43c1.44,1.69,2.67,3.21,3.75,4.56a69.32,69.32,0,0,0,6.27,7.09c57.63,54.52,121.95,82.16,191.17,82.16a281.5,281.5,0,0,0,42-3.23c51.85-7.86,93.48-35.15,123.73-81.12a58.09,58.09,0,0,0,3.88-7.31c.54-1.14,1.1-2.35,1.75-3.63l5.53-11H2314.26Z"/><g class="cls-37"><rect class="cls-34" x="2268.18" y="1352.48" width="438.91" height="59.64"/></g><g class="cls-38"><polygon class="cls-3" points="1131.64 1852.78 1756.91 1852.78 2611.09 437.26 2094.5 485.62 1131.64 1852.78"/></g><g class="cls-38"><polygon class="cls-3" points="1971.82 1852.78 2339.48 1852.78 3193.66 437.26 2934.68 485.62 1971.82 1852.78"/></g></g><rect class="cls-16" x="2771.98" y="2301.55" width="25.65" height="286.95"/><g class="cls-39"><rect class="cls-16" x="2724.51" y="2283.19" width="125.05" height="114.56"/></g><path class="cls-16" d="M2612,2265a56.08,56.08,0,0,0,56.08,56.08h228.26a56.08,56.08,0,0,0,56.08-56.08H2612Z"/><path class="cls-17" d="M2523.73,2240.32h0a39.06,39.06,0,0,0,39.06,39.06h441.8c54.78,0,110.87-96.52,132.39-146.74s55.43-246.3,56.3-333.25c.23-23.54.34-45,.38-63.73a81.36,81.36,0,0,0-81.37-81.49H2946.82a81.36,81.36,0,0,0-81.36,81.36v50.81c0,13.05-4.35,120.87-33,230.43s-46.09,160-167.82,183.48c-40.15,0-76.54.7-102.28,1A39.06,39.06,0,0,0,2523.73,2240.32Z"/><g class="cls-40"><path class="cls-41" d="M3139.53,1642.84l-112.08-44.91-107.63,57L2804,2021.07s138.24,235.78,141,237.19,166.06-75,124.2-207.26,17.55-60.1,83.51-121.46-9.12-83.9-28.07-185.65S3139.53,1642.84,3139.53,1642.84Z"/></g><path class="cls-16" d="M2884,2584.5H2685.85a17.28,17.28,0,0,0,0,34.56H2884a17.28,17.28,0,1,0,0-34.56Z"/><rect class="cls-18" x="2523.73" y="2198.76" width="511.34" height="80.61" rx="40.31"/><g class="cls-42"><rect class="cls-41" x="2483.34" y="2242.22" width="575.42" height="93.33"/></g><path class="cls-13" d="M2625.52,2317.26l86.65,212.95s8.48,35.34,11.51,35.34,69.59-13.33,69.59-13.33L2722.43,2325Z"/><polygon class="cls-4" points="2704.7 2334.5 2806.66 2527.39 2868.64 2497.79 2793.27 2288.88 2704.7 2334.5"/><path class="cls-43" d="M2793.19,2514.33c.52-1.08-85.33,23.42-85.33,23.42l6.73,23.56s-50.88,14.94-73.49,27.86-17.36,29.94-17.36,29.94h190.19l-15.88-60.36S2792.66,2515.41,2793.19,2514.33Z"/><path class="cls-32" d="M2883.39,2524c-3.5-8.08-13.2-50.76-13.2-50.76l-80.31,35.2s25.13,26.87,24,31.44-9.69,18-12.38,21-34.46,15.08-50.08,28.54-14.8,29.67-14.8,29.67h102.57s85.33-31.83,82.91-41.79S2886.88,2532.1,2883.39,2524Z"/><path class="cls-19" d="M2986.05,1919.07l25.76,84.8s15.87,44.62,15.63,102.79c-.36,89-59.15,107.76-156.14,90.12-72.05-13.1-71.93,21-71.93,21L2828.78,2322s-142.88,72.24-238.24,17.36c-27.25-156.54-34.48-233.18-7.34-271.69s203.47-101.36,203.47-101.36l-18.75-68.11Z"/><g class="cls-44"><path class="cls-45" d="M3035.07,1870.89c-90.89,2.19-300.85,2.84-284,15.08s12.26,80.8,12.26,80.8,205.84,45.18,196.48,121.9-131.93,17.78-166.54,58-3.74,239.87,10.29,238.29,99.18-25.9,182.45-76.42,153.52-119.76,153.52-119.76L3035.07,1925S3126,1868.71,3035.07,1870.89Z"/></g><path class="cls-9" d="M2823.14,1481.55s-33-23.14-22.18-64.3,52-36.06,52-36.06,36.38-38,91-11.81c34.78,3.83,51,41.17,60.63,120.63,7.34,51.69,60.31,130.35,135,122.21-79,132.11-247.71,109.14-247.71,109.14s23-49.54,2.88-138.57S2823.14,1481.55,2823.14,1481.55Z"/><g class="cls-46"><path class="cls-47" d="M2783.58,1428.28c-.09-.71-.13-1.11-.13-1.11S2783.48,1427.58,2783.58,1428.28Z"/><path class="cls-47" d="M2973.38,1576.88c-22-39.07-22.22-45.85-25-70.18s-8.42-36-35.08-48.42-52.4-31.89-52.4-31.89-18.95,31.19-47.29,28.38c-24.74-2.45-29.25-21.66-30-26.49.79,6.09,4.91,35.87,12,48,7.95,13.57,19.73,37.49,19.83,39s97.59,185.61,107.88,202,84.21.47,90.29-.47,62.22,1.88,100.58-48.18C3060.72,1661.21,2995.37,1615.94,2973.38,1576.88Z"/><g class="cls-48"><path class="cls-3" d="M2960.52,1387.18c-6.09,19.18-62.46,24.56-60.59,25s53.33,22.93,87,16.61C2982.5,1400,2960.52,1387.18,2960.52,1387.18Z"/></g></g><path class="cls-3" d="M2929.64,1518.88s2.47,68.77,6.78,74,80.65,23,98.36,35.42,5.19,75.79-6.78,150.46-31.11,166.57-31.11,166.57-49.78,35.18-209.17,14.36c-7.9-48.11-20.83-114.16-20.83-114.16l-61-10.77s23.7-102,36.62-142.16,22.74-78.5,51.14-83.29,64.78-7.34,69.88-15.32-.64-49.14-.64-49.14l57.12-36.38Z"/><g class="cls-49"><path class="cls-50" d="M2883.72,1629.38c-2,4.53-44.83,99-54.55,142-4.18,18.52-2.51,65.88,5,140.76,5.56,55.67,12.42,106.6,12.49,107.11l3.63-.5c-.27-2-27.3-203.2-17.5-246.56s53.94-140.46,54.38-141.44l.07-.16,13.67-56.75-3.56-.86Z"/><path class="cls-2" d="M2788.19,1670.62s-46.83,93-55.52,124.53-45.47,9.49-46.23,10.44-.2,38.78,0,43.09,79.37,20.67,79.37,20.67l1.08-23.78s-9.33-53.37-5.85-78.74S2788.19,1670.62,2788.19,1670.62Z"/><path class="cls-13" d="M2855.92,1541.54l-2.55,36.85,32.09,51.59s54.92-54.08,57.83-54.63l-13.31-77Z"/></g><path class="cls-4" d="M3100.28,1805.59S3128,1891,3118,1906.76s-133.87,37.58-235.34,26.34c-54.73-5-137.16-21.72-137.16-21.72s274.37-49.78,274.85-57.91-8.61-25.85-8.61-25.85S3101.08,1805.26,3100.28,1805.59Z"/><g class="cls-51"><path class="cls-52" d="M3035.34,1845.51c.52,1,35.35-6.19,52.19,10.19s32.28,35,18.71,42.51-268.53,24.45-267.12,26.76,79.53,48.15,79.53,48.15,153.91-28.07,175.43-38.83,51.46-23.39,51.46-23.39L3110.09,1801Z"/></g><path class="cls-3" d="M3028.8,1627.86c42.59,4.26,81.29,191.86,81.29,191.86s-50.26,47.39-102,25.85c-20.11-91.9-24.33-139.85-27.85-157.08S2993.7,1624.35,3028.8,1627.86Z"/><g class="cls-53"><path class="cls-2" d="M2969.53,1635.29l-65.11,108.09,41.29,139.24,109.55-6.35s-21.3-21.7-55.43-109.83S2969.53,1635.29,2969.53,1635.29Z"/></g><path class="cls-4" d="M2813.58,1462.62s0,54.25,5.58,86.19,45.38,30.68,72.51,13.69,29.91-34.22,29.91-34.22,18,6.33,19.77-17.75-10.14-35-22-27.38c-4.06-15.21-13.1-4.14-25.27-33.21s-37.18-33.13-38.53-12.17S2837.24,1473.94,2813.58,1462.62Z"/><g class="cls-54"><g class="cls-55"><path class="cls-56" d="M2842.24,1410.18c-.47.31-20.22,18.09-20.22,18.09L2810,1460.08c.46,0,10.29,18.55,31,9s15.9-48,44.75-41C2880.28,1414.85,2842.7,1409.86,2842.24,1410.18Z"/></g><g class="cls-55"><path class="cls-56" d="M2891.26,1507a16.51,16.51,0,1,0,18.88,13.73A16.5,16.5,0,0,0,2891.26,1507Z"/></g><path d="M2839.91,1458.8c-12.68-1.17-20.81,6.35-14.51,5.34s9.47-1.11,13.24-.07S2846.84,1459.44,2839.91,1458.8Z"/><path d="M2869.28,1461.72c-7.88-.49-3.62,5.86.76,5.43s7.95.18,14.91,2.2S2883.71,1462.6,2869.28,1461.72Z"/><path d="M2850.09,1540.81a24.75,24.75,0,0,1-7.29.27,32.81,32.81,0,0,1-7.85-2.15,13,13,0,0,0,6.64,6.3,16.47,16.47,0,0,0,9.47,1,21.54,21.54,0,0,0,8.46-3.59,19.25,19.25,0,0,0,6-6.62l-8,2.79A53.72,53.72,0,0,1,2850.09,1540.81Z"/><path d="M2876.27,1483.48c-3.42-.61-6.9,2.82-7.77,7.68s1.19,9.28,4.61,9.89,6.9-2.82,7.77-7.67S2879.68,1484.1,2876.27,1483.48Z"/><path d="M2866.52,1477.37c3.09,9.35,6.78,11.81,6.78,11.81l2.14-4,.83-1.69S2873,1484.48,2866.52,1477.37Z"/><path d="M2833.11,1479.42c-2.93-.52-5.91,2.42-6.65,6.57s1,8,3.95,8.48,5.9-2.42,6.65-6.57S2836,1480,2833.11,1479.42Z"/><path d="M2824.76,1474.19c2.65,8,5.81,10.11,5.81,10.11l1.84-3.43.7-1.45S2830.32,1480.28,2824.76,1474.19Z"/><path class="cls-57" d="M2832,1517.55c.83,4.62,12.07,9.42,12.07,9.42l1.65-39.33S2831.2,1512.92,2832,1517.55Z"/></g><polygon class="cls-2" points="2890.95 1616.69 2909.45 1662.64 2941.53 1591.8 2935.3 1570.74 2890.95 1616.69"/><polygon class="cls-2" points="2853.38 1598.01 2854.25 1654.98 2882.65 1616.69 2861.99 1575.35 2853.38 1598.01"/><path class="cls-58" d="M3435.94,1942.75H1209.11a11.85,11.85,0,0,0,0,23.69H3435.94a11.85,11.85,0,0,0,0-23.69Z"/><path class="cls-59" d="M3521.34,1157.14A129.53,129.53,0,0,0,3392,1286.53h30.26a99.24,99.24,0,0,1,99.13-99.13,124.55,124.55,0,0,1,124.41,124.41V2639.28H3676V1311.81C3676,1226.52,3606.63,1157.14,3521.34,1157.14Z"/><path class="cls-9" d="M3410.69,1272.41c-68.65-43.67-154.12-32.21-190.89,25.6,8.89-14,71.76,10.08,140.41,53.75s117.09,90.41,108.19,104.39C3505.18,1398.34,3479.34,1316.07,3410.69,1272.41Z"/><ellipse class="cls-3" cx="3344.1" cy="1377.08" rx="30.01" ry="147.32" transform="translate(387.32 3459.59) rotate(-57.54)"/><rect class="cls-5" x="929.68" y="765.95" width="645.54" height="839.9" rx="65.23"/><g class="cls-60"><rect class="cls-7" x="908.15" y="727.21" width="697.77" height="109.72"/><circle class="cls-3" cx="1358.83" cy="802.2" r="16.2"/><circle class="cls-3" cx="1430.71" cy="802.2" r="16.2" transform="translate(-198.08 608.57) rotate(-22.5)"/><circle class="cls-3" cx="1502.58" cy="802.2" r="16.2" transform="translate(-192.61 636.08) rotate(-22.5)"/><path class="cls-4" d="M1098.64,891.5h-108a20.83,20.83,0,0,0-20.84,20.83h0a20.84,20.84,0,0,0,20.84,20.83h108a20.84,20.84,0,0,0,20.83-20.83h0A20.83,20.83,0,0,0,1098.64,891.5Z"/><g class="cls-61"><path class="cls-62" d="M1516.46,968.81H1060.05A14.08,14.08,0,0,0,1046,982.89h0A14.08,14.08,0,0,0,1060.05,997h456.41a14.08,14.08,0,0,0,14.08-14.08h0A14.08,14.08,0,0,0,1516.46,968.81Z"/></g><rect class="cls-3" x="1045.98" y="1037.57" width="266.51" height="28.15" rx="14.08"/><path class="cls-3" d="M1289.53,1106.33H1159.39a14.08,14.08,0,0,0,0,28.16h130.14a14.08,14.08,0,0,0,0-28.16Z"/><path class="cls-3" d="M1474.47,1106.33H1344.33a14.08,14.08,0,0,0,0,28.16h130.14a14.08,14.08,0,0,0,0-28.16Z"/><path class="cls-4" d="M1098.64,1147.14h-108A20.84,20.84,0,0,0,969.79,1168h0a20.84,20.84,0,0,0,20.84,20.84h108a20.84,20.84,0,0,0,20.83-20.84h0A20.84,20.84,0,0,0,1098.64,1147.14Z"/><rect class="cls-3" x="1045.98" y="1224.46" width="353.46" height="28.15" rx="14.08"/><g class="cls-61"><path class="cls-62" d="M1194.29,1293.92H1057.42a14.07,14.07,0,0,0-14.07,14.08h0a14.08,14.08,0,0,0,14.07,14.08h136.87a14.08,14.08,0,0,0,14.08-14.08h0A14.08,14.08,0,0,0,1194.29,1293.92Z"/></g><path class="cls-3" d="M1512.78,1293.22H1260.7a14.08,14.08,0,1,0,0,28.15h252.08a14.08,14.08,0,1,0,0-28.15Z"/><path class="cls-3" d="M1098.64,1354.22h-108a20.84,20.84,0,0,0-20.84,20.83h0a20.83,20.83,0,0,0,20.84,20.83h108a20.83,20.83,0,0,0,20.83-20.83h0A20.84,20.84,0,0,0,1098.64,1354.22Z"/><path class="cls-4" d="M1098.64,1496.28h-108a20.83,20.83,0,1,0,0,41.66h108a20.83,20.83,0,0,0,0-41.66Z"/><path class="cls-3" d="M1385.36,1431.54H1060.05a14.07,14.07,0,0,0-14.07,14.07h0a14.07,14.07,0,0,0,14.07,14.08h325.31a14.08,14.08,0,0,0,14.08-14.08h0A14.08,14.08,0,0,0,1385.36,1431.54Z"/></g><rect class="cls-5" x="3069.17" y="605.37" width="645.54" height="459.21" rx="62.06"/><g class="cls-63"><rect class="cls-7" x="2994.45" y="572.11" width="751.61" height="116.17"/><circle class="cls-3" cx="3498.2" cy="647.16" r="21.89"/><circle class="cls-3" cx="3576.09" cy="647.16" r="21.89"/><circle class="cls-3" cx="3653.98" cy="647.16" r="21.89"/><g class="cls-61"><rect class="cls-4" x="3173.17" y="891.65" width="40.59" height="122.23"/><rect class="cls-4" x="3276.56" y="809.45" width="40.59" height="204.43"/><rect class="cls-4" x="3379.95" y="841.62" width="40.59" height="172.27"/><rect class="cls-4" x="3483.34" y="779.43" width="40.59" height="234.45"/><rect class="cls-4" x="3586.73" y="729.4" width="40.59" height="284.49"/><rect class="cls-4" x="3127.21" y="716.29" width="13.27" height="302.12"/><rect class="cls-4" x="3129.43" y="1006.02" width="527.25" height="12.39"/></g></g><path class="cls-9" d="M2979.73,1916.32H2388.3a13.22,13.22,0,0,0-13.22,13.22h0a13.21,13.21,0,0,0,13.22,13.21h591.43a13.21,13.21,0,0,0,13.22-13.21h0A13.22,13.22,0,0,0,2979.73,1916.32Z"/><path class="cls-64" d="M2727.77,1660.37c-1.83-7.88-9.7-14.28-17.59-14.28h-59.93c-7.89,0-12.81,6.4-11,14.28l57.88,250.32c1.82,7.88,9.69,14.28,17.58,14.28h59.94c7.88,0,12.8-6.4,11-14.28Z"/><path class="cls-6" d="M2386.4,1925h369.67c8.23,0,13.36-6.68,11.46-14.91L2709.94,1661c-1.91-8.23-10.12-14.91-18.36-14.91H2321.92c-8.24,0-13.37,6.68-11.46,14.91l57.59,249.06C2370,1918.29,2378.17,1925,2386.4,1925Z"/><g class="cls-65"><g class="cls-66"><ellipse class="cls-3" cx="2533.1" cy="1791.33" rx="32.27" ry="40.64" transform="translate(-489.5 2490.87) rotate(-48.3)"/></g><g class="cls-67"><path class="cls-3" d="M2705,1701c-4.42-19.13-23.62-34.69-42.79-34.69h-78.51a4.58,4.58,0,1,0,0,9.16h78.51c15.16,0,30.35,12.38,33.87,27.59l13.17,57a4.6,4.6,0,0,0,4.46,3.55,4.68,4.68,0,0,0,1-.12,4.59,4.59,0,0,0,3.43-5.5Z"/></g></g><rect class="cls-7" x="2068.76" y="1860.83" width="123.77" height="64.49"/><g class="cls-68"><rect class="cls-69" x="2037.9" y="1842.6" width="170.6" height="36.18"/></g><path class="cls-70" d="M2198.56,1919.07H2062.73a11.84,11.84,0,0,0-11.84,11.84h0a11.84,11.84,0,0,0,11.84,11.84h135.83a11.84,11.84,0,0,0,11.84-11.84h0A11.84,11.84,0,0,0,2198.56,1919.07Z"/><rect class="cls-8" x="1867.25" y="1503.66" width="536.17" height="360.57" rx="49.09"/><g class="cls-71"><rect class="cls-72" x="1877.03" y="1518.8" width="512.16" height="330.9" rx="49.33"/><g class="cls-73"><path class="cls-3" d="M2060.81,1874.78h82.3l283.39-386.9-82.59,3.49C2343.5,1487.66,2060.81,1874.78,2060.81,1874.78Z"/></g><g class="cls-74"><path class="cls-75" d="M2131.37,1536h206.34a43.29,43.29,0,0,1,43.29,43.29v157.75a43.3,43.3,0,0,1-43.3,43.3H2131.37a43.3,43.3,0,0,1-43.3-43.3V1579.32A43.3,43.3,0,0,1,2131.37,1536Z"/></g><g class="cls-73"><path class="cls-3" d="M1754.71,1877.37h185.66l283.39-386.91-186,3.49C2037.41,1490.24,1754.71,1877.37,1754.71,1877.37Z"/></g></g><path class="cls-52" d="M1748.89,1548.64l-3,74.3s31,16.69,70.85,3.23a328.79,328.79,0,0,1,6-63.53l-25.69-17.58Z"/><path class="cls-10" d="M1653.72,1627.61c-37.94,2.15-55.07,33.29-59.11,96.28s3.23,281.48,18.57,305.89,271.36,124.89,271.36,124.89,50.07-28.59,37.15-86.74C1815.08,2024.32,1653.72,1627.61,1653.72,1627.61Z"/><path class="cls-9" d="M2171.66,2398.15s3.12,54.77,14.57,76.25,92.36,47.24,117.36,57.53,28.63,51.63,24.27,70.86-51.26,26.22-101.39,16-95,1.6-113.8-10.68-22-34.34-18.25-84.89-15.22-107.58-15.22-107.58Z"/><g class="cls-76"><path class="cls-77" d="M2260.74,2603c-42.25-7.74-58.72-12.08-101.8-7.43s-73.52-39.79-73.52-39.79,1.24,39.6,3.28,41.69,19.83,39.13,39.06,43.5,210.08-9.85,210.08-9.85l3.62-43S2303,2610.75,2260.74,2603Z"/><path class="cls-3" d="M2067.34,2400.68s-17.81,20.78,13.41,86.21c81.9,29.56,119.68-20.23,121.07-20.91l-2-65.42Z"/><path d="M2066.49,2398.84l-.55.64c-.75.89-18.22,22.45,13.15,88.2l.33.68.7.25c17.57,6.34,34.27,9.52,50,9.52a103.77,103.77,0,0,0,37.3-6.69,92.74,92.74,0,0,0,34.79-23.24l.63-.67.87-.41-2.05-68.39Zm133,66.85a89.28,89.28,0,0,1-33.43,22.33c-24.59,9.38-52.86,8.51-84-2.6-26.86-56.65-16.19-79-13.79-82.91l129.79-.12,1.88,62.83C2199.84,2465.36,2199.69,2465.51,2199.52,2465.69Z"/></g><path class="cls-9" d="M2395.33,2408.72s14.4,52.93,30,71.57,100.15,27.09,126.74,32,38.71,44.58,38.42,64.29-44.71,36.28-95.88,36.64-92.63,21.26-113.54,13.14-28.6-29-35.44-79.28S2308.49,2445,2308.49,2445Z"/><g class="cls-78"><path class="cls-77" d="M2524.91,2590.67c-42.93,1.18-59.94.36-101.13,13.82s-80.17-23.69-80.17-23.69,9.42,38.48,11.85,40.11,27.51,34.17,47.22,34.46,203.49-53.15,203.49-53.15l-5.36-42.8S2567.84,2589.49,2524.91,2590.67Z"/><path class="cls-3" d="M2293.79,2432.8s-13.12,24,31,81.57c86.25,12,112.9-44.6,114.11-45.54l-15.47-63.6Z"/><path d="M2292.58,2431.18l-.4.74c-.56,1-13.18,25.73,31.13,83.56l.46.6.75.1a170.87,170.87,0,0,0,23.52,1.69c24,0,44.91-5.69,62.44-17a92.9,92.9,0,0,0,29.23-29.95l.48-.78.75-.59-16.17-66.48Zm144,37.84a89.22,89.22,0,0,1-28.09,28.77c-22.11,14.27-49.94,19.28-82.72,14.86-38-49.86-32.21-73.94-30.67-78.26l127-27,14.86,61.07C2436.81,2468.63,2436.7,2468.81,2436.58,2469Z"/></g><path class="cls-79" d="M2144.82,2268,2008,2221.14s37.57,74.16,76.34,275.53c60.3,37.68,133.52-11.85,133.52-11.85l-49.11-265.38Z"/><path class="cls-10" d="M2046.06,2046.93s122.75,35.54,186.55,48.46,78.29,66.22,102.95,114.68S2459,2475,2459,2475s-48.05,64.14-134.19,39.38c-138.55-223.63-69.5-195.73-123.92-226-9.7-5.39-277-67.27-277-67.27Z"/><g class="cls-80"><path class="cls-81" d="M2239.37,2288.88c-40.23-34.63-136.6-52.38-170.61-79.51s-10.9-124.44-14.39-127.25c0,0-106.92,137.54-99.43,168.59s198.35,202.86,198.35,202.86,201.16,84.21,205.84,85S2279.6,2323.52,2239.37,2288.88Z"/></g><path class="cls-11" d="M1822.75,1624.13s64.35,11.2,109.77,24.12,35.2,199.21,36.81,252.51,19.39,134.06,103.38,142.14c-9.69,75.1-32.31,166.36-90.45,182.51s-224.52,26.52-269.74-74.1-77.8-390-83.19-443.57,12.66-66.13,22.71-78.69S1782,1614.42,1782,1614.42Z"/><g class="cls-82"><g class="cls-83"><path class="cls-10" d="M1850.53,2046.93c-54.82-121.26-1.93-277.1-21.91-342.81s-144.93-30.81-148.76-30.28c0,0-13.14,154.27-13.93,237.06s36.38,146,88,253.84,158,94.22,205.68,94.22,49.83-17.83,91.39-75C1982.4,2182,1905.35,2168.2,1850.53,2046.93Z"/></g></g><path class="cls-13" d="M2281.3,1908.08c-18.21-6.87-96,26.91-96,26.91l-9.44,2.19-1.33,50.23s11.87,10.94,36.49,6.6c16.93-3,31-11.41,38.88-8.46s24.34,6.07,26.53,10c5.54,10.06,10.8,18.93,17.87,16.35,3.25-1.18-6.93-21.81-9.75-25.57s-14.19-15.35-14.19-15.35,20.13,9.06,22.68,10.38,8.94,10,14.52,18.55,12.6,8.36,14.14,3.87-12.74-28.56-17.28-32.45-21.59-17.2-21.59-17.2,10.22,4.82,16.95,7.09,12.74,7.7,25.36,20,18.23,9.5,19.61,4.29-16.85-25.49-26.36-33.92-28.48-20.09-28.48-20.09,27.19,8.58,39.15,15.33,25.4,11.66,24,.3S2299.5,1914.94,2281.3,1908.08Z"/><path class="cls-11" d="M1898.8,1688.09c5.12-24.79,22.9-36.54,40.26-36.54s48.31,40.58,48.85,102.49,9.48,137.57,22.37,159.64c65.66,4.85,189.49,0,189.49,0s22.61,46.84,5.38,85.61c-107.68,20.45-254.12,43.61-274,21.53s-24.23-63-32.31-120.06S1884.8,1755.93,1898.8,1688.09Z"/><g class="cls-84"><g class="cls-85"><path class="cls-10" d="M2035.63,1990.12c-68.06.62-91.22,6.39-111.81-83s-33.44-244.67-33.44-244.67-69.48,169.11-70.18,201.74,47,209.17,47,209.17l356.45-61.07-.7-52.59S2103.7,1989.49,2035.63,1990.12Z"/></g></g><path class="cls-86" d="M3823.43,2619.81H782.14a19.48,19.48,0,0,0-19.48,19.47h0a19.48,19.48,0,0,0,19.48,19.48H3823.43a19.48,19.48,0,0,0,19.47-19.48h0A19.47,19.47,0,0,0,3823.43,2619.81Z"/><g class="cls-67"><circle class="cls-3" cx="1171.98" cy="1673.84" r="25.29" transform="translate(-353.22 314.04) rotate(-13.28)"/></g><g class="cls-83"><circle class="cls-3" cx="3765.98" cy="1128.44" r="44.25" transform="translate(-145.17 1527.08) rotate(-22.5)"/></g><path class="cls-3" d="M3727.07,1348.26a32.43,32.43,0,1,0,31.13,33.68A32.42,32.42,0,0,0,3727.07,1348.26Z"/><path class="cls-10" d="M1779.58,1596.29c-19.39-.67-35-6.32-36.35-1.93s-1.61,30.74-1.61,30.74,13.73,8.88,38,10.77a94.44,94.44,0,0,0,43.17-7s2.59-27.73-1.45-32.58S1804.08,1597.14,1779.58,1596.29Z"/><path class="cls-12" d="M1873.8,1471.12s37.15-8.89,35.26-41.73-31.76-31-31.76-31,10.23-10.33,2.69-25-28-9.78-28-9.78,18-21.26,11.4-32.21c-5.63-9.27-24.59-2.78-39.31,4.31-22,10.6-54.73-4.94-73,2.6a32.09,32.09,0,0,0-19.92,25s-54.38,6.56-64.07,58.46,45.77,148.28,81.84,148.28,37.15-10.77,62.45-45.22S1873.8,1471.12,1873.8,1471.12Z"/><g class="cls-87"><path class="cls-88" d="M1785.58,1429.75c-34.61-1.87-24.56,26-42.57,85.17s-54.73,19.15-54.73,19.54c0,0,14.5,29.32,28.07,46.16s78.59,4.68,78.59,4.68,52.86-93.8,62.92-97.42,61.29-36.61,51.27-75.44C1907.3,1461.56,1820.2,1431.62,1785.58,1429.75Z"/></g><path class="cls-13" d="M1863.53,1456.4s3.73,46.66,7.16,80.4-4.36,45.58-17.75,49.53-67.25-11.12-68.74-37.17c-11.83-3.23-30-3.3-30.27-27.39s19-32,25.22-15.84c-2.8-29.79-4.36-75.37,31.76-59.94C1832.7,1465,1859.17,1462.5,1863.53,1456.4Z"/><g class="cls-89"><g class="cls-55"><g class="cls-55"><path class="cls-56" d="M1825.5,1517.28c-7.17.59-12.56,7.62-12,15.71s6.75,14.18,13.92,13.6,12.56-7.62,12-15.71S1832.66,1516.7,1825.5,1517.28Z"/></g></g><path d="M1841,1493.17c-2.9.28-5,3.82-4.7,7.9s2.92,7.17,5.82,6.89,5-3.82,4.71-7.9S1843.91,1492.89,1841,1493.17Z"/><path d="M1847.85,1475.54c-2.7,0-11.47,0-16.14,2s-8,4.92-7.48,6.27,4.31-.41,8.1-1.76,12.35-1.4,15.26-1.44,3.94-.65,4.2-1.84C1852.4,1476,1850.54,1475.49,1847.85,1475.54Z"/><path d="M1876,1548.75c-1.39.33-2.7.8-4.08,1a33.62,33.62,0,0,1-8.09.76,37.5,37.5,0,0,1-8.11-1,61.73,61.73,0,0,1-8.18-2.54,16.49,16.49,0,0,0,3.32,3c.61.45,1.27.82,1.91,1.22s1.35.7,2,1a23.17,23.17,0,0,0,8.94,2,21.86,21.86,0,0,0,9-1.68,20.81,20.81,0,0,0,4-2.13,6.6,6.6,0,0,0,.91-.66c.29-.24.58-.48.86-.73.57-.5,1.12-1,1.64-1.53-.74.19-1.44.42-2.13.64A19.7,19.7,0,0,1,1876,1548.75Z"/></g><path class="cls-23" d="M1803.73,2088.29c-42.39-92-40.22-238.47-40.22-278v-87a69.13,69.13,0,0,0-69.13-69.13H1624l.43,6.09s53.48,208.91,58,234.34,11.09,94.56,33.92,152,40.43,95.22,71.08,140.22,88.7,40.43,127.17,16.95C1869.59,2178.94,1846.12,2180.25,1803.73,2088.29Z"/><rect class="cls-14" x="1780.47" y="2301.55" width="25.65" height="286.95" transform="translate(3586.58 4890.05) rotate(-180)"/><g class="cls-90"><rect class="cls-91" x="1728.54" y="2283.19" width="125.05" height="114.56"/></g><path class="cls-41" d="M1625.69,2265a56.08,56.08,0,0,0,56.08,56.08H1910a56.08,56.08,0,0,0,56.08-56.08H1625.69Z"/><path class="cls-15" d="M2054.37,2240.32h0a39.06,39.06,0,0,1-39.06,39.06h-441.8c-54.78,0-110.86-96.52-132.38-146.74s-55.44-246.3-56.31-333.25c-.23-23.54-.34-45-.37-63.73a81.35,81.35,0,0,1,81.36-81.49h165.47a81.36,81.36,0,0,1,81.36,81.36v50.81c0,13.05,4.35,120.87,33,230.43s46.09,160,167.83,183.48c40.14,0,76.54.7,102.27,1A39.06,39.06,0,0,1,2054.37,2240.32Z"/><g class="cls-92"><path class="cls-23" d="M1652.64,1745.47H1435.26a7,7,0,0,0,0,13.92h217.38a7,7,0,0,0,0-13.92Z"/><path class="cls-23" d="M1652.64,1847.21H1435.26a7,7,0,1,0,0,13.91h217.38a7,7,0,1,0,0-13.91Z"/><path class="cls-23" d="M1672.64,1949H1455.26a7,7,0,1,0,0,13.91h217.38a7,7,0,1,0,0-13.91Z"/><path class="cls-23" d="M1690.9,2050.68H1473.52a7,7,0,0,0-7,7h0a7,7,0,0,0,7,7H1690.9a7,7,0,0,0,7-7h0A7,7,0,0,0,1690.9,2050.68Z"/><path class="cls-23" d="M1729.16,2152.42H1511.78a7,7,0,1,0,0,13.91h217.38a7,7,0,1,0,0-13.91Z"/></g><path class="cls-41" d="M1892.25,2584.5H1694.11a17.28,17.28,0,1,0,0,34.56h198.14a17.28,17.28,0,0,0,0-34.56Z"/><g class="cls-93"><path class="cls-3" d="M3909.89,1457.19a68.14,68.14,0,0,0-9.37-11.61,93.74,93.74,0,0,0-11.17-9.58l-3-2.16-3-2-1.51-1-1.56-1-3.1-1.9a219.35,219.35,0,0,0-26-12.81,420.2,420.2,0,0,0-54.65-18q-13.91-3.62-27.93-6.65c-9.36-2-18.75-3.83-28.15-5.56,18.68,4.1,37.25,8.68,55.56,14.06a414.72,414.72,0,0,1,53.68,19.52,217.52,217.52,0,0,1,25.09,13.28l3,1.92,1.48,1,1.44,1,2.87,2,2.78,2.14a88.47,88.47,0,0,1,10.32,9.37,62.53,62.53,0,0,1,8.31,10.89,44,44,0,0,1,5,12.4,39.2,39.2,0,0,1,.72,13.18,46.62,46.62,0,0,1-3.49,12.89c-3.53,8.32-9,15.87-15.15,22.79a175,175,0,0,1-20.51,19.06c-7.33,5.88-15,11.35-22.93,16.5s-16,10-24.28,14.71c-16.5,9.31-33.49,17.84-50.74,25.81s-34.76,15.45-52.42,22.55c-35.34,14.18-71.24,27-107.45,38.93s-72.71,23.06-109.39,33.54-73.53,20.4-110.51,29.84-74.1,18.36-111.28,27c-148.8,34.32-298.91,63-449.59,88.09q-113,18.72-226.48,34.81t-227.24,29.63q-113.77,13.63-227.83,24.69t-228.31,19.5c-152.35,11.13-305,18.6-457.68,20.39-38.18.39-76.35.47-114.51,0s-76.32-1.36-114.44-2.83-76.22-3.66-114.23-6.62-76-6.84-113.66-12.14q-14.15-2-28.23-4.27t-28.09-5c-18.68-3.55-37.24-7.67-55.55-12.6S860.33,1912.4,843,1905a202.36,202.36,0,0,1-25-12.77,118.14,118.14,0,0,1-11.49-7.85,87.94,87.94,0,0,1-10.24-9.19c-6.2-6.64-11.12-14.51-12.82-23.24s-.33-17.92,3.38-26.29a79.66,79.66,0,0,1,6.69-12.11,122.15,122.15,0,0,1,8.62-11.07,186.78,186.78,0,0,1,20.46-19.59c14.6-12.14,30.56-22.7,46.93-32.49s33.3-18.74,50.43-27.25q-13.07,5.93-26,12.24t-25.43,13.34c-16.74,9.3-33.11,19.4-48.31,31.25a187.29,187.29,0,0,0-21.5,19.44,125.26,125.26,0,0,0-9.32,11.29,84.49,84.49,0,0,0-7.51,12.75,54.38,54.38,0,0,0-4.56,14.35,46,46,0,0,0,0,15.27,47,47,0,0,0,5.05,14.42,65.13,65.13,0,0,0,8.71,12.33A94.18,94.18,0,0,0,802,1890a125.25,125.25,0,0,0,11.95,8.63c2,1.37,4.15,2.58,6.24,3.86s4.23,2.45,6.39,3.56l3.23,1.71,3.26,1.63c2.17,1.11,4.38,2.11,6.58,3.15a409.69,409.69,0,0,0,54.44,19.88c18.49,5.47,37.21,10,56,14q14.11,3,28.28,5.61t28.4,4.91c37.92,6.11,76,10.67,114.22,14.4s76.43,6.45,114.7,8.58,76.58,3.57,114.89,4.54,76.62,1.45,114.93,1.46,76.62-.36,114.92-1.07,76.59-1.88,114.86-3.28c76.55-2.79,153-7,229.46-12.09s152.74-11.45,229-18.58,152.39-15.41,228.43-24.45,152-19.1,227.77-30,151.45-22.86,226.93-35.88,150.79-27,225.84-42.32q56.29-11.48,112.39-23.91T3287,1768.24q55.84-13.58,111.34-28.57t110.55-31.6c36.68-11.16,73.2-22.87,109.4-35.56s72.13-26.24,107.48-41.27c17.67-7.54,35.2-15.43,52.48-23.89s34.33-17.42,50.9-27.31c8.29-5,16.45-10.11,24.43-15.59s15.76-11.28,23.2-17.54a177.79,177.79,0,0,0,21-20.48c6.33-7.51,12.06-15.78,15.79-25.2a53.65,53.65,0,0,0,3.58-14.81,45.18,45.18,0,0,0-1.23-15.28A50,50,0,0,0,3909.89,1457.19Z"/></g><path class="cls-57" d="M1862.7,1534.46s13.31-5.68,14.29-11.16-16.25-35.42-16.25-35.42Z"/></g></svg>